<ttFont>
    <TTGlyph name="A" xMin="-10" yMin="0" xMax="734" yMax="710">
      <contour>
        <pt x="368" y="645" on="1"/>
        <pt x="366" y="651" on="0"/>
        <pt x="358" y="651" on="0"/>
        <pt x="356" y="645" on="1"/>
        <pt x="219" y="289" on="1"/>
        <pt x="211" y="274" on="0"/>
        <pt x="230" y="274" on="1"/>
        <pt x="494" y="274" on="1"/>
        <pt x="512" y="274" on="0"/>
        <pt x="505" y="289" on="1"/>
      </contour>
      <contour>
        <pt x="528" y="230" on="1"/>
        <pt x="522" y="244" on="0"/>
        <pt x="504" y="244" on="1"/>
        <pt x="220" y="244" on="1"/>
        <pt x="202" y="244" on="0"/>
        <pt x="196" y="230" on="1"/>
        <pt x="125" y="45" on="1"/>
        <pt x="117" y="30" on="0"/>
        <pt x="135" y="30" on="1"/>
        <pt x="195" y="30" on="1"/>
        <pt x="210" y="30" on="0"/>
        <pt x="210" y="15" on="1"/>
        <pt x="210" y="0" on="0"/>
        <pt x="195" y="0" on="1"/>
        <pt x="5" y="0" on="1"/>
        <pt x="-10" y="0" on="0"/>
        <pt x="-10" y="15" on="1"/>
        <pt x="-10" y="30" on="0"/>
        <pt x="5" y="30" on="1"/>
        <pt x="70" y="30" on="1"/>
        <pt x="82" y="30" on="0"/>
        <pt x="90" y="45" on="1"/>
        <pt x="340" y="695" on="1"/>
        <pt x="344" y="710" on="0"/>
        <pt x="380" y="710" on="0"/>
        <pt x="384" y="695" on="1"/>
        <pt x="634" y="45" on="1"/>
        <pt x="641" y="30" on="0"/>
        <pt x="654" y="30" on="1"/>
        <pt x="719" y="30" on="1"/>
        <pt x="734" y="30" on="0"/>
        <pt x="734" y="15" on="1"/>
        <pt x="734" y="0" on="0"/>
        <pt x="719" y="0" on="1"/>
        <pt x="529" y="0" on="1"/>
        <pt x="514" y="0" on="0"/>
        <pt x="514" y="15" on="1"/>
        <pt x="514" y="30" on="0"/>
        <pt x="529" y="30" on="1"/>
        <pt x="589" y="30" on="1"/>
        <pt x="606" y="30" on="0"/>
        <pt x="599" y="45" on="1"/>
      </contour>
    </TTGlyph>
    <TTGlyph name="AE" xMin="-24" yMin="0" xMax="911" yMax="700">
      <contour>
        <pt x="496" y="255" on="1"/>
        <pt x="496" y="270" on="0"/>
        <pt x="481" y="270" on="1"/>
        <pt x="252" y="270" on="1"/>
        <pt x="234" y="270" on="0"/>
        <pt x="228" y="256" on="1"/>
        <pt x="111" y="45" on="1"/>
        <pt x="103" y="30" on="0"/>
        <pt x="121" y="30" on="1"/>
        <pt x="181" y="30" on="1"/>
        <pt x="196" y="30" on="0"/>
        <pt x="196" y="15" on="1"/>
        <pt x="196" y="0" on="0"/>
        <pt x="181" y="0" on="1"/>
        <pt x="-9" y="0" on="1"/>
        <pt x="-24" y="0" on="0"/>
        <pt x="-24" y="15" on="1"/>
        <pt x="-24" y="30" on="0"/>
        <pt x="-9" y="30" on="1"/>
        <pt x="56" y="30" on="1"/>
        <pt x="68" y="30" on="0"/>
        <pt x="76" y="45" on="1"/>
        <pt x="428" y="680" on="1"/>
        <pt x="437" y="700" on="0"/>
        <pt x="454" y="700" on="1"/>
        <pt x="886" y="700" on="1"/>
        <pt x="901" y="700" on="0"/>
        <pt x="901" y="685" on="1"/>
        <pt x="901" y="545" on="1"/>
        <pt x="901" y="530" on="0"/>
        <pt x="886" y="530" on="1"/>
        <pt x="871" y="530" on="0"/>
        <pt x="871" y="545" on="1"/>
        <pt x="871" y="655" on="1"/>
        <pt x="871" y="670" on="0"/>
        <pt x="856" y="670" on="1"/>
        <pt x="541" y="670" on="1"/>
        <pt x="526" y="670" on="0"/>
        <pt x="526" y="655" on="1"/>
        <pt x="526" y="385" on="1"/>
        <pt x="526" y="370" on="0"/>
        <pt x="541" y="370" on="1"/>
        <pt x="766" y="370" on="1"/>
        <pt x="781" y="370" on="0"/>
        <pt x="781" y="385" on="1"/>
        <pt x="781" y="435" on="1"/>
        <pt x="781" y="450" on="0"/>
        <pt x="796" y="450" on="1"/>
        <pt x="811" y="450" on="0"/>
        <pt x="811" y="435" on="1"/>
        <pt x="811" y="275" on="1"/>
        <pt x="811" y="260" on="0"/>
        <pt x="796" y="260" on="1"/>
        <pt x="781" y="260" on="0"/>
        <pt x="781" y="275" on="1"/>
        <pt x="781" y="325" on="1"/>
        <pt x="781" y="340" on="0"/>
        <pt x="766" y="340" on="1"/>
        <pt x="541" y="340" on="1"/>
        <pt x="526" y="340" on="0"/>
        <pt x="526" y="325" on="1"/>
        <pt x="526" y="45" on="1"/>
        <pt x="526" y="30" on="0"/>
        <pt x="541" y="30" on="1"/>
        <pt x="866" y="30" on="1"/>
        <pt x="881" y="30" on="0"/>
        <pt x="881" y="45" on="1"/>
        <pt x="881" y="155" on="1"/>
        <pt x="881" y="170" on="0"/>
        <pt x="896" y="170" on="1"/>
        <pt x="911" y="170" on="0"/>
        <pt x="911" y="155" on="1"/>
        <pt x="911" y="15" on="1"/>
        <pt x="911" y="0" on="0"/>
        <pt x="896" y="0" on="1"/>
        <pt x="421" y="0" on="1"/>
        <pt x="406" y="0" on="0"/>
        <pt x="406" y="15" on="1"/>
        <pt x="406" y="30" on="0"/>
        <pt x="421" y="30" on="1"/>
        <pt x="481" y="30" on="1"/>
        <pt x="496" y="30" on="0"/>
        <pt x="496" y="45" on="1"/>
      </contour>
      <contour>
        <pt x="496" y="655" on="1"/>
        <pt x="496" y="670" on="0"/>
        <pt x="481" y="670" on="1"/>
        <pt x="470" y="670" on="1"/>
        <pt x="457" y="670" on="0"/>
        <pt x="450" y="655" on="1"/>
        <pt x="261" y="315" on="1"/>
        <pt x="259" y="311" on="0"/>
        <pt x="259" y="307" on="1"/>
        <pt x="259" y="300" on="0"/>
        <pt x="272" y="300" on="1"/>
        <pt x="481" y="300" on="1"/>
        <pt x="496" y="300" on="0"/>
        <pt x="496" y="315" on="1"/>
      </contour>
    </TTGlyph>
    <TTGlyph name="Aacute" xMin="-10" yMin="0" xMax="734" yMax="915">
      <contour>
        <pt x="351" y="779" on="1"/>
        <pt x="440" y="906" on="1"/>
        <pt x="445" y="915" on="0"/>
        <pt x="456" y="915" on="0"/>
        <pt x="461" y="910" on="1"/>
        <pt x="469" y="906" on="0"/>
        <pt x="469" y="895" on="0"/>
        <pt x="465" y="890" on="1"/>
        <pt x="375" y="762" on="1"/>
        <pt x="370" y="756" on="0"/>
        <pt x="359" y="756" on="0"/>
        <pt x="354" y="759" on="1"/>
        <pt x="347" y="764" on="0"/>
        <pt x="347" y="769" on="1"/>
        <pt x="347" y="774" on="0"/>
      </contour>
      <contour>
        <pt x="368" y="645" on="1"/>
        <pt x="366" y="651" on="0"/>
        <pt x="358" y="651" on="0"/>
        <pt x="356" y="645" on="1"/>
        <pt x="219" y="289" on="1"/>
        <pt x="211" y="274" on="0"/>
        <pt x="230" y="274" on="1"/>
        <pt x="494" y="274" on="1"/>
        <pt x="512" y="274" on="0"/>
        <pt x="505" y="289" on="1"/>
      </contour>
      <contour>
        <pt x="528" y="230" on="1"/>
        <pt x="522" y="244" on="0"/>
        <pt x="504" y="244" on="1"/>
        <pt x="220" y="244" on="1"/>
        <pt x="202" y="244" on="0"/>
        <pt x="196" y="230" on="1"/>
        <pt x="125" y="45" on="1"/>
        <pt x="117" y="30" on="0"/>
        <pt x="135" y="30" on="1"/>
        <pt x="195" y="30" on="1"/>
        <pt x="210" y="30" on="0"/>
        <pt x="210" y="15" on="1"/>
        <pt x="210" y="0" on="0"/>
        <pt x="195" y="0" on="1"/>
        <pt x="5" y="0" on="1"/>
        <pt x="-10" y="0" on="0"/>
        <pt x="-10" y="15" on="1"/>
        <pt x="-10" y="30" on="0"/>
        <pt x="5" y="30" on="1"/>
        <pt x="70" y="30" on="1"/>
        <pt x="82" y="30" on="0"/>
        <pt x="90" y="45" on="1"/>
        <pt x="340" y="695" on="1"/>
        <pt x="344" y="710" on="0"/>
        <pt x="380" y="710" on="0"/>
        <pt x="384" y="695" on="1"/>
        <pt x="634" y="45" on="1"/>
        <pt x="641" y="30" on="0"/>
        <pt x="654" y="30" on="1"/>
        <pt x="719" y="30" on="1"/>
        <pt x="734" y="30" on="0"/>
        <pt x="734" y="15" on="1"/>
        <pt x="734" y="0" on="0"/>
        <pt x="719" y="0" on="1"/>
        <pt x="529" y="0" on="1"/>
        <pt x="514" y="0" on="0"/>
        <pt x="514" y="15" on="1"/>
        <pt x="514" y="30" on="0"/>
        <pt x="529" y="30" on="1"/>
        <pt x="589" y="30" on="1"/>
        <pt x="606" y="30" on="0"/>
        <pt x="599" y="45" on="1"/>
      </contour>
    </TTGlyph>
    <TTGlyph name="Acircumflex" xMin="-10" yMin="0" xMax="734" yMax="879">
      <contour>
        <pt x="237" y="761" on="1"/>
        <pt x="344" y="870" on="1"/>
        <pt x="353" y="879" on="0"/>
        <pt x="361" y="879" on="1"/>
        <pt x="369" y="879" on="0"/>
        <pt x="377" y="871" on="1"/>
        <pt x="487" y="761" on="1"/>
        <pt x="493" y="756" on="0"/>
        <pt x="493" y="745" on="0"/>
        <pt x="482" y="735" on="0"/>
        <pt x="471" y="735" on="0"/>
        <pt x="466" y="740" on="1"/>
        <pt x="370" y="835" on="1"/>
        <pt x="361" y="844" on="0"/>
        <pt x="352" y="835" on="1"/>
        <pt x="258" y="740" on="1"/>
        <pt x="253" y="735" on="0"/>
        <pt x="243" y="735" on="0"/>
        <pt x="232" y="745" on="0"/>
        <pt x="232" y="756" on="0"/>
      </contour>
      <contour>
        <pt x="368" y="645" on="1"/>
        <pt x="366" y="651" on="0"/>
        <pt x="358" y="651" on="0"/>
        <pt x="356" y="645" on="1"/>
        <pt x="219" y="289" on="1"/>
        <pt x="211" y="274" on="0"/>
        <pt x="230" y="274" on="1"/>
        <pt x="494" y="274" on="1"/>
        <pt x="512" y="274" on="0"/>
        <pt x="505" y="289" on="1"/>
      </contour>
      <contour>
        <pt x="528" y="230" on="1"/>
        <pt x="522" y="244" on="0"/>
        <pt x="504" y="244" on="1"/>
        <pt x="220" y="244" on="1"/>
        <pt x="202" y="244" on="0"/>
        <pt x="196" y="230" on="1"/>
        <pt x="125" y="45" on="1"/>
        <pt x="117" y="30" on="0"/>
        <pt x="135" y="30" on="1"/>
        <pt x="195" y="30" on="1"/>
        <pt x="210" y="30" on="0"/>
        <pt x="210" y="15" on="1"/>
        <pt x="210" y="0" on="0"/>
        <pt x="195" y="0" on="1"/>
        <pt x="5" y="0" on="1"/>
        <pt x="-10" y="0" on="0"/>
        <pt x="-10" y="15" on="1"/>
        <pt x="-10" y="30" on="0"/>
        <pt x="5" y="30" on="1"/>
        <pt x="70" y="30" on="1"/>
        <pt x="82" y="30" on="0"/>
        <pt x="90" y="45" on="1"/>
        <pt x="340" y="695" on="1"/>
        <pt x="344" y="710" on="0"/>
        <pt x="380" y="710" on="0"/>
        <pt x="384" y="695" on="1"/>
        <pt x="634" y="45" on="1"/>
        <pt x="641" y="30" on="0"/>
        <pt x="654" y="30" on="1"/>
        <pt x="719" y="30" on="1"/>
        <pt x="734" y="30" on="0"/>
        <pt x="734" y="15" on="1"/>
        <pt x="734" y="0" on="0"/>
        <pt x="719" y="0" on="1"/>
        <pt x="529" y="0" on="1"/>
        <pt x="514" y="0" on="0"/>
        <pt x="514" y="15" on="1"/>
        <pt x="514" y="30" on="0"/>
        <pt x="529" y="30" on="1"/>
        <pt x="589" y="30" on="1"/>
        <pt x="606" y="30" on="0"/>
        <pt x="599" y="45" on="1"/>
      </contour>
    </TTGlyph>
    <TTGlyph name="Adieresis" xMin="-10" yMin="0" xMax="734" yMax="825">
      <contour>
        <pt x="253" y="756" on="1"/>
        <pt x="242" y="768" on="0"/>
        <pt x="242" y="802" on="0"/>
        <pt x="265" y="825" on="0"/>
        <pt x="299" y="825" on="0"/>
        <pt x="322" y="802" on="0"/>
        <pt x="322" y="768" on="0"/>
        <pt x="299" y="745" on="0"/>
        <pt x="265" y="745" on="0"/>
      </contour>
      <contour>
        <pt x="413" y="756" on="1"/>
        <pt x="402" y="768" on="0"/>
        <pt x="402" y="802" on="0"/>
        <pt x="425" y="825" on="0"/>
        <pt x="459" y="825" on="0"/>
        <pt x="482" y="802" on="0"/>
        <pt x="482" y="768" on="0"/>
        <pt x="459" y="745" on="0"/>
        <pt x="425" y="745" on="0"/>
      </contour>
      <contour>
        <pt x="368" y="645" on="1"/>
        <pt x="366" y="651" on="0"/>
        <pt x="358" y="651" on="0"/>
        <pt x="356" y="645" on="1"/>
        <pt x="219" y="289" on="1"/>
        <pt x="211" y="274" on="0"/>
        <pt x="230" y="274" on="1"/>
        <pt x="494" y="274" on="1"/>
        <pt x="512" y="274" on="0"/>
        <pt x="505" y="289" on="1"/>
      </contour>
      <contour>
        <pt x="528" y="230" on="1"/>
        <pt x="522" y="244" on="0"/>
        <pt x="504" y="244" on="1"/>
        <pt x="220" y="244" on="1"/>
        <pt x="202" y="244" on="0"/>
        <pt x="196" y="230" on="1"/>
        <pt x="125" y="45" on="1"/>
        <pt x="117" y="30" on="0"/>
        <pt x="135" y="30" on="1"/>
        <pt x="195" y="30" on="1"/>
        <pt x="210" y="30" on="0"/>
        <pt x="210" y="15" on="1"/>
        <pt x="210" y="0" on="0"/>
        <pt x="195" y="0" on="1"/>
        <pt x="5" y="0" on="1"/>
        <pt x="-10" y="0" on="0"/>
        <pt x="-10" y="15" on="1"/>
        <pt x="-10" y="30" on="0"/>
        <pt x="5" y="30" on="1"/>
        <pt x="70" y="30" on="1"/>
        <pt x="82" y="30" on="0"/>
        <pt x="90" y="45" on="1"/>
        <pt x="340" y="695" on="1"/>
        <pt x="344" y="710" on="0"/>
        <pt x="380" y="710" on="0"/>
        <pt x="384" y="695" on="1"/>
        <pt x="634" y="45" on="1"/>
        <pt x="641" y="30" on="0"/>
        <pt x="654" y="30" on="1"/>
        <pt x="719" y="30" on="1"/>
        <pt x="734" y="30" on="0"/>
        <pt x="734" y="15" on="1"/>
        <pt x="734" y="0" on="0"/>
        <pt x="719" y="0" on="1"/>
        <pt x="529" y="0" on="1"/>
        <pt x="514" y="0" on="0"/>
        <pt x="514" y="15" on="1"/>
        <pt x="514" y="30" on="0"/>
        <pt x="529" y="30" on="1"/>
        <pt x="589" y="30" on="1"/>
        <pt x="606" y="30" on="0"/>
        <pt x="599" y="45" on="1"/>
      </contour>
    </TTGlyph>
    <TTGlyph name="Agrave" xMin="-10" yMin="0" xMax="734" yMax="915">
      <contour>
        <pt x="257" y="890" on="1"/>
        <pt x="253" y="895" on="0"/>
        <pt x="253" y="906" on="0"/>
        <pt x="261" y="910" on="1"/>
        <pt x="266" y="915" on="0"/>
        <pt x="277" y="915" on="0"/>
        <pt x="282" y="906" on="1"/>
        <pt x="371" y="779" on="1"/>
        <pt x="375" y="774" on="0"/>
        <pt x="375" y="769" on="1"/>
        <pt x="375" y="764" on="0"/>
        <pt x="368" y="759" on="1"/>
        <pt x="362" y="756" on="0"/>
        <pt x="351" y="756" on="0"/>
        <pt x="347" y="762" on="1"/>
      </contour>
      <contour>
        <pt x="368" y="645" on="1"/>
        <pt x="366" y="651" on="0"/>
        <pt x="358" y="651" on="0"/>
        <pt x="356" y="645" on="1"/>
        <pt x="219" y="289" on="1"/>
        <pt x="211" y="274" on="0"/>
        <pt x="230" y="274" on="1"/>
        <pt x="494" y="274" on="1"/>
        <pt x="512" y="274" on="0"/>
        <pt x="505" y="289" on="1"/>
      </contour>
      <contour>
        <pt x="528" y="230" on="1"/>
        <pt x="522" y="244" on="0"/>
        <pt x="504" y="244" on="1"/>
        <pt x="220" y="244" on="1"/>
        <pt x="202" y="244" on="0"/>
        <pt x="196" y="230" on="1"/>
        <pt x="125" y="45" on="1"/>
        <pt x="117" y="30" on="0"/>
        <pt x="135" y="30" on="1"/>
        <pt x="195" y="30" on="1"/>
        <pt x="210" y="30" on="0"/>
        <pt x="210" y="15" on="1"/>
        <pt x="210" y="0" on="0"/>
        <pt x="195" y="0" on="1"/>
        <pt x="5" y="0" on="1"/>
        <pt x="-10" y="0" on="0"/>
        <pt x="-10" y="15" on="1"/>
        <pt x="-10" y="30" on="0"/>
        <pt x="5" y="30" on="1"/>
        <pt x="70" y="30" on="1"/>
        <pt x="82" y="30" on="0"/>
        <pt x="90" y="45" on="1"/>
        <pt x="340" y="695" on="1"/>
        <pt x="344" y="710" on="0"/>
        <pt x="380" y="710" on="0"/>
        <pt x="384" y="695" on="1"/>
        <pt x="634" y="45" on="1"/>
        <pt x="641" y="30" on="0"/>
        <pt x="654" y="30" on="1"/>
        <pt x="719" y="30" on="1"/>
        <pt x="734" y="30" on="0"/>
        <pt x="734" y="15" on="1"/>
        <pt x="734" y="0" on="0"/>
        <pt x="719" y="0" on="1"/>
        <pt x="529" y="0" on="1"/>
        <pt x="514" y="0" on="0"/>
        <pt x="514" y="15" on="1"/>
        <pt x="514" y="30" on="0"/>
        <pt x="529" y="30" on="1"/>
        <pt x="589" y="30" on="1"/>
        <pt x="606" y="30" on="0"/>
        <pt x="599" y="45" on="1"/>
      </contour>
    </TTGlyph>
    <TTGlyph name="Aring" xMin="-10" yMin="0" xMax="734" yMax="840">
      <contour>
        <pt x="528" y="230" on="1"/>
        <pt x="522" y="244" on="0"/>
        <pt x="504" y="244" on="1"/>
        <pt x="220" y="244" on="1"/>
        <pt x="202" y="244" on="0"/>
        <pt x="196" y="230" on="1"/>
        <pt x="125" y="45" on="1"/>
        <pt x="117" y="30" on="0"/>
        <pt x="135" y="30" on="1"/>
        <pt x="195" y="30" on="1"/>
        <pt x="210" y="30" on="0"/>
        <pt x="210" y="15" on="1"/>
        <pt x="210" y="0" on="0"/>
        <pt x="195" y="0" on="1"/>
        <pt x="5" y="0" on="1"/>
        <pt x="-10" y="0" on="0"/>
        <pt x="-10" y="15" on="1"/>
        <pt x="-10" y="30" on="0"/>
        <pt x="5" y="30" on="1"/>
        <pt x="70" y="30" on="1"/>
        <pt x="82" y="30" on="0"/>
        <pt x="90" y="45" on="1"/>
        <pt x="336" y="684" on="1"/>
        <pt x="283" y="702" on="0"/>
        <pt x="283" y="760" on="1"/>
        <pt x="283" y="794" on="0"/>
        <pt x="327" y="840" on="0"/>
        <pt x="362" y="840" on="1"/>
        <pt x="397" y="840" on="0"/>
        <pt x="443" y="794" on="0"/>
        <pt x="443" y="764" on="1"/>
        <pt x="443" y="701" on="0"/>
        <pt x="388" y="684" on="1"/>
        <pt x="634" y="45" on="1"/>
        <pt x="641" y="30" on="0"/>
        <pt x="654" y="30" on="1"/>
        <pt x="719" y="30" on="1"/>
        <pt x="734" y="30" on="0"/>
        <pt x="734" y="15" on="1"/>
        <pt x="734" y="0" on="0"/>
        <pt x="719" y="0" on="1"/>
        <pt x="529" y="0" on="1"/>
        <pt x="514" y="0" on="0"/>
        <pt x="514" y="15" on="1"/>
        <pt x="514" y="30" on="0"/>
        <pt x="529" y="30" on="1"/>
        <pt x="589" y="30" on="1"/>
        <pt x="606" y="30" on="0"/>
        <pt x="599" y="45" on="1"/>
      </contour>
      <contour>
        <pt x="368" y="645" on="1"/>
        <pt x="366" y="651" on="0"/>
        <pt x="358" y="651" on="0"/>
        <pt x="356" y="645" on="1"/>
        <pt x="219" y="289" on="1"/>
        <pt x="217" y="285" on="0"/>
        <pt x="217" y="281" on="1"/>
        <pt x="217" y="274" on="0"/>
        <pt x="230" y="274" on="1"/>
        <pt x="494" y="274" on="1"/>
        <pt x="507" y="274" on="0"/>
        <pt x="507" y="282" on="1"/>
        <pt x="507" y="285" on="0"/>
        <pt x="505" y="289" on="1"/>
      </contour>
      <contour>
        <pt x="411" y="760" on="1"/>
        <pt x="411" y="783" on="0"/>
        <pt x="382" y="810" on="0"/>
        <pt x="362" y="810" on="1"/>
        <pt x="342" y="810" on="0"/>
        <pt x="313" y="783" on="0"/>
        <pt x="313" y="760" on="1"/>
        <pt x="313" y="737" on="0"/>
        <pt x="342" y="710" on="0"/>
        <pt x="362" y="710" on="1"/>
        <pt x="382" y="710" on="0"/>
        <pt x="411" y="737" on="0"/>
      </contour>
    </TTGlyph>
    <TTGlyph name="Atilde" xMin="-10" yMin="0" xMax="734" yMax="851">
      <contour>
        <pt x="237" y="761" on="1"/>
        <pt x="237" y="804" on="0"/>
        <pt x="276" y="851" on="0"/>
        <pt x="302" y="851" on="1"/>
        <pt x="348" y="851" on="0"/>
        <pt x="390" y="776" on="0"/>
        <pt x="417" y="776" on="1"/>
        <pt x="457" y="776" on="0"/>
        <pt x="457" y="836" on="1"/>
        <pt x="457" y="851" on="0"/>
        <pt x="487" y="851" on="0"/>
        <pt x="487" y="836" on="1"/>
        <pt x="487" y="792" on="0"/>
        <pt x="448" y="746" on="0"/>
        <pt x="422" y="746" on="1"/>
        <pt x="376" y="746" on="0"/>
        <pt x="334" y="821" on="0"/>
        <pt x="307" y="821" on="1"/>
        <pt x="267" y="821" on="0"/>
        <pt x="267" y="761" on="1"/>
        <pt x="267" y="746" on="0"/>
        <pt x="237" y="746" on="0"/>
      </contour>
      <contour>
        <pt x="368" y="645" on="1"/>
        <pt x="366" y="651" on="0"/>
        <pt x="358" y="651" on="0"/>
        <pt x="356" y="645" on="1"/>
        <pt x="219" y="289" on="1"/>
        <pt x="211" y="274" on="0"/>
        <pt x="230" y="274" on="1"/>
        <pt x="494" y="274" on="1"/>
        <pt x="512" y="274" on="0"/>
        <pt x="505" y="289" on="1"/>
      </contour>
      <contour>
        <pt x="528" y="230" on="1"/>
        <pt x="522" y="244" on="0"/>
        <pt x="504" y="244" on="1"/>
        <pt x="220" y="244" on="1"/>
        <pt x="202" y="244" on="0"/>
        <pt x="196" y="230" on="1"/>
        <pt x="125" y="45" on="1"/>
        <pt x="117" y="30" on="0"/>
        <pt x="135" y="30" on="1"/>
        <pt x="195" y="30" on="1"/>
        <pt x="210" y="30" on="0"/>
        <pt x="210" y="15" on="1"/>
        <pt x="210" y="0" on="0"/>
        <pt x="195" y="0" on="1"/>
        <pt x="5" y="0" on="1"/>
        <pt x="-10" y="0" on="0"/>
        <pt x="-10" y="15" on="1"/>
        <pt x="-10" y="30" on="0"/>
        <pt x="5" y="30" on="1"/>
        <pt x="70" y="30" on="1"/>
        <pt x="82" y="30" on="0"/>
        <pt x="90" y="45" on="1"/>
        <pt x="340" y="695" on="1"/>
        <pt x="344" y="710" on="0"/>
        <pt x="380" y="710" on="0"/>
        <pt x="384" y="695" on="1"/>
        <pt x="634" y="45" on="1"/>
        <pt x="641" y="30" on="0"/>
        <pt x="654" y="30" on="1"/>
        <pt x="719" y="30" on="1"/>
        <pt x="734" y="30" on="0"/>
        <pt x="734" y="15" on="1"/>
        <pt x="734" y="0" on="0"/>
        <pt x="719" y="0" on="1"/>
        <pt x="529" y="0" on="1"/>
        <pt x="514" y="0" on="0"/>
        <pt x="514" y="15" on="1"/>
        <pt x="514" y="30" on="0"/>
        <pt x="529" y="30" on="1"/>
        <pt x="589" y="30" on="1"/>
        <pt x="606" y="30" on="0"/>
        <pt x="599" y="45" on="1"/>
      </contour>
    </TTGlyph>
    <TTGlyph name="B" xMin="46" yMin="0" xMax="596" yMax="700">
      <contour>
        <pt x="451" y="374" on="1"/>
        <pt x="596" y="346" on="0"/>
        <pt x="596" y="182" on="1"/>
        <pt x="596" y="102" on="0"/>
        <pt x="497" y="0" on="0"/>
        <pt x="406" y="0" on="1"/>
        <pt x="61" y="0" on="1"/>
        <pt x="46" y="0" on="0"/>
        <pt x="46" y="15" on="1"/>
        <pt x="46" y="30" on="0"/>
        <pt x="61" y="30" on="1"/>
        <pt x="131" y="30" on="1"/>
        <pt x="146" y="30" on="0"/>
        <pt x="146" y="45" on="1"/>
        <pt x="146" y="655" on="1"/>
        <pt x="146" y="670" on="0"/>
        <pt x="131" y="670" on="1"/>
        <pt x="61" y="670" on="1"/>
        <pt x="46" y="670" on="0"/>
        <pt x="46" y="685" on="1"/>
        <pt x="46" y="700" on="0"/>
        <pt x="61" y="700" on="1"/>
        <pt x="366" y="700" on="1"/>
        <pt x="446" y="700" on="0"/>
        <pt x="496" y="650" on="1"/>
        <pt x="546" y="600" on="0"/>
        <pt x="546" y="525" on="1"/>
        <pt x="546" y="419" on="0"/>
      </contour>
      <contour>
        <pt x="176" y="395" on="1"/>
        <pt x="176" y="380" on="0"/>
        <pt x="191" y="380" on="1"/>
        <pt x="371" y="380" on="1"/>
        <pt x="434" y="380" on="0"/>
        <pt x="516" y="465" on="0"/>
        <pt x="516" y="589" on="0"/>
        <pt x="435" y="670" on="0"/>
        <pt x="366" y="670" on="1"/>
        <pt x="191" y="670" on="1"/>
        <pt x="176" y="670" on="0"/>
        <pt x="176" y="655" on="1"/>
      </contour>
      <contour>
        <pt x="176" y="45" on="1"/>
        <pt x="176" y="30" on="0"/>
        <pt x="191" y="30" on="1"/>
        <pt x="406" y="30" on="1"/>
        <pt x="481" y="30" on="0"/>
        <pt x="566" y="115" on="0"/>
        <pt x="566" y="190" on="1"/>
        <pt x="566" y="265" on="0"/>
        <pt x="481" y="350" on="0"/>
        <pt x="406" y="350" on="1"/>
        <pt x="191" y="350" on="1"/>
        <pt x="176" y="350" on="0"/>
        <pt x="176" y="335" on="1"/>
      </contour>
    </TTGlyph>
    <TTGlyph name="C" xMin="58" yMin="-10" xMax="648" yMax="710">
      <contour>
        <pt x="58" y="350" on="1"/>
        <pt x="58" y="506" on="0"/>
        <pt x="234" y="710" on="0"/>
        <pt x="373" y="710" on="1"/>
        <pt x="494" y="710" on="0"/>
        <pt x="592" y="625" on="1"/>
        <pt x="608" y="612" on="0"/>
        <pt x="608" y="635" on="1"/>
        <pt x="608" y="685" on="1"/>
        <pt x="608" y="700" on="0"/>
        <pt x="623" y="700" on="1"/>
        <pt x="638" y="700" on="0"/>
        <pt x="638" y="685" on="1"/>
        <pt x="638" y="495" on="1"/>
        <pt x="638" y="480" on="0"/>
        <pt x="623" y="480" on="1"/>
        <pt x="608" y="480" on="0"/>
        <pt x="608" y="495" on="1"/>
        <pt x="608" y="565" on="1"/>
        <pt x="581" y="596" on="0"/>
        <pt x="545" y="622" on="1"/>
        <pt x="463" y="680" on="0"/>
        <pt x="373" y="680" on="1"/>
        <pt x="250" y="680" on="0"/>
        <pt x="88" y="491" on="0"/>
        <pt x="88" y="206" on="0"/>
        <pt x="172" y="113" on="1"/>
        <pt x="256" y="20" on="0"/>
        <pt x="536" y="20" on="0"/>
        <pt x="622" y="111" on="1"/>
        <pt x="632" y="121" on="0"/>
        <pt x="648" y="105" on="0"/>
        <pt x="648" y="95" on="0"/>
        <pt x="643" y="90" on="1"/>
        <pt x="541" y="-10" on="0"/>
        <pt x="242" y="-10" on="0"/>
        <pt x="58" y="194" on="0"/>
      </contour>
    </TTGlyph>
    <TTGlyph name="Ccedilla" xMin="59" yMin="-180" xMax="649" yMax="710">
      <contour>
        <pt x="367" y="-150" on="1"/>
        <pt x="437" y="-150" on="0"/>
        <pt x="437" y="-110" on="1"/>
        <pt x="437" y="-93" on="0"/>
        <pt x="412" y="-70" on="0"/>
        <pt x="387" y="-70" on="1"/>
        <pt x="372" y="-70" on="1"/>
        <pt x="357" y="-70" on="0"/>
        <pt x="357" y="-55" on="1"/>
        <pt x="357" y="0" on="1"/>
        <pt x="357" y="15" on="0"/>
        <pt x="387" y="15" on="0"/>
        <pt x="387" y="0" on="1"/>
        <pt x="387" y="-40" on="1"/>
        <pt x="424" y="-40" on="0"/>
        <pt x="467" y="-79" on="0"/>
        <pt x="467" y="-142" on="0"/>
        <pt x="418" y="-180" on="0"/>
        <pt x="367" y="-180" on="1"/>
        <pt x="352" y="-180" on="0"/>
        <pt x="352" y="-150" on="0"/>
      </contour>
      <contour>
        <pt x="59" y="350" on="1"/>
        <pt x="59" y="194" on="0"/>
        <pt x="243" y="-10" on="0"/>
        <pt x="542" y="-10" on="0"/>
        <pt x="644" y="90" on="1"/>
        <pt x="649" y="95" on="0"/>
        <pt x="649" y="105" on="0"/>
        <pt x="633" y="121" on="0"/>
        <pt x="623" y="111" on="1"/>
        <pt x="537" y="20" on="0"/>
        <pt x="257" y="20" on="0"/>
        <pt x="173" y="113" on="1"/>
        <pt x="89" y="206" on="0"/>
        <pt x="89" y="491" on="0"/>
        <pt x="251" y="680" on="0"/>
        <pt x="374" y="680" on="1"/>
        <pt x="464" y="680" on="0"/>
        <pt x="546" y="622" on="1"/>
        <pt x="582" y="596" on="0"/>
        <pt x="609" y="565" on="1"/>
        <pt x="609" y="495" on="1"/>
        <pt x="609" y="480" on="0"/>
        <pt x="624" y="480" on="1"/>
        <pt x="639" y="480" on="0"/>
        <pt x="639" y="495" on="1"/>
        <pt x="639" y="685" on="1"/>
        <pt x="639" y="700" on="0"/>
        <pt x="624" y="700" on="1"/>
        <pt x="609" y="700" on="0"/>
        <pt x="609" y="685" on="1"/>
        <pt x="609" y="635" on="1"/>
        <pt x="609" y="612" on="0"/>
        <pt x="593" y="625" on="1"/>
        <pt x="495" y="710" on="0"/>
        <pt x="374" y="710" on="1"/>
        <pt x="235" y="710" on="0"/>
        <pt x="59" y="506" on="0"/>
      </contour>
    </TTGlyph>
    <TTGlyph name="D" xMin="46" yMin="0" xMax="676" yMax="700">
      <contour>
        <pt x="46" y="0" on="0"/>
        <pt x="46" y="30" on="0"/>
        <pt x="61" y="30" on="1"/>
        <pt x="131" y="30" on="1"/>
        <pt x="146" y="30" on="0"/>
        <pt x="146" y="45" on="1"/>
        <pt x="146" y="655" on="1"/>
        <pt x="146" y="670" on="0"/>
        <pt x="131" y="670" on="1"/>
        <pt x="61" y="670" on="1"/>
        <pt x="46" y="670" on="0"/>
        <pt x="46" y="700" on="0"/>
        <pt x="61" y="700" on="1"/>
        <pt x="341" y="700" on="1"/>
        <pt x="492" y="700" on="0"/>
        <pt x="676" y="500" on="0"/>
        <pt x="676" y="200" on="0"/>
        <pt x="492" y="0" on="0"/>
        <pt x="341" y="0" on="1"/>
        <pt x="61" y="0" on="1"/>
      </contour>
      <contour>
        <pt x="176" y="45" on="1"/>
        <pt x="176" y="30" on="0"/>
        <pt x="191" y="30" on="1"/>
        <pt x="341" y="30" on="1"/>
        <pt x="477" y="30" on="0"/>
        <pt x="646" y="212" on="0"/>
        <pt x="646" y="488" on="0"/>
        <pt x="477" y="670" on="0"/>
        <pt x="341" y="670" on="1"/>
        <pt x="191" y="670" on="1"/>
        <pt x="176" y="670" on="0"/>
        <pt x="176" y="655" on="1"/>
      </contour>
    </TTGlyph>
    <TTGlyph name="E" xMin="46" yMin="0" xMax="561" yMax="700">
      <contour>
        <pt x="46" y="0" on="0"/>
        <pt x="46" y="30" on="0"/>
        <pt x="61" y="30" on="1"/>
        <pt x="131" y="30" on="1"/>
        <pt x="146" y="30" on="0"/>
        <pt x="146" y="45" on="1"/>
        <pt x="146" y="655" on="1"/>
        <pt x="146" y="670" on="0"/>
        <pt x="131" y="670" on="1"/>
        <pt x="61" y="670" on="1"/>
        <pt x="46" y="670" on="0"/>
        <pt x="46" y="700" on="0"/>
        <pt x="61" y="700" on="1"/>
        <pt x="536" y="700" on="1"/>
        <pt x="551" y="700" on="0"/>
        <pt x="551" y="685" on="1"/>
        <pt x="551" y="545" on="1"/>
        <pt x="551" y="530" on="0"/>
        <pt x="521" y="530" on="0"/>
        <pt x="521" y="545" on="1"/>
        <pt x="521" y="655" on="1"/>
        <pt x="521" y="670" on="0"/>
        <pt x="506" y="670" on="1"/>
        <pt x="191" y="670" on="1"/>
        <pt x="176" y="670" on="0"/>
        <pt x="176" y="655" on="1"/>
        <pt x="176" y="385" on="1"/>
        <pt x="176" y="370" on="0"/>
        <pt x="191" y="370" on="1"/>
        <pt x="416" y="370" on="1"/>
        <pt x="431" y="370" on="0"/>
        <pt x="431" y="385" on="1"/>
        <pt x="431" y="435" on="1"/>
        <pt x="431" y="450" on="0"/>
        <pt x="461" y="450" on="0"/>
        <pt x="461" y="435" on="1"/>
        <pt x="461" y="275" on="1"/>
        <pt x="461" y="260" on="0"/>
        <pt x="431" y="260" on="0"/>
        <pt x="431" y="275" on="1"/>
        <pt x="431" y="325" on="1"/>
        <pt x="431" y="340" on="0"/>
        <pt x="416" y="340" on="1"/>
        <pt x="191" y="340" on="1"/>
        <pt x="176" y="340" on="0"/>
        <pt x="176" y="325" on="1"/>
        <pt x="176" y="45" on="1"/>
        <pt x="176" y="30" on="0"/>
        <pt x="191" y="30" on="1"/>
        <pt x="516" y="30" on="1"/>
        <pt x="531" y="30" on="0"/>
        <pt x="531" y="45" on="1"/>
        <pt x="531" y="155" on="1"/>
        <pt x="531" y="170" on="0"/>
        <pt x="561" y="170" on="0"/>
        <pt x="561" y="155" on="1"/>
        <pt x="561" y="15" on="1"/>
        <pt x="561" y="0" on="0"/>
        <pt x="546" y="0" on="1"/>
        <pt x="61" y="0" on="1"/>
      </contour>
    </TTGlyph>
    <TTGlyph name="Eacute" xMin="46" yMin="0" xMax="561" yMax="910">
      <contour>
        <pt x="46" y="0" on="0"/>
        <pt x="46" y="30" on="0"/>
        <pt x="61" y="30" on="1"/>
        <pt x="131" y="30" on="1"/>
        <pt x="146" y="30" on="0"/>
        <pt x="146" y="45" on="1"/>
        <pt x="146" y="655" on="1"/>
        <pt x="146" y="670" on="0"/>
        <pt x="131" y="670" on="1"/>
        <pt x="61" y="670" on="1"/>
        <pt x="46" y="670" on="0"/>
        <pt x="46" y="700" on="0"/>
        <pt x="61" y="700" on="1"/>
        <pt x="536" y="700" on="1"/>
        <pt x="551" y="700" on="0"/>
        <pt x="551" y="685" on="1"/>
        <pt x="551" y="545" on="1"/>
        <pt x="551" y="530" on="0"/>
        <pt x="521" y="530" on="0"/>
        <pt x="521" y="545" on="1"/>
        <pt x="521" y="655" on="1"/>
        <pt x="521" y="670" on="0"/>
        <pt x="506" y="670" on="1"/>
        <pt x="191" y="670" on="1"/>
        <pt x="176" y="670" on="0"/>
        <pt x="176" y="655" on="1"/>
        <pt x="176" y="385" on="1"/>
        <pt x="176" y="370" on="0"/>
        <pt x="191" y="370" on="1"/>
        <pt x="416" y="370" on="1"/>
        <pt x="431" y="370" on="0"/>
        <pt x="431" y="385" on="1"/>
        <pt x="431" y="435" on="1"/>
        <pt x="431" y="450" on="0"/>
        <pt x="461" y="450" on="0"/>
        <pt x="461" y="435" on="1"/>
        <pt x="461" y="275" on="1"/>
        <pt x="461" y="260" on="0"/>
        <pt x="431" y="260" on="0"/>
        <pt x="431" y="275" on="1"/>
        <pt x="431" y="325" on="1"/>
        <pt x="431" y="340" on="0"/>
        <pt x="416" y="340" on="1"/>
        <pt x="191" y="340" on="1"/>
        <pt x="176" y="340" on="0"/>
        <pt x="176" y="325" on="1"/>
        <pt x="176" y="45" on="1"/>
        <pt x="176" y="30" on="0"/>
        <pt x="191" y="30" on="1"/>
        <pt x="516" y="30" on="1"/>
        <pt x="531" y="30" on="0"/>
        <pt x="531" y="45" on="1"/>
        <pt x="531" y="155" on="1"/>
        <pt x="531" y="170" on="0"/>
        <pt x="561" y="170" on="0"/>
        <pt x="561" y="155" on="1"/>
        <pt x="561" y="15" on="1"/>
        <pt x="561" y="0" on="0"/>
        <pt x="546" y="0" on="1"/>
        <pt x="61" y="0" on="1"/>
      </contour>
      <contour>
        <pt x="296" y="774" on="1"/>
        <pt x="385" y="901" on="1"/>
        <pt x="390" y="910" on="0"/>
        <pt x="402" y="910" on="0"/>
        <pt x="406" y="905" on="1"/>
        <pt x="414" y="902" on="0"/>
        <pt x="414" y="890" on="0"/>
        <pt x="410" y="885" on="1"/>
        <pt x="320" y="757" on="1"/>
        <pt x="316" y="751" on="0"/>
        <pt x="304" y="751" on="0"/>
        <pt x="299" y="754" on="1"/>
        <pt x="292" y="759" on="0"/>
        <pt x="292" y="764" on="1"/>
        <pt x="292" y="769" on="0"/>
      </contour>
    </TTGlyph>
    <TTGlyph name="Ecircumflex" xMin="46" yMin="0" xMax="561" yMax="905">
      <contour>
        <pt x="46" y="0" on="0"/>
        <pt x="46" y="30" on="0"/>
        <pt x="61" y="30" on="1"/>
        <pt x="131" y="30" on="1"/>
        <pt x="146" y="30" on="0"/>
        <pt x="146" y="45" on="1"/>
        <pt x="146" y="655" on="1"/>
        <pt x="146" y="670" on="0"/>
        <pt x="131" y="670" on="1"/>
        <pt x="61" y="670" on="1"/>
        <pt x="46" y="670" on="0"/>
        <pt x="46" y="700" on="0"/>
        <pt x="61" y="700" on="1"/>
        <pt x="536" y="700" on="1"/>
        <pt x="551" y="700" on="0"/>
        <pt x="551" y="685" on="1"/>
        <pt x="551" y="545" on="1"/>
        <pt x="551" y="530" on="0"/>
        <pt x="521" y="530" on="0"/>
        <pt x="521" y="545" on="1"/>
        <pt x="521" y="655" on="1"/>
        <pt x="521" y="670" on="0"/>
        <pt x="506" y="670" on="1"/>
        <pt x="191" y="670" on="1"/>
        <pt x="176" y="670" on="0"/>
        <pt x="176" y="655" on="1"/>
        <pt x="176" y="385" on="1"/>
        <pt x="176" y="370" on="0"/>
        <pt x="191" y="370" on="1"/>
        <pt x="416" y="370" on="1"/>
        <pt x="431" y="370" on="0"/>
        <pt x="431" y="385" on="1"/>
        <pt x="431" y="435" on="1"/>
        <pt x="431" y="450" on="0"/>
        <pt x="461" y="450" on="0"/>
        <pt x="461" y="435" on="1"/>
        <pt x="461" y="275" on="1"/>
        <pt x="461" y="260" on="0"/>
        <pt x="431" y="260" on="0"/>
        <pt x="431" y="275" on="1"/>
        <pt x="431" y="325" on="1"/>
        <pt x="431" y="340" on="0"/>
        <pt x="416" y="340" on="1"/>
        <pt x="191" y="340" on="1"/>
        <pt x="176" y="340" on="0"/>
        <pt x="176" y="325" on="1"/>
        <pt x="176" y="45" on="1"/>
        <pt x="176" y="30" on="0"/>
        <pt x="191" y="30" on="1"/>
        <pt x="516" y="30" on="1"/>
        <pt x="531" y="30" on="0"/>
        <pt x="531" y="45" on="1"/>
        <pt x="531" y="155" on="1"/>
        <pt x="531" y="170" on="0"/>
        <pt x="561" y="170" on="0"/>
        <pt x="561" y="155" on="1"/>
        <pt x="561" y="15" on="1"/>
        <pt x="561" y="0" on="0"/>
        <pt x="546" y="0" on="1"/>
        <pt x="61" y="0" on="1"/>
      </contour>
      <contour>
        <pt x="193" y="761" on="0"/>
        <pt x="183" y="771" on="0"/>
        <pt x="183" y="782" on="0"/>
        <pt x="188" y="787" on="1"/>
        <pt x="295" y="896" on="1"/>
        <pt x="304" y="905" on="0"/>
        <pt x="312" y="905" on="1"/>
        <pt x="320" y="905" on="0"/>
        <pt x="328" y="897" on="1"/>
        <pt x="438" y="787" on="1"/>
        <pt x="443" y="782" on="0"/>
        <pt x="443" y="771" on="0"/>
        <pt x="433" y="761" on="0"/>
        <pt x="422" y="761" on="0"/>
        <pt x="417" y="766" on="1"/>
        <pt x="321" y="861" on="1"/>
        <pt x="312" y="870" on="0"/>
        <pt x="303" y="861" on="1"/>
        <pt x="209" y="766" on="1"/>
        <pt x="204" y="761" on="0"/>
      </contour>
    </TTGlyph>
    <TTGlyph name="Edieresis" xMin="46" yMin="0" xMax="561" yMax="850">
      <contour>
        <pt x="46" y="0" on="0"/>
        <pt x="46" y="30" on="0"/>
        <pt x="61" y="30" on="1"/>
        <pt x="131" y="30" on="1"/>
        <pt x="146" y="30" on="0"/>
        <pt x="146" y="45" on="1"/>
        <pt x="146" y="655" on="1"/>
        <pt x="146" y="670" on="0"/>
        <pt x="131" y="670" on="1"/>
        <pt x="61" y="670" on="1"/>
        <pt x="46" y="670" on="0"/>
        <pt x="46" y="700" on="0"/>
        <pt x="61" y="700" on="1"/>
        <pt x="536" y="700" on="1"/>
        <pt x="551" y="700" on="0"/>
        <pt x="551" y="685" on="1"/>
        <pt x="551" y="545" on="1"/>
        <pt x="551" y="530" on="0"/>
        <pt x="521" y="530" on="0"/>
        <pt x="521" y="545" on="1"/>
        <pt x="521" y="655" on="1"/>
        <pt x="521" y="670" on="0"/>
        <pt x="506" y="670" on="1"/>
        <pt x="191" y="670" on="1"/>
        <pt x="176" y="670" on="0"/>
        <pt x="176" y="655" on="1"/>
        <pt x="176" y="385" on="1"/>
        <pt x="176" y="370" on="0"/>
        <pt x="191" y="370" on="1"/>
        <pt x="416" y="370" on="1"/>
        <pt x="431" y="370" on="0"/>
        <pt x="431" y="385" on="1"/>
        <pt x="431" y="435" on="1"/>
        <pt x="431" y="450" on="0"/>
        <pt x="461" y="450" on="0"/>
        <pt x="461" y="435" on="1"/>
        <pt x="461" y="275" on="1"/>
        <pt x="461" y="260" on="0"/>
        <pt x="431" y="260" on="0"/>
        <pt x="431" y="275" on="1"/>
        <pt x="431" y="325" on="1"/>
        <pt x="431" y="340" on="0"/>
        <pt x="416" y="340" on="1"/>
        <pt x="191" y="340" on="1"/>
        <pt x="176" y="340" on="0"/>
        <pt x="176" y="325" on="1"/>
        <pt x="176" y="45" on="1"/>
        <pt x="176" y="30" on="0"/>
        <pt x="191" y="30" on="1"/>
        <pt x="516" y="30" on="1"/>
        <pt x="531" y="30" on="0"/>
        <pt x="531" y="45" on="1"/>
        <pt x="531" y="155" on="1"/>
        <pt x="531" y="170" on="0"/>
        <pt x="561" y="170" on="0"/>
        <pt x="561" y="155" on="1"/>
        <pt x="561" y="15" on="1"/>
        <pt x="561" y="0" on="0"/>
        <pt x="546" y="0" on="1"/>
        <pt x="61" y="0" on="1"/>
      </contour>
      <contour>
        <pt x="203" y="793" on="0"/>
        <pt x="203" y="827" on="0"/>
        <pt x="226" y="850" on="0"/>
        <pt x="260" y="850" on="0"/>
        <pt x="283" y="827" on="0"/>
        <pt x="283" y="793" on="0"/>
        <pt x="260" y="770" on="0"/>
        <pt x="226" y="770" on="0"/>
      </contour>
      <contour>
        <pt x="363" y="793" on="0"/>
        <pt x="363" y="827" on="0"/>
        <pt x="386" y="850" on="0"/>
        <pt x="420" y="850" on="0"/>
        <pt x="443" y="827" on="0"/>
        <pt x="443" y="793" on="0"/>
        <pt x="420" y="770" on="0"/>
        <pt x="386" y="770" on="0"/>
      </contour>
    </TTGlyph>
    <TTGlyph name="Egrave" xMin="46" yMin="0" xMax="561" yMax="920">
      <contour>
        <pt x="46" y="0" on="0"/>
        <pt x="46" y="30" on="0"/>
        <pt x="61" y="30" on="1"/>
        <pt x="131" y="30" on="1"/>
        <pt x="146" y="30" on="0"/>
        <pt x="146" y="45" on="1"/>
        <pt x="146" y="655" on="1"/>
        <pt x="146" y="670" on="0"/>
        <pt x="131" y="670" on="1"/>
        <pt x="61" y="670" on="1"/>
        <pt x="46" y="670" on="0"/>
        <pt x="46" y="700" on="0"/>
        <pt x="61" y="700" on="1"/>
        <pt x="536" y="700" on="1"/>
        <pt x="551" y="700" on="0"/>
        <pt x="551" y="685" on="1"/>
        <pt x="551" y="545" on="1"/>
        <pt x="551" y="530" on="0"/>
        <pt x="521" y="530" on="0"/>
        <pt x="521" y="545" on="1"/>
        <pt x="521" y="655" on="1"/>
        <pt x="521" y="670" on="0"/>
        <pt x="506" y="670" on="1"/>
        <pt x="191" y="670" on="1"/>
        <pt x="176" y="670" on="0"/>
        <pt x="176" y="655" on="1"/>
        <pt x="176" y="385" on="1"/>
        <pt x="176" y="370" on="0"/>
        <pt x="191" y="370" on="1"/>
        <pt x="416" y="370" on="1"/>
        <pt x="431" y="370" on="0"/>
        <pt x="431" y="385" on="1"/>
        <pt x="431" y="435" on="1"/>
        <pt x="431" y="450" on="0"/>
        <pt x="461" y="450" on="0"/>
        <pt x="461" y="435" on="1"/>
        <pt x="461" y="275" on="1"/>
        <pt x="461" y="260" on="0"/>
        <pt x="431" y="260" on="0"/>
        <pt x="431" y="275" on="1"/>
        <pt x="431" y="325" on="1"/>
        <pt x="431" y="340" on="0"/>
        <pt x="416" y="340" on="1"/>
        <pt x="191" y="340" on="1"/>
        <pt x="176" y="340" on="0"/>
        <pt x="176" y="325" on="1"/>
        <pt x="176" y="45" on="1"/>
        <pt x="176" y="30" on="0"/>
        <pt x="191" y="30" on="1"/>
        <pt x="516" y="30" on="1"/>
        <pt x="531" y="30" on="0"/>
        <pt x="531" y="45" on="1"/>
        <pt x="531" y="155" on="1"/>
        <pt x="531" y="170" on="0"/>
        <pt x="561" y="170" on="0"/>
        <pt x="561" y="155" on="1"/>
        <pt x="561" y="15" on="1"/>
        <pt x="561" y="0" on="0"/>
        <pt x="546" y="0" on="1"/>
        <pt x="61" y="0" on="1"/>
      </contour>
      <contour>
        <pt x="236" y="895" on="1"/>
        <pt x="232" y="900" on="0"/>
        <pt x="232" y="912" on="0"/>
        <pt x="240" y="915" on="1"/>
        <pt x="244" y="920" on="0"/>
        <pt x="256" y="920" on="0"/>
        <pt x="261" y="911" on="1"/>
        <pt x="350" y="784" on="1"/>
        <pt x="354" y="779" on="0"/>
        <pt x="354" y="774" on="1"/>
        <pt x="354" y="769" on="0"/>
        <pt x="347" y="764" on="1"/>
        <pt x="342" y="761" on="0"/>
        <pt x="330" y="761" on="0"/>
        <pt x="326" y="767" on="1"/>
      </contour>
    </TTGlyph>
    <TTGlyph name="Eth" xMin="46" yMin="0" xMax="676" yMax="700">
      <contour>
        <pt x="46" y="0" on="0"/>
        <pt x="46" y="30" on="0"/>
        <pt x="61" y="30" on="1"/>
        <pt x="131" y="30" on="1"/>
        <pt x="146" y="30" on="0"/>
        <pt x="146" y="45" on="1"/>
        <pt x="146" y="320" on="1"/>
        <pt x="146" y="335" on="0"/>
        <pt x="131" y="335" on="1"/>
        <pt x="61" y="335" on="1"/>
        <pt x="46" y="335" on="0"/>
        <pt x="46" y="365" on="0"/>
        <pt x="61" y="365" on="1"/>
        <pt x="131" y="365" on="1"/>
        <pt x="146" y="365" on="0"/>
        <pt x="146" y="380" on="1"/>
        <pt x="146" y="655" on="1"/>
        <pt x="146" y="670" on="0"/>
        <pt x="131" y="670" on="1"/>
        <pt x="61" y="670" on="1"/>
        <pt x="46" y="670" on="0"/>
        <pt x="46" y="700" on="0"/>
        <pt x="61" y="700" on="1"/>
        <pt x="341" y="700" on="1"/>
        <pt x="492" y="700" on="0"/>
        <pt x="676" y="500" on="0"/>
        <pt x="676" y="200" on="0"/>
        <pt x="492" y="0" on="0"/>
        <pt x="341" y="0" on="1"/>
        <pt x="61" y="0" on="1"/>
      </contour>
      <contour>
        <pt x="176" y="45" on="1"/>
        <pt x="176" y="30" on="0"/>
        <pt x="191" y="30" on="1"/>
        <pt x="341" y="30" on="1"/>
        <pt x="477" y="30" on="0"/>
        <pt x="646" y="212" on="0"/>
        <pt x="646" y="488" on="0"/>
        <pt x="477" y="670" on="0"/>
        <pt x="341" y="670" on="1"/>
        <pt x="191" y="670" on="1"/>
        <pt x="176" y="670" on="0"/>
        <pt x="176" y="655" on="1"/>
        <pt x="176" y="380" on="1"/>
        <pt x="176" y="365" on="0"/>
        <pt x="191" y="365" on="1"/>
        <pt x="261" y="365" on="1"/>
        <pt x="276" y="365" on="0"/>
        <pt x="276" y="335" on="0"/>
        <pt x="261" y="335" on="1"/>
        <pt x="191" y="335" on="1"/>
        <pt x="176" y="335" on="0"/>
        <pt x="176" y="320" on="1"/>
      </contour>
    </TTGlyph>
    <TTGlyph name="Euro" xMin="36" yMin="-10" xMax="726" yMax="710">
      <contour>
        <pt x="471" y="20" on="1"/>
        <pt x="613" y="20" on="0"/>
        <pt x="700" y="111" on="1"/>
        <pt x="710" y="121" on="0"/>
        <pt x="726" y="105" on="0"/>
        <pt x="726" y="95" on="0"/>
        <pt x="721" y="90" on="1"/>
        <pt x="619" y="-10" on="0"/>
        <pt x="471" y="-10" on="1"/>
        <pt x="344" y="-10" on="0"/>
        <pt x="169" y="138" on="0"/>
        <pt x="145" y="260" on="1"/>
        <pt x="51" y="260" on="1"/>
        <pt x="36" y="260" on="0"/>
        <pt x="36" y="290" on="0"/>
        <pt x="51" y="290" on="1"/>
        <pt x="140" y="290" on="1"/>
        <pt x="136" y="315" on="0"/>
        <pt x="136" y="383" on="0"/>
        <pt x="140" y="410" on="1"/>
        <pt x="71" y="410" on="1"/>
        <pt x="56" y="410" on="0"/>
        <pt x="56" y="440" on="0"/>
        <pt x="71" y="440" on="1"/>
        <pt x="145" y="440" on="1"/>
        <pt x="169" y="560" on="0"/>
        <pt x="335" y="710" on="0"/>
        <pt x="571" y="710" on="0"/>
        <pt x="670" y="625" on="1"/>
        <pt x="686" y="611" on="0"/>
        <pt x="686" y="635" on="1"/>
        <pt x="686" y="685" on="1"/>
        <pt x="686" y="700" on="0"/>
        <pt x="716" y="700" on="0"/>
        <pt x="716" y="685" on="1"/>
        <pt x="716" y="495" on="1"/>
        <pt x="716" y="480" on="0"/>
        <pt x="686" y="480" on="0"/>
        <pt x="686" y="495" on="1"/>
        <pt x="686" y="565" on="1"/>
        <pt x="659" y="596" on="0"/>
        <pt x="623" y="622" on="1"/>
        <pt x="541" y="680" on="0"/>
        <pt x="348" y="680" on="0"/>
        <pt x="199" y="548" on="0"/>
        <pt x="175" y="440" on="1"/>
        <pt x="461" y="440" on="1"/>
        <pt x="476" y="440" on="0"/>
        <pt x="476" y="410" on="0"/>
        <pt x="461" y="410" on="1"/>
        <pt x="170" y="410" on="1"/>
        <pt x="166" y="383" on="0"/>
        <pt x="166" y="315" on="0"/>
        <pt x="170" y="290" on="1"/>
        <pt x="441" y="290" on="1"/>
        <pt x="456" y="290" on="0"/>
        <pt x="456" y="260" on="0"/>
        <pt x="441" y="260" on="1"/>
        <pt x="175" y="260" on="1"/>
        <pt x="199" y="151" on="0"/>
        <pt x="357" y="20" on="0"/>
      </contour>
    </TTGlyph>
    <TTGlyph name="F" xMin="46" yMin="0" xMax="551" yMax="700">
      <contour>
        <pt x="61" y="30" on="1"/>
        <pt x="131" y="30" on="1"/>
        <pt x="146" y="30" on="0"/>
        <pt x="146" y="45" on="1"/>
        <pt x="146" y="655" on="1"/>
        <pt x="146" y="670" on="0"/>
        <pt x="131" y="670" on="1"/>
        <pt x="61" y="670" on="1"/>
        <pt x="46" y="670" on="0"/>
        <pt x="46" y="700" on="0"/>
        <pt x="61" y="700" on="1"/>
        <pt x="536" y="700" on="1"/>
        <pt x="551" y="700" on="0"/>
        <pt x="551" y="685" on="1"/>
        <pt x="551" y="545" on="1"/>
        <pt x="551" y="530" on="0"/>
        <pt x="521" y="530" on="0"/>
        <pt x="521" y="545" on="1"/>
        <pt x="521" y="655" on="1"/>
        <pt x="521" y="670" on="0"/>
        <pt x="506" y="670" on="1"/>
        <pt x="191" y="670" on="1"/>
        <pt x="176" y="670" on="0"/>
        <pt x="176" y="655" on="1"/>
        <pt x="176" y="385" on="1"/>
        <pt x="176" y="370" on="0"/>
        <pt x="191" y="370" on="1"/>
        <pt x="426" y="370" on="1"/>
        <pt x="441" y="370" on="0"/>
        <pt x="441" y="385" on="1"/>
        <pt x="441" y="435" on="1"/>
        <pt x="441" y="450" on="0"/>
        <pt x="471" y="450" on="0"/>
        <pt x="471" y="435" on="1"/>
        <pt x="471" y="275" on="1"/>
        <pt x="471" y="260" on="0"/>
        <pt x="441" y="260" on="0"/>
        <pt x="441" y="275" on="1"/>
        <pt x="441" y="325" on="1"/>
        <pt x="441" y="340" on="0"/>
        <pt x="426" y="340" on="1"/>
        <pt x="191" y="340" on="1"/>
        <pt x="176" y="340" on="0"/>
        <pt x="176" y="325" on="1"/>
        <pt x="176" y="45" on="1"/>
        <pt x="176" y="30" on="0"/>
        <pt x="191" y="30" on="1"/>
        <pt x="271" y="30" on="1"/>
        <pt x="286" y="30" on="0"/>
        <pt x="286" y="0" on="0"/>
        <pt x="271" y="0" on="1"/>
        <pt x="61" y="0" on="1"/>
        <pt x="46" y="0" on="0"/>
        <pt x="46" y="30" on="0"/>
      </contour>
    </TTGlyph>
    <TTGlyph name="G" xMin="58" yMin="-10" xMax="738" yMax="710">
      <contour>
        <pt x="88" y="207" on="0"/>
        <pt x="253" y="20" on="0"/>
        <pt x="505" y="20" on="0"/>
        <pt x="608" y="135" on="1"/>
        <pt x="608" y="325" on="1"/>
        <pt x="608" y="340" on="0"/>
        <pt x="593" y="340" on="1"/>
        <pt x="533" y="340" on="1"/>
        <pt x="518" y="340" on="0"/>
        <pt x="518" y="370" on="0"/>
        <pt x="533" y="370" on="1"/>
        <pt x="723" y="370" on="1"/>
        <pt x="738" y="370" on="0"/>
        <pt x="738" y="340" on="0"/>
        <pt x="723" y="340" on="1"/>
        <pt x="653" y="340" on="1"/>
        <pt x="638" y="340" on="0"/>
        <pt x="638" y="325" on="1"/>
        <pt x="638" y="15" on="1"/>
        <pt x="638" y="0" on="0"/>
        <pt x="608" y="0" on="0"/>
        <pt x="608" y="15" on="1"/>
        <pt x="608" y="65" on="1"/>
        <pt x="608" y="89" on="0"/>
        <pt x="592" y="75" on="1"/>
        <pt x="493" y="-10" on="0"/>
        <pt x="383" y="-10" on="1"/>
        <pt x="238" y="-10" on="0"/>
        <pt x="58" y="194" on="0"/>
        <pt x="58" y="505" on="0"/>
        <pt x="235" y="710" on="0"/>
        <pt x="373" y="710" on="1"/>
        <pt x="493" y="710" on="0"/>
        <pt x="592" y="625" on="1"/>
        <pt x="608" y="611" on="0"/>
        <pt x="608" y="635" on="1"/>
        <pt x="608" y="685" on="1"/>
        <pt x="608" y="700" on="0"/>
        <pt x="638" y="700" on="0"/>
        <pt x="638" y="685" on="1"/>
        <pt x="638" y="495" on="1"/>
        <pt x="638" y="480" on="0"/>
        <pt x="608" y="480" on="0"/>
        <pt x="608" y="495" on="1"/>
        <pt x="608" y="565" on="1"/>
        <pt x="581" y="596" on="0"/>
        <pt x="545" y="622" on="1"/>
        <pt x="463" y="680" on="0"/>
        <pt x="373" y="680" on="1"/>
        <pt x="250" y="680" on="0"/>
        <pt x="88" y="492" on="0"/>
      </contour>
    </TTGlyph>
    <TTGlyph name="H" xMin="46" yMin="0" xMax="736" yMax="700">
      <contour>
        <pt x="606" y="655" on="1"/>
        <pt x="606" y="670" on="0"/>
        <pt x="591" y="670" on="1"/>
        <pt x="531" y="670" on="1"/>
        <pt x="516" y="670" on="0"/>
        <pt x="516" y="685" on="1"/>
        <pt x="516" y="700" on="0"/>
        <pt x="531" y="700" on="1"/>
        <pt x="721" y="700" on="1"/>
        <pt x="736" y="700" on="0"/>
        <pt x="736" y="685" on="1"/>
        <pt x="736" y="670" on="0"/>
        <pt x="721" y="670" on="1"/>
        <pt x="651" y="670" on="1"/>
        <pt x="636" y="670" on="0"/>
        <pt x="636" y="655" on="1"/>
        <pt x="636" y="45" on="1"/>
        <pt x="636" y="30" on="0"/>
        <pt x="651" y="30" on="1"/>
        <pt x="721" y="30" on="1"/>
        <pt x="736" y="30" on="0"/>
        <pt x="736" y="15" on="1"/>
        <pt x="736" y="0" on="0"/>
        <pt x="721" y="0" on="1"/>
        <pt x="531" y="0" on="1"/>
        <pt x="516" y="0" on="0"/>
        <pt x="516" y="15" on="1"/>
        <pt x="516" y="30" on="0"/>
        <pt x="531" y="30" on="1"/>
        <pt x="591" y="30" on="1"/>
        <pt x="606" y="30" on="0"/>
        <pt x="606" y="45" on="1"/>
        <pt x="606" y="325" on="1"/>
        <pt x="606" y="340" on="0"/>
        <pt x="591" y="340" on="1"/>
        <pt x="191" y="340" on="1"/>
        <pt x="176" y="340" on="0"/>
        <pt x="176" y="325" on="1"/>
        <pt x="176" y="45" on="1"/>
        <pt x="176" y="30" on="0"/>
        <pt x="191" y="30" on="1"/>
        <pt x="251" y="30" on="1"/>
        <pt x="266" y="30" on="0"/>
        <pt x="266" y="15" on="1"/>
        <pt x="266" y="0" on="0"/>
        <pt x="251" y="0" on="1"/>
        <pt x="61" y="0" on="1"/>
        <pt x="46" y="0" on="0"/>
        <pt x="46" y="15" on="1"/>
        <pt x="46" y="30" on="0"/>
        <pt x="61" y="30" on="1"/>
        <pt x="131" y="30" on="1"/>
        <pt x="146" y="30" on="0"/>
        <pt x="146" y="45" on="1"/>
        <pt x="146" y="655" on="1"/>
        <pt x="146" y="670" on="0"/>
        <pt x="131" y="670" on="1"/>
        <pt x="61" y="670" on="1"/>
        <pt x="46" y="670" on="0"/>
        <pt x="46" y="685" on="1"/>
        <pt x="46" y="700" on="0"/>
        <pt x="61" y="700" on="1"/>
        <pt x="251" y="700" on="1"/>
        <pt x="266" y="700" on="0"/>
        <pt x="266" y="685" on="1"/>
        <pt x="266" y="670" on="0"/>
        <pt x="251" y="670" on="1"/>
        <pt x="191" y="670" on="1"/>
        <pt x="176" y="670" on="0"/>
        <pt x="176" y="655" on="1"/>
        <pt x="176" y="385" on="1"/>
        <pt x="176" y="370" on="0"/>
        <pt x="191" y="370" on="1"/>
        <pt x="591" y="370" on="1"/>
        <pt x="606" y="370" on="0"/>
        <pt x="606" y="385" on="1"/>
      </contour>
    </TTGlyph>
    <TTGlyph name="I" xMin="46" yMin="0" xMax="276" yMax="700">
      <contour>
        <pt x="46" y="0" on="0"/>
        <pt x="46" y="30" on="0"/>
        <pt x="61" y="30" on="1"/>
        <pt x="131" y="30" on="1"/>
        <pt x="146" y="30" on="0"/>
        <pt x="146" y="45" on="1"/>
        <pt x="146" y="655" on="1"/>
        <pt x="146" y="670" on="0"/>
        <pt x="131" y="670" on="1"/>
        <pt x="61" y="670" on="1"/>
        <pt x="46" y="670" on="0"/>
        <pt x="46" y="700" on="0"/>
        <pt x="61" y="700" on="1"/>
        <pt x="261" y="700" on="1"/>
        <pt x="276" y="700" on="0"/>
        <pt x="276" y="670" on="0"/>
        <pt x="261" y="670" on="1"/>
        <pt x="191" y="670" on="1"/>
        <pt x="176" y="670" on="0"/>
        <pt x="176" y="655" on="1"/>
        <pt x="176" y="45" on="1"/>
        <pt x="176" y="30" on="0"/>
        <pt x="191" y="30" on="1"/>
        <pt x="261" y="30" on="1"/>
        <pt x="276" y="30" on="0"/>
        <pt x="276" y="0" on="0"/>
        <pt x="261" y="0" on="1"/>
        <pt x="61" y="0" on="1"/>
      </contour>
    </TTGlyph>
    <TTGlyph name="Iacute" xMin="46" yMin="0" xMax="276" yMax="910">
      <contour>
        <pt x="46" y="0" on="0"/>
        <pt x="46" y="30" on="0"/>
        <pt x="61" y="30" on="1"/>
        <pt x="131" y="30" on="1"/>
        <pt x="146" y="30" on="0"/>
        <pt x="146" y="45" on="1"/>
        <pt x="146" y="655" on="1"/>
        <pt x="146" y="670" on="0"/>
        <pt x="131" y="670" on="1"/>
        <pt x="61" y="670" on="1"/>
        <pt x="46" y="670" on="0"/>
        <pt x="46" y="700" on="0"/>
        <pt x="61" y="700" on="1"/>
        <pt x="261" y="700" on="1"/>
        <pt x="276" y="700" on="0"/>
        <pt x="276" y="670" on="0"/>
        <pt x="261" y="670" on="1"/>
        <pt x="191" y="670" on="1"/>
        <pt x="176" y="670" on="0"/>
        <pt x="176" y="655" on="1"/>
        <pt x="176" y="45" on="1"/>
        <pt x="176" y="30" on="0"/>
        <pt x="191" y="30" on="1"/>
        <pt x="261" y="30" on="1"/>
        <pt x="276" y="30" on="0"/>
        <pt x="276" y="0" on="0"/>
        <pt x="261" y="0" on="1"/>
        <pt x="61" y="0" on="1"/>
      </contour>
      <contour>
        <pt x="144" y="774" on="1"/>
        <pt x="233" y="901" on="1"/>
        <pt x="238" y="910" on="0"/>
        <pt x="250" y="910" on="0"/>
        <pt x="254" y="905" on="1"/>
        <pt x="262" y="902" on="0"/>
        <pt x="262" y="890" on="0"/>
        <pt x="258" y="885" on="1"/>
        <pt x="168" y="757" on="1"/>
        <pt x="164" y="751" on="0"/>
        <pt x="152" y="751" on="0"/>
        <pt x="147" y="754" on="1"/>
        <pt x="140" y="759" on="0"/>
        <pt x="140" y="764" on="1"/>
        <pt x="140" y="769" on="0"/>
      </contour>
    </TTGlyph>
    <TTGlyph name="Icircumflex" xMin="31" yMin="0" xMax="291" yMax="905">
      <contour>
        <pt x="57" y="766" on="1"/>
        <pt x="46" y="756" on="0"/>
        <pt x="31" y="771" on="0"/>
        <pt x="31" y="782" on="0"/>
        <pt x="36" y="787" on="1"/>
        <pt x="143" y="896" on="1"/>
        <pt x="152" y="905" on="0"/>
        <pt x="160" y="905" on="1"/>
        <pt x="168" y="905" on="0"/>
        <pt x="176" y="897" on="1"/>
        <pt x="286" y="787" on="1"/>
        <pt x="291" y="782" on="0"/>
        <pt x="291" y="771" on="0"/>
        <pt x="276" y="756" on="0"/>
        <pt x="265" y="766" on="1"/>
        <pt x="169" y="861" on="1"/>
        <pt x="160" y="870" on="0"/>
        <pt x="151" y="861" on="1"/>
      </contour>
      <contour>
        <pt x="46" y="0" on="0"/>
        <pt x="46" y="30" on="0"/>
        <pt x="61" y="30" on="1"/>
        <pt x="131" y="30" on="1"/>
        <pt x="146" y="30" on="0"/>
        <pt x="146" y="45" on="1"/>
        <pt x="146" y="655" on="1"/>
        <pt x="146" y="670" on="0"/>
        <pt x="131" y="670" on="1"/>
        <pt x="61" y="670" on="1"/>
        <pt x="46" y="670" on="0"/>
        <pt x="46" y="700" on="0"/>
        <pt x="61" y="700" on="1"/>
        <pt x="261" y="700" on="1"/>
        <pt x="276" y="700" on="0"/>
        <pt x="276" y="670" on="0"/>
        <pt x="261" y="670" on="1"/>
        <pt x="191" y="670" on="1"/>
        <pt x="176" y="670" on="0"/>
        <pt x="176" y="655" on="1"/>
        <pt x="176" y="45" on="1"/>
        <pt x="176" y="30" on="0"/>
        <pt x="191" y="30" on="1"/>
        <pt x="261" y="30" on="1"/>
        <pt x="276" y="30" on="0"/>
        <pt x="276" y="0" on="0"/>
        <pt x="261" y="0" on="1"/>
        <pt x="61" y="0" on="1"/>
      </contour>
    </TTGlyph>
    <TTGlyph name="Idieresis" xMin="41" yMin="0" xMax="281" yMax="850">
      <contour>
        <pt x="41" y="793" on="0"/>
        <pt x="41" y="827" on="0"/>
        <pt x="64" y="850" on="0"/>
        <pt x="98" y="850" on="0"/>
        <pt x="121" y="827" on="0"/>
        <pt x="121" y="793" on="0"/>
        <pt x="98" y="770" on="0"/>
        <pt x="64" y="770" on="0"/>
      </contour>
      <contour>
        <pt x="46" y="0" on="0"/>
        <pt x="46" y="30" on="0"/>
        <pt x="61" y="30" on="1"/>
        <pt x="131" y="30" on="1"/>
        <pt x="146" y="30" on="0"/>
        <pt x="146" y="45" on="1"/>
        <pt x="146" y="655" on="1"/>
        <pt x="146" y="670" on="0"/>
        <pt x="131" y="670" on="1"/>
        <pt x="61" y="670" on="1"/>
        <pt x="46" y="670" on="0"/>
        <pt x="46" y="700" on="0"/>
        <pt x="61" y="700" on="1"/>
        <pt x="261" y="700" on="1"/>
        <pt x="276" y="700" on="0"/>
        <pt x="276" y="670" on="0"/>
        <pt x="261" y="670" on="1"/>
        <pt x="191" y="670" on="1"/>
        <pt x="176" y="670" on="0"/>
        <pt x="176" y="655" on="1"/>
        <pt x="176" y="45" on="1"/>
        <pt x="176" y="30" on="0"/>
        <pt x="191" y="30" on="1"/>
        <pt x="261" y="30" on="1"/>
        <pt x="276" y="30" on="0"/>
        <pt x="276" y="0" on="0"/>
        <pt x="261" y="0" on="1"/>
        <pt x="61" y="0" on="1"/>
      </contour>
      <contour>
        <pt x="201" y="793" on="0"/>
        <pt x="201" y="827" on="0"/>
        <pt x="224" y="850" on="0"/>
        <pt x="258" y="850" on="0"/>
        <pt x="281" y="827" on="0"/>
        <pt x="281" y="793" on="0"/>
        <pt x="258" y="770" on="0"/>
        <pt x="224" y="770" on="0"/>
      </contour>
    </TTGlyph>
    <TTGlyph name="Igrave" xMin="46" yMin="0" xMax="276" yMax="910">
      <contour>
        <pt x="46" y="0" on="0"/>
        <pt x="46" y="30" on="0"/>
        <pt x="61" y="30" on="1"/>
        <pt x="131" y="30" on="1"/>
        <pt x="146" y="30" on="0"/>
        <pt x="146" y="45" on="1"/>
        <pt x="146" y="655" on="1"/>
        <pt x="146" y="670" on="0"/>
        <pt x="131" y="670" on="1"/>
        <pt x="61" y="670" on="1"/>
        <pt x="46" y="670" on="0"/>
        <pt x="46" y="700" on="0"/>
        <pt x="61" y="700" on="1"/>
        <pt x="261" y="700" on="1"/>
        <pt x="276" y="700" on="0"/>
        <pt x="276" y="670" on="0"/>
        <pt x="261" y="670" on="1"/>
        <pt x="191" y="670" on="1"/>
        <pt x="176" y="670" on="0"/>
        <pt x="176" y="655" on="1"/>
        <pt x="176" y="45" on="1"/>
        <pt x="176" y="30" on="0"/>
        <pt x="191" y="30" on="1"/>
        <pt x="261" y="30" on="1"/>
        <pt x="276" y="30" on="0"/>
        <pt x="276" y="0" on="0"/>
        <pt x="261" y="0" on="1"/>
        <pt x="61" y="0" on="1"/>
      </contour>
      <contour>
        <pt x="54" y="885" on="1"/>
        <pt x="50" y="890" on="0"/>
        <pt x="50" y="902" on="0"/>
        <pt x="58" y="905" on="1"/>
        <pt x="62" y="910" on="0"/>
        <pt x="74" y="910" on="0"/>
        <pt x="79" y="901" on="1"/>
        <pt x="168" y="774" on="1"/>
        <pt x="172" y="769" on="0"/>
        <pt x="172" y="764" on="1"/>
        <pt x="172" y="759" on="0"/>
        <pt x="165" y="754" on="1"/>
        <pt x="160" y="751" on="0"/>
        <pt x="148" y="751" on="0"/>
        <pt x="144" y="757" on="1"/>
      </contour>
    </TTGlyph>
    <TTGlyph name="J" xMin="17" yMin="-10" xMax="474" yMax="700">
      <contour>
        <pt x="77" y="62" on="0"/>
        <pt x="145" y="20" on="0"/>
        <pt x="260" y="20" on="0"/>
        <pt x="344" y="106" on="0"/>
        <pt x="344" y="185" on="1"/>
        <pt x="344" y="655" on="1"/>
        <pt x="344" y="670" on="0"/>
        <pt x="329" y="670" on="1"/>
        <pt x="259" y="670" on="1"/>
        <pt x="244" y="670" on="0"/>
        <pt x="244" y="685" on="1"/>
        <pt x="244" y="700" on="0"/>
        <pt x="259" y="700" on="1"/>
        <pt x="459" y="700" on="1"/>
        <pt x="474" y="700" on="0"/>
        <pt x="474" y="685" on="1"/>
        <pt x="474" y="670" on="0"/>
        <pt x="459" y="670" on="1"/>
        <pt x="389" y="670" on="1"/>
        <pt x="374" y="670" on="0"/>
        <pt x="374" y="655" on="1"/>
        <pt x="374" y="185" on="1"/>
        <pt x="374" y="92" on="0"/>
        <pt x="275" y="-10" on="0"/>
        <pt x="194" y="-10" on="1"/>
        <pt x="137" y="-10" on="0"/>
        <pt x="46" y="44" on="0"/>
        <pt x="20" y="86" on="1"/>
        <pt x="17" y="90" on="0"/>
        <pt x="17" y="100" on="0"/>
        <pt x="28" y="106" on="1"/>
        <pt x="38" y="112" on="0"/>
        <pt x="48" y="99" on="1"/>
      </contour>
    </TTGlyph>
    <TTGlyph name="K" xMin="46" yMin="0" xMax="696" yMax="700">
      <contour>
        <pt x="61" y="30" on="1"/>
        <pt x="131" y="30" on="1"/>
        <pt x="146" y="30" on="0"/>
        <pt x="146" y="45" on="1"/>
        <pt x="146" y="655" on="1"/>
        <pt x="146" y="670" on="0"/>
        <pt x="131" y="670" on="1"/>
        <pt x="61" y="670" on="1"/>
        <pt x="46" y="670" on="0"/>
        <pt x="46" y="700" on="0"/>
        <pt x="61" y="700" on="1"/>
        <pt x="251" y="700" on="1"/>
        <pt x="266" y="700" on="0"/>
        <pt x="266" y="670" on="0"/>
        <pt x="251" y="670" on="1"/>
        <pt x="191" y="670" on="1"/>
        <pt x="176" y="670" on="0"/>
        <pt x="176" y="655" on="1"/>
        <pt x="176" y="285" on="1"/>
        <pt x="516" y="655" on="1"/>
        <pt x="522" y="660" on="0"/>
        <pt x="519" y="670" on="0"/>
        <pt x="511" y="670" on="1"/>
        <pt x="446" y="670" on="1"/>
        <pt x="431" y="670" on="0"/>
        <pt x="431" y="700" on="0"/>
        <pt x="446" y="700" on="1"/>
        <pt x="651" y="700" on="1"/>
        <pt x="666" y="700" on="0"/>
        <pt x="666" y="670" on="0"/>
        <pt x="651" y="670" on="1"/>
        <pt x="587" y="670" on="1"/>
        <pt x="576" y="670" on="0"/>
        <pt x="561" y="655" on="1"/>
        <pt x="330" y="404" on="1"/>
        <pt x="591" y="45" on="1"/>
        <pt x="604" y="30" on="0"/>
        <pt x="616" y="30" on="1"/>
        <pt x="681" y="30" on="1"/>
        <pt x="696" y="30" on="0"/>
        <pt x="696" y="0" on="0"/>
        <pt x="681" y="0" on="1"/>
        <pt x="481" y="0" on="1"/>
        <pt x="466" y="0" on="0"/>
        <pt x="466" y="30" on="0"/>
        <pt x="481" y="30" on="1"/>
        <pt x="546" y="30" on="1"/>
        <pt x="564" y="30" on="0"/>
        <pt x="551" y="45" on="1"/>
        <pt x="308" y="380" on="1"/>
        <pt x="176" y="236" on="1"/>
        <pt x="176" y="45" on="1"/>
        <pt x="176" y="30" on="0"/>
        <pt x="191" y="30" on="1"/>
        <pt x="251" y="30" on="1"/>
        <pt x="266" y="30" on="0"/>
        <pt x="266" y="0" on="0"/>
        <pt x="251" y="0" on="1"/>
        <pt x="61" y="0" on="1"/>
        <pt x="46" y="0" on="0"/>
        <pt x="46" y="30" on="0"/>
      </contour>
    </TTGlyph>
    <TTGlyph name="L" xMin="46" yMin="0" xMax="556" yMax="700">
      <contour>
        <pt x="46" y="0" on="0"/>
        <pt x="46" y="30" on="0"/>
        <pt x="61" y="30" on="1"/>
        <pt x="131" y="30" on="1"/>
        <pt x="146" y="30" on="0"/>
        <pt x="146" y="45" on="1"/>
        <pt x="146" y="655" on="1"/>
        <pt x="146" y="670" on="0"/>
        <pt x="131" y="670" on="1"/>
        <pt x="61" y="670" on="1"/>
        <pt x="46" y="670" on="0"/>
        <pt x="46" y="700" on="0"/>
        <pt x="61" y="700" on="1"/>
        <pt x="281" y="700" on="1"/>
        <pt x="296" y="700" on="0"/>
        <pt x="296" y="670" on="0"/>
        <pt x="281" y="670" on="1"/>
        <pt x="191" y="670" on="1"/>
        <pt x="176" y="670" on="0"/>
        <pt x="176" y="655" on="1"/>
        <pt x="176" y="45" on="1"/>
        <pt x="176" y="30" on="0"/>
        <pt x="191" y="30" on="1"/>
        <pt x="511" y="30" on="1"/>
        <pt x="526" y="30" on="0"/>
        <pt x="526" y="45" on="1"/>
        <pt x="526" y="155" on="1"/>
        <pt x="526" y="170" on="0"/>
        <pt x="556" y="170" on="0"/>
        <pt x="556" y="155" on="1"/>
        <pt x="556" y="15" on="1"/>
        <pt x="556" y="0" on="0"/>
        <pt x="541" y="0" on="1"/>
        <pt x="61" y="0" on="1"/>
      </contour>
    </TTGlyph>
    <TTGlyph name="M" xMin="46" yMin="0" xMax="926" yMax="700">
      <contour>
        <pt x="61" y="30" on="1"/>
        <pt x="131" y="30" on="1"/>
        <pt x="146" y="30" on="0"/>
        <pt x="146" y="45" on="1"/>
        <pt x="146" y="655" on="1"/>
        <pt x="146" y="670" on="0"/>
        <pt x="131" y="670" on="1"/>
        <pt x="61" y="670" on="1"/>
        <pt x="46" y="670" on="0"/>
        <pt x="46" y="700" on="0"/>
        <pt x="61" y="700" on="1"/>
        <pt x="171" y="700" on="1"/>
        <pt x="189" y="700" on="0"/>
        <pt x="196" y="685" on="1"/>
        <pt x="476" y="65" on="1"/>
        <pt x="486" y="45" on="0"/>
        <pt x="496" y="65" on="1"/>
        <pt x="776" y="685" on="1"/>
        <pt x="783" y="700" on="0"/>
        <pt x="801" y="700" on="1"/>
        <pt x="911" y="700" on="1"/>
        <pt x="926" y="700" on="0"/>
        <pt x="926" y="670" on="0"/>
        <pt x="911" y="670" on="1"/>
        <pt x="841" y="670" on="1"/>
        <pt x="826" y="670" on="0"/>
        <pt x="826" y="655" on="1"/>
        <pt x="826" y="45" on="1"/>
        <pt x="826" y="30" on="0"/>
        <pt x="841" y="30" on="1"/>
        <pt x="911" y="30" on="1"/>
        <pt x="926" y="30" on="0"/>
        <pt x="926" y="0" on="0"/>
        <pt x="911" y="0" on="1"/>
        <pt x="721" y="0" on="1"/>
        <pt x="706" y="0" on="0"/>
        <pt x="706" y="30" on="0"/>
        <pt x="721" y="30" on="1"/>
        <pt x="781" y="30" on="1"/>
        <pt x="796" y="30" on="0"/>
        <pt x="796" y="45" on="1"/>
        <pt x="796" y="630" on="1"/>
        <pt x="796" y="640" on="0"/>
        <pt x="792" y="638" on="1"/>
        <pt x="790" y="638" on="0"/>
        <pt x="788" y="635" on="1"/>
        <pt x="508" y="15" on="1"/>
        <pt x="500" y="0" on="0"/>
        <pt x="472" y="0" on="0"/>
        <pt x="464" y="15" on="1"/>
        <pt x="184" y="635" on="1"/>
        <pt x="180" y="641" on="0"/>
        <pt x="176" y="635" on="0"/>
        <pt x="176" y="630" on="1"/>
        <pt x="176" y="45" on="1"/>
        <pt x="176" y="30" on="0"/>
        <pt x="191" y="30" on="1"/>
        <pt x="251" y="30" on="1"/>
        <pt x="266" y="30" on="0"/>
        <pt x="266" y="0" on="0"/>
        <pt x="251" y="0" on="1"/>
        <pt x="61" y="0" on="1"/>
        <pt x="46" y="0" on="0"/>
        <pt x="46" y="30" on="0"/>
      </contour>
    </TTGlyph>
    <TTGlyph name="N" xMin="46" yMin="0" xMax="746" yMax="700">
      <contour>
        <pt x="61" y="30" on="1"/>
        <pt x="131" y="30" on="1"/>
        <pt x="146" y="30" on="0"/>
        <pt x="146" y="45" on="1"/>
        <pt x="146" y="655" on="1"/>
        <pt x="146" y="670" on="0"/>
        <pt x="131" y="670" on="1"/>
        <pt x="61" y="670" on="1"/>
        <pt x="46" y="670" on="0"/>
        <pt x="46" y="700" on="0"/>
        <pt x="61" y="700" on="1"/>
        <pt x="171" y="700" on="1"/>
        <pt x="187" y="700" on="0"/>
        <pt x="196" y="685" on="1"/>
        <pt x="606" y="60" on="1"/>
        <pt x="608" y="56" on="0"/>
        <pt x="616" y="57" on="0"/>
        <pt x="616" y="65" on="1"/>
        <pt x="616" y="655" on="1"/>
        <pt x="616" y="670" on="0"/>
        <pt x="601" y="670" on="1"/>
        <pt x="541" y="670" on="1"/>
        <pt x="526" y="670" on="0"/>
        <pt x="526" y="700" on="0"/>
        <pt x="541" y="700" on="1"/>
        <pt x="731" y="700" on="1"/>
        <pt x="746" y="700" on="0"/>
        <pt x="746" y="670" on="0"/>
        <pt x="731" y="670" on="1"/>
        <pt x="661" y="670" on="1"/>
        <pt x="646" y="670" on="0"/>
        <pt x="646" y="655" on="1"/>
        <pt x="646" y="45" on="1"/>
        <pt x="646" y="30" on="0"/>
        <pt x="661" y="30" on="1"/>
        <pt x="731" y="30" on="1"/>
        <pt x="746" y="30" on="0"/>
        <pt x="746" y="0" on="0"/>
        <pt x="731" y="0" on="1"/>
        <pt x="621" y="0" on="1"/>
        <pt x="605" y="0" on="0"/>
        <pt x="596" y="15" on="1"/>
        <pt x="186" y="640" on="1"/>
        <pt x="184" y="644" on="0"/>
        <pt x="176" y="643" on="0"/>
        <pt x="176" y="635" on="1"/>
        <pt x="176" y="45" on="1"/>
        <pt x="176" y="30" on="0"/>
        <pt x="191" y="30" on="1"/>
        <pt x="251" y="30" on="1"/>
        <pt x="266" y="30" on="0"/>
        <pt x="266" y="0" on="0"/>
        <pt x="251" y="0" on="1"/>
        <pt x="61" y="0" on="1"/>
        <pt x="46" y="0" on="0"/>
        <pt x="46" y="30" on="0"/>
      </contour>
    </TTGlyph>
    <TTGlyph name="Ntilde" xMin="46" yMin="0" xMax="746" yMax="875">
      <contour>
        <pt x="61" y="30" on="1"/>
        <pt x="131" y="30" on="1"/>
        <pt x="146" y="30" on="0"/>
        <pt x="146" y="45" on="1"/>
        <pt x="146" y="655" on="1"/>
        <pt x="146" y="670" on="0"/>
        <pt x="131" y="670" on="1"/>
        <pt x="61" y="670" on="1"/>
        <pt x="46" y="670" on="0"/>
        <pt x="46" y="700" on="0"/>
        <pt x="61" y="700" on="1"/>
        <pt x="171" y="700" on="1"/>
        <pt x="187" y="700" on="0"/>
        <pt x="196" y="685" on="1"/>
        <pt x="606" y="60" on="1"/>
        <pt x="608" y="56" on="0"/>
        <pt x="616" y="57" on="0"/>
        <pt x="616" y="65" on="1"/>
        <pt x="616" y="655" on="1"/>
        <pt x="616" y="670" on="0"/>
        <pt x="601" y="670" on="1"/>
        <pt x="541" y="670" on="1"/>
        <pt x="526" y="670" on="0"/>
        <pt x="526" y="700" on="0"/>
        <pt x="541" y="700" on="1"/>
        <pt x="731" y="700" on="1"/>
        <pt x="746" y="700" on="0"/>
        <pt x="746" y="670" on="0"/>
        <pt x="731" y="670" on="1"/>
        <pt x="661" y="670" on="1"/>
        <pt x="646" y="670" on="0"/>
        <pt x="646" y="655" on="1"/>
        <pt x="646" y="45" on="1"/>
        <pt x="646" y="30" on="0"/>
        <pt x="661" y="30" on="1"/>
        <pt x="731" y="30" on="1"/>
        <pt x="746" y="30" on="0"/>
        <pt x="746" y="0" on="0"/>
        <pt x="731" y="0" on="1"/>
        <pt x="621" y="0" on="1"/>
        <pt x="605" y="0" on="0"/>
        <pt x="596" y="15" on="1"/>
        <pt x="186" y="640" on="1"/>
        <pt x="184" y="644" on="0"/>
        <pt x="176" y="643" on="0"/>
        <pt x="176" y="635" on="1"/>
        <pt x="176" y="45" on="1"/>
        <pt x="176" y="30" on="0"/>
        <pt x="191" y="30" on="1"/>
        <pt x="251" y="30" on="1"/>
        <pt x="266" y="30" on="0"/>
        <pt x="266" y="0" on="0"/>
        <pt x="251" y="0" on="1"/>
        <pt x="61" y="0" on="1"/>
        <pt x="46" y="0" on="0"/>
        <pt x="46" y="30" on="0"/>
      </contour>
      <contour>
        <pt x="261" y="785" on="1"/>
        <pt x="261" y="828" on="0"/>
        <pt x="300" y="875" on="0"/>
        <pt x="326" y="875" on="1"/>
        <pt x="372" y="875" on="0"/>
        <pt x="414" y="800" on="0"/>
        <pt x="441" y="800" on="1"/>
        <pt x="481" y="800" on="0"/>
        <pt x="481" y="860" on="1"/>
        <pt x="481" y="875" on="0"/>
        <pt x="511" y="875" on="0"/>
        <pt x="511" y="860" on="1"/>
        <pt x="511" y="816" on="0"/>
        <pt x="472" y="770" on="0"/>
        <pt x="446" y="770" on="1"/>
        <pt x="400" y="770" on="0"/>
        <pt x="358" y="845" on="0"/>
        <pt x="331" y="845" on="1"/>
        <pt x="291" y="845" on="0"/>
        <pt x="291" y="785" on="1"/>
        <pt x="291" y="770" on="0"/>
        <pt x="261" y="770" on="0"/>
      </contour>
    </TTGlyph>
    <TTGlyph name="O" xMin="58" yMin="-10" xMax="728" yMax="710">
      <contour>
        <pt x="58" y="193" on="0"/>
        <pt x="58" y="507" on="0"/>
        <pt x="242" y="710" on="0"/>
        <pt x="544" y="710" on="0"/>
        <pt x="728" y="507" on="0"/>
        <pt x="728" y="193" on="0"/>
        <pt x="544" y="-10" on="0"/>
        <pt x="242" y="-10" on="0"/>
      </contour>
      <contour>
        <pt x="88" y="494" on="0"/>
        <pt x="88" y="206" on="0"/>
        <pt x="256" y="20" on="0"/>
        <pt x="530" y="20" on="0"/>
        <pt x="698" y="206" on="0"/>
        <pt x="698" y="494" on="0"/>
        <pt x="530" y="680" on="0"/>
        <pt x="256" y="680" on="0"/>
      </contour>
    </TTGlyph>
    <TTGlyph name="OE" xMin="58" yMin="0" xMax="873" yMax="700">
      <contour>
        <pt x="58" y="200" on="0"/>
        <pt x="58" y="500" on="0"/>
        <pt x="242" y="700" on="0"/>
        <pt x="393" y="700" on="1"/>
        <pt x="848" y="700" on="1"/>
        <pt x="863" y="700" on="0"/>
        <pt x="863" y="685" on="1"/>
        <pt x="863" y="565" on="1"/>
        <pt x="863" y="550" on="0"/>
        <pt x="833" y="550" on="0"/>
        <pt x="833" y="565" on="1"/>
        <pt x="833" y="655" on="1"/>
        <pt x="833" y="670" on="0"/>
        <pt x="818" y="670" on="1"/>
        <pt x="503" y="670" on="1"/>
        <pt x="488" y="670" on="0"/>
        <pt x="488" y="655" on="1"/>
        <pt x="488" y="385" on="1"/>
        <pt x="488" y="370" on="0"/>
        <pt x="503" y="370" on="1"/>
        <pt x="728" y="370" on="1"/>
        <pt x="743" y="370" on="0"/>
        <pt x="743" y="385" on="1"/>
        <pt x="743" y="435" on="1"/>
        <pt x="743" y="450" on="0"/>
        <pt x="773" y="450" on="0"/>
        <pt x="773" y="435" on="1"/>
        <pt x="773" y="275" on="1"/>
        <pt x="773" y="260" on="0"/>
        <pt x="743" y="260" on="0"/>
        <pt x="743" y="275" on="1"/>
        <pt x="743" y="325" on="1"/>
        <pt x="743" y="340" on="0"/>
        <pt x="728" y="340" on="1"/>
        <pt x="503" y="340" on="1"/>
        <pt x="488" y="340" on="0"/>
        <pt x="488" y="325" on="1"/>
        <pt x="488" y="45" on="1"/>
        <pt x="488" y="30" on="0"/>
        <pt x="503" y="30" on="1"/>
        <pt x="828" y="30" on="1"/>
        <pt x="843" y="30" on="0"/>
        <pt x="843" y="45" on="1"/>
        <pt x="843" y="135" on="1"/>
        <pt x="843" y="150" on="0"/>
        <pt x="873" y="150" on="0"/>
        <pt x="873" y="135" on="1"/>
        <pt x="873" y="15" on="1"/>
        <pt x="873" y="0" on="0"/>
        <pt x="858" y="0" on="1"/>
        <pt x="393" y="0" on="1"/>
        <pt x="242" y="0" on="0"/>
      </contour>
      <contour>
        <pt x="88" y="488" on="0"/>
        <pt x="88" y="212" on="0"/>
        <pt x="257" y="30" on="0"/>
        <pt x="393" y="30" on="1"/>
        <pt x="443" y="30" on="1"/>
        <pt x="458" y="30" on="0"/>
        <pt x="458" y="45" on="1"/>
        <pt x="458" y="655" on="1"/>
        <pt x="458" y="670" on="0"/>
        <pt x="443" y="670" on="1"/>
        <pt x="393" y="670" on="1"/>
        <pt x="257" y="670" on="0"/>
      </contour>
    </TTGlyph>
    <TTGlyph name="Oacute" xMin="58" yMin="-10" xMax="728" yMax="920">
      <contour>
        <pt x="58" y="193" on="0"/>
        <pt x="58" y="507" on="0"/>
        <pt x="242" y="710" on="0"/>
        <pt x="544" y="710" on="0"/>
        <pt x="728" y="507" on="0"/>
        <pt x="728" y="193" on="0"/>
        <pt x="544" y="-10" on="0"/>
        <pt x="242" y="-10" on="0"/>
      </contour>
      <contour>
        <pt x="88" y="494" on="0"/>
        <pt x="88" y="206" on="0"/>
        <pt x="256" y="20" on="0"/>
        <pt x="530" y="20" on="0"/>
        <pt x="698" y="206" on="0"/>
        <pt x="698" y="494" on="0"/>
        <pt x="530" y="680" on="0"/>
        <pt x="256" y="680" on="0"/>
      </contour>
      <contour>
        <pt x="376" y="784" on="1"/>
        <pt x="465" y="911" on="1"/>
        <pt x="470" y="920" on="0"/>
        <pt x="482" y="920" on="0"/>
        <pt x="486" y="915" on="1"/>
        <pt x="494" y="912" on="0"/>
        <pt x="494" y="900" on="0"/>
        <pt x="490" y="895" on="1"/>
        <pt x="400" y="767" on="1"/>
        <pt x="396" y="761" on="0"/>
        <pt x="384" y="761" on="0"/>
        <pt x="379" y="764" on="1"/>
        <pt x="372" y="769" on="0"/>
        <pt x="372" y="774" on="1"/>
        <pt x="372" y="779" on="0"/>
      </contour>
    </TTGlyph>
    <TTGlyph name="Ocircumflex" xMin="58" yMin="-10" xMax="728" yMax="905">
      <contour>
        <pt x="58" y="193" on="0"/>
        <pt x="58" y="507" on="0"/>
        <pt x="242" y="710" on="0"/>
        <pt x="544" y="710" on="0"/>
        <pt x="728" y="507" on="0"/>
        <pt x="728" y="193" on="0"/>
        <pt x="544" y="-10" on="0"/>
        <pt x="242" y="-10" on="0"/>
      </contour>
      <contour>
        <pt x="88" y="494" on="0"/>
        <pt x="88" y="206" on="0"/>
        <pt x="256" y="20" on="0"/>
        <pt x="530" y="20" on="0"/>
        <pt x="698" y="206" on="0"/>
        <pt x="698" y="494" on="0"/>
        <pt x="530" y="680" on="0"/>
        <pt x="256" y="680" on="0"/>
      </contour>
      <contour>
        <pt x="273" y="761" on="0"/>
        <pt x="263" y="771" on="0"/>
        <pt x="263" y="782" on="0"/>
        <pt x="268" y="787" on="1"/>
        <pt x="375" y="896" on="1"/>
        <pt x="384" y="905" on="0"/>
        <pt x="392" y="905" on="1"/>
        <pt x="400" y="905" on="0"/>
        <pt x="408" y="897" on="1"/>
        <pt x="518" y="787" on="1"/>
        <pt x="523" y="782" on="0"/>
        <pt x="523" y="771" on="0"/>
        <pt x="513" y="761" on="0"/>
        <pt x="502" y="761" on="0"/>
        <pt x="497" y="766" on="1"/>
        <pt x="401" y="861" on="1"/>
        <pt x="392" y="870" on="0"/>
        <pt x="383" y="861" on="1"/>
        <pt x="289" y="766" on="1"/>
        <pt x="284" y="761" on="0"/>
      </contour>
    </TTGlyph>
    <TTGlyph name="Odieresis" xMin="58" yMin="-10" xMax="728" yMax="860">
      <contour>
        <pt x="58" y="193" on="0"/>
        <pt x="58" y="507" on="0"/>
        <pt x="242" y="710" on="0"/>
        <pt x="544" y="710" on="0"/>
        <pt x="728" y="507" on="0"/>
        <pt x="728" y="193" on="0"/>
        <pt x="544" y="-10" on="0"/>
        <pt x="242" y="-10" on="0"/>
      </contour>
      <contour>
        <pt x="88" y="494" on="0"/>
        <pt x="88" y="206" on="0"/>
        <pt x="256" y="20" on="0"/>
        <pt x="530" y="20" on="0"/>
        <pt x="698" y="206" on="0"/>
        <pt x="698" y="494" on="0"/>
        <pt x="530" y="680" on="0"/>
        <pt x="256" y="680" on="0"/>
      </contour>
      <contour>
        <pt x="273" y="803" on="0"/>
        <pt x="273" y="837" on="0"/>
        <pt x="296" y="860" on="0"/>
        <pt x="330" y="860" on="0"/>
        <pt x="353" y="837" on="0"/>
        <pt x="353" y="803" on="0"/>
        <pt x="330" y="780" on="0"/>
        <pt x="296" y="780" on="0"/>
      </contour>
      <contour>
        <pt x="433" y="803" on="0"/>
        <pt x="433" y="837" on="0"/>
        <pt x="456" y="860" on="0"/>
        <pt x="490" y="860" on="0"/>
        <pt x="513" y="837" on="0"/>
        <pt x="513" y="803" on="0"/>
        <pt x="490" y="780" on="0"/>
        <pt x="456" y="780" on="0"/>
      </contour>
    </TTGlyph>
    <TTGlyph name="Ograve" xMin="58" yMin="-10" xMax="728" yMax="920">
      <contour>
        <pt x="58" y="193" on="0"/>
        <pt x="58" y="507" on="0"/>
        <pt x="242" y="710" on="0"/>
        <pt x="544" y="710" on="0"/>
        <pt x="728" y="507" on="0"/>
        <pt x="728" y="193" on="0"/>
        <pt x="544" y="-10" on="0"/>
        <pt x="242" y="-10" on="0"/>
      </contour>
      <contour>
        <pt x="88" y="494" on="0"/>
        <pt x="88" y="206" on="0"/>
        <pt x="256" y="20" on="0"/>
        <pt x="530" y="20" on="0"/>
        <pt x="698" y="206" on="0"/>
        <pt x="698" y="494" on="0"/>
        <pt x="530" y="680" on="0"/>
        <pt x="256" y="680" on="0"/>
      </contour>
      <contour>
        <pt x="296" y="895" on="1"/>
        <pt x="292" y="900" on="0"/>
        <pt x="292" y="912" on="0"/>
        <pt x="300" y="915" on="1"/>
        <pt x="304" y="920" on="0"/>
        <pt x="316" y="920" on="0"/>
        <pt x="321" y="911" on="1"/>
        <pt x="410" y="784" on="1"/>
        <pt x="414" y="779" on="0"/>
        <pt x="414" y="774" on="1"/>
        <pt x="414" y="769" on="0"/>
        <pt x="407" y="764" on="1"/>
        <pt x="402" y="761" on="0"/>
        <pt x="390" y="761" on="0"/>
        <pt x="386" y="767" on="1"/>
      </contour>
    </TTGlyph>
    <TTGlyph name="Oslash" xMin="58" yMin="-10" xMax="728" yMax="710">
      <contour>
        <pt x="58" y="350" on="1"/>
        <pt x="58" y="507" on="0"/>
        <pt x="242" y="710" on="0"/>
        <pt x="393" y="710" on="1"/>
        <pt x="494" y="710" on="0"/>
        <pt x="575" y="659" on="1"/>
        <pt x="597" y="692" on="1"/>
        <pt x="605" y="703" on="0"/>
        <pt x="617" y="697" on="1"/>
        <pt x="631" y="687" on="0"/>
        <pt x="621" y="677" on="1"/>
        <pt x="599" y="643" on="1"/>
        <pt x="728" y="542" on="0"/>
        <pt x="728" y="350" on="1"/>
        <pt x="728" y="193" on="0"/>
        <pt x="544" y="-10" on="0"/>
        <pt x="393" y="-10" on="1"/>
        <pt x="290" y="-10" on="0"/>
        <pt x="210" y="40" on="1"/>
        <pt x="189" y="7" on="1"/>
        <pt x="181" y="-4" on="0"/>
        <pt x="155" y="10" on="0"/>
        <pt x="164" y="23" on="1"/>
        <pt x="186" y="57" on="1"/>
        <pt x="58" y="160" on="0"/>
      </contour>
      <contour>
        <pt x="88" y="350" on="1"/>
        <pt x="88" y="178" on="0"/>
        <pt x="203" y="83" on="1"/>
        <pt x="559" y="633" on="1"/>
        <pt x="488" y="680" on="0"/>
        <pt x="393" y="680" on="1"/>
        <pt x="256" y="680" on="0"/>
        <pt x="88" y="494" on="0"/>
      </contour>
      <contour>
        <pt x="227" y="66" on="1"/>
        <pt x="297" y="20" on="0"/>
        <pt x="393" y="20" on="1"/>
        <pt x="530" y="20" on="0"/>
        <pt x="698" y="206" on="0"/>
        <pt x="698" y="350" on="1"/>
        <pt x="698" y="524" on="0"/>
        <pt x="582" y="617" on="1"/>
      </contour>
    </TTGlyph>
    <TTGlyph name="Otilde" xMin="58" yMin="-10" xMax="728" yMax="875">
      <contour>
        <pt x="58" y="193" on="0"/>
        <pt x="58" y="507" on="0"/>
        <pt x="242" y="710" on="0"/>
        <pt x="544" y="710" on="0"/>
        <pt x="728" y="507" on="0"/>
        <pt x="728" y="193" on="0"/>
        <pt x="544" y="-10" on="0"/>
        <pt x="242" y="-10" on="0"/>
      </contour>
      <contour>
        <pt x="88" y="494" on="0"/>
        <pt x="88" y="206" on="0"/>
        <pt x="256" y="20" on="0"/>
        <pt x="530" y="20" on="0"/>
        <pt x="698" y="206" on="0"/>
        <pt x="698" y="494" on="0"/>
        <pt x="530" y="680" on="0"/>
        <pt x="256" y="680" on="0"/>
      </contour>
      <contour>
        <pt x="268" y="785" on="1"/>
        <pt x="268" y="828" on="0"/>
        <pt x="288" y="852" on="1"/>
        <pt x="308" y="875" on="0"/>
        <pt x="334" y="875" on="1"/>
        <pt x="380" y="875" on="0"/>
        <pt x="421" y="800" on="0"/>
        <pt x="448" y="800" on="1"/>
        <pt x="488" y="800" on="0"/>
        <pt x="488" y="860" on="1"/>
        <pt x="488" y="875" on="0"/>
        <pt x="518" y="875" on="0"/>
        <pt x="518" y="860" on="1"/>
        <pt x="518" y="816" on="0"/>
        <pt x="498" y="793" on="1"/>
        <pt x="478" y="770" on="0"/>
        <pt x="452" y="770" on="1"/>
        <pt x="406" y="770" on="0"/>
        <pt x="365" y="845" on="0"/>
        <pt x="338" y="845" on="1"/>
        <pt x="298" y="845" on="0"/>
        <pt x="298" y="785" on="1"/>
        <pt x="298" y="770" on="0"/>
        <pt x="268" y="770" on="0"/>
      </contour>
    </TTGlyph>
    <TTGlyph name="P" xMin="46" yMin="0" xMax="596" yMax="700">
      <contour>
        <pt x="191" y="280" on="1"/>
        <pt x="176" y="280" on="0"/>
        <pt x="176" y="265" on="1"/>
        <pt x="176" y="45" on="1"/>
        <pt x="176" y="30" on="0"/>
        <pt x="191" y="30" on="1"/>
        <pt x="271" y="30" on="1"/>
        <pt x="286" y="30" on="0"/>
        <pt x="286" y="15" on="1"/>
        <pt x="286" y="0" on="0"/>
        <pt x="271" y="0" on="1"/>
        <pt x="61" y="0" on="1"/>
        <pt x="46" y="0" on="0"/>
        <pt x="46" y="15" on="1"/>
        <pt x="46" y="30" on="0"/>
        <pt x="61" y="30" on="1"/>
        <pt x="131" y="30" on="1"/>
        <pt x="146" y="30" on="0"/>
        <pt x="146" y="45" on="1"/>
        <pt x="146" y="655" on="1"/>
        <pt x="146" y="670" on="0"/>
        <pt x="131" y="670" on="1"/>
        <pt x="61" y="670" on="1"/>
        <pt x="46" y="670" on="0"/>
        <pt x="46" y="685" on="1"/>
        <pt x="46" y="700" on="0"/>
        <pt x="61" y="700" on="1"/>
        <pt x="396" y="700" on="1"/>
        <pt x="495" y="700" on="0"/>
        <pt x="596" y="593" on="0"/>
        <pt x="596" y="490" on="1"/>
        <pt x="596" y="387" on="0"/>
        <pt x="495" y="280" on="0"/>
        <pt x="396" y="280" on="1"/>
      </contour>
      <contour>
        <pt x="396" y="310" on="1"/>
        <pt x="566" y="310" on="0"/>
        <pt x="566" y="490" on="1"/>
        <pt x="566" y="670" on="0"/>
        <pt x="396" y="670" on="1"/>
        <pt x="191" y="670" on="1"/>
        <pt x="176" y="670" on="0"/>
        <pt x="176" y="655" on="1"/>
        <pt x="176" y="325" on="1"/>
        <pt x="176" y="310" on="0"/>
        <pt x="191" y="310" on="1"/>
      </contour>
    </TTGlyph>
    <TTGlyph name="Q" xMin="58" yMin="-90" xMax="728" yMax="710">
      <contour>
        <pt x="493" y="4" on="1"/>
        <pt x="526" y="-49" on="0"/>
        <pt x="560" y="-60" on="1"/>
        <pt x="593" y="-60" on="0"/>
        <pt x="628" y="-34" on="0"/>
        <pt x="645" y="-58" on="0"/>
        <pt x="622" y="-75" on="0"/>
        <pt x="580" y="-90" on="0"/>
        <pt x="560" y="-90" on="1"/>
        <pt x="495" y="-90" on="0"/>
        <pt x="462" y="-4" on="1"/>
        <pt x="430" y="-10" on="0"/>
        <pt x="393" y="-10" on="1"/>
        <pt x="242" y="-10" on="0"/>
        <pt x="150" y="91" on="1"/>
        <pt x="58" y="194" on="0"/>
        <pt x="58" y="507" on="0"/>
        <pt x="241" y="710" on="0"/>
        <pt x="544" y="710" on="0"/>
        <pt x="728" y="507" on="0"/>
        <pt x="728" y="350" on="1"/>
        <pt x="728" y="221" on="0"/>
        <pt x="603" y="34" on="0"/>
      </contour>
      <contour>
        <pt x="298" y="33" on="1"/>
        <pt x="327" y="119" on="0"/>
        <pt x="393" y="119" on="1"/>
        <pt x="428" y="119" on="0"/>
        <pt x="471" y="74" on="0"/>
        <pt x="485" y="32" on="1"/>
        <pt x="560" y="53" on="0"/>
        <pt x="614" y="113" on="1"/>
        <pt x="698" y="206" on="0"/>
        <pt x="698" y="350" on="1"/>
        <pt x="698" y="494" on="0"/>
        <pt x="614" y="587" on="1"/>
        <pt x="530" y="680" on="0"/>
        <pt x="393" y="680" on="1"/>
        <pt x="256" y="680" on="0"/>
        <pt x="172" y="587" on="1"/>
        <pt x="88" y="494" on="0"/>
        <pt x="88" y="350" on="1"/>
        <pt x="88" y="206" on="0"/>
        <pt x="172" y="113" on="1"/>
        <pt x="225" y="54" on="0"/>
      </contour>
      <contour>
        <pt x="329" y="25" on="1"/>
        <pt x="367" y="20" on="0"/>
        <pt x="429" y="20" on="0"/>
        <pt x="454" y="25" on="1"/>
        <pt x="436" y="89" on="0"/>
        <pt x="393" y="89" on="1"/>
        <pt x="347" y="89" on="0"/>
      </contour>
    </TTGlyph>
    <TTGlyph name="R" xMin="46" yMin="0" xMax="676" yMax="700">
      <contour>
        <pt x="396" y="350" on="1"/>
        <pt x="478" y="350" on="0"/>
        <pt x="566" y="434" on="0"/>
        <pt x="566" y="510" on="1"/>
        <pt x="566" y="586" on="0"/>
        <pt x="478" y="670" on="0"/>
        <pt x="396" y="670" on="1"/>
        <pt x="191" y="670" on="1"/>
        <pt x="176" y="670" on="0"/>
        <pt x="176" y="655" on="1"/>
        <pt x="176" y="365" on="1"/>
        <pt x="176" y="350" on="0"/>
        <pt x="191" y="350" on="1"/>
      </contour>
      <contour>
        <pt x="176" y="45" on="1"/>
        <pt x="176" y="30" on="0"/>
        <pt x="191" y="30" on="1"/>
        <pt x="251" y="30" on="1"/>
        <pt x="266" y="30" on="0"/>
        <pt x="266" y="15" on="1"/>
        <pt x="266" y="0" on="0"/>
        <pt x="251" y="0" on="1"/>
        <pt x="61" y="0" on="1"/>
        <pt x="46" y="0" on="0"/>
        <pt x="46" y="15" on="1"/>
        <pt x="46" y="30" on="0"/>
        <pt x="61" y="30" on="1"/>
        <pt x="131" y="30" on="1"/>
        <pt x="146" y="30" on="0"/>
        <pt x="146" y="45" on="1"/>
        <pt x="146" y="655" on="1"/>
        <pt x="146" y="670" on="0"/>
        <pt x="131" y="670" on="1"/>
        <pt x="61" y="670" on="1"/>
        <pt x="46" y="670" on="0"/>
        <pt x="46" y="685" on="1"/>
        <pt x="46" y="700" on="0"/>
        <pt x="61" y="700" on="1"/>
        <pt x="396" y="700" on="1"/>
        <pt x="493" y="700" on="0"/>
        <pt x="596" y="600" on="0"/>
        <pt x="596" y="510" on="1"/>
        <pt x="596" y="420" on="0"/>
        <pt x="493" y="320" on="0"/>
        <pt x="396" y="320" on="1"/>
        <pt x="391" y="320" on="1"/>
        <pt x="383" y="320" on="0"/>
        <pt x="376" y="311" on="0"/>
        <pt x="381" y="305" on="1"/>
        <pt x="571" y="45" on="1"/>
        <pt x="584" y="30" on="0"/>
        <pt x="596" y="30" on="1"/>
        <pt x="661" y="30" on="1"/>
        <pt x="676" y="30" on="0"/>
        <pt x="676" y="15" on="1"/>
        <pt x="676" y="0" on="0"/>
        <pt x="661" y="0" on="1"/>
        <pt x="461" y="0" on="1"/>
        <pt x="446" y="0" on="0"/>
        <pt x="446" y="15" on="1"/>
        <pt x="446" y="30" on="0"/>
        <pt x="461" y="30" on="1"/>
        <pt x="526" y="30" on="1"/>
        <pt x="544" y="30" on="0"/>
        <pt x="531" y="45" on="1"/>
        <pt x="331" y="320" on="1"/>
        <pt x="191" y="320" on="1"/>
        <pt x="176" y="320" on="0"/>
        <pt x="176" y="305" on="1"/>
      </contour>
    </TTGlyph>
    <TTGlyph name="S" xMin="70" yMin="-10" xMax="590" yMax="710">
      <contour>
        <pt x="164" y="75" on="1"/>
        <pt x="248" y="20" on="0"/>
        <pt x="449" y="20" on="0"/>
        <pt x="560" y="109" on="0"/>
        <pt x="560" y="180" on="1"/>
        <pt x="560" y="219" on="0"/>
        <pt x="536" y="248" on="1"/>
        <pt x="512" y="277" on="0"/>
        <pt x="476" y="293" on="1"/>
        <pt x="436" y="311" on="0"/>
        <pt x="206" y="374" on="0"/>
        <pt x="119" y="417" on="0"/>
        <pt x="70" y="483" on="0"/>
        <pt x="70" y="526" on="1"/>
        <pt x="70" y="610" on="0"/>
        <pt x="180" y="710" on="0"/>
        <pt x="300" y="710" on="1"/>
        <pt x="419" y="710" on="0"/>
        <pt x="519" y="625" on="1"/>
        <pt x="535" y="612" on="0"/>
        <pt x="535" y="635" on="1"/>
        <pt x="535" y="685" on="1"/>
        <pt x="535" y="700" on="0"/>
        <pt x="550" y="700" on="1"/>
        <pt x="565" y="700" on="0"/>
        <pt x="565" y="685" on="1"/>
        <pt x="565" y="495" on="1"/>
        <pt x="565" y="480" on="0"/>
        <pt x="550" y="480" on="1"/>
        <pt x="535" y="480" on="0"/>
        <pt x="535" y="495" on="1"/>
        <pt x="535" y="565" on="1"/>
        <pt x="480" y="628" on="0"/>
        <pt x="398" y="662" on="1"/>
        <pt x="354" y="680" on="0"/>
        <pt x="300" y="680" on="1"/>
        <pt x="198" y="680" on="0"/>
        <pt x="100" y="596" on="0"/>
        <pt x="100" y="535" on="1"/>
        <pt x="100" y="496" on="0"/>
        <pt x="124" y="467" on="1"/>
        <pt x="148" y="438" on="0"/>
        <pt x="184" y="422" on="1"/>
        <pt x="224" y="404" on="0"/>
        <pt x="454" y="341" on="0"/>
        <pt x="541" y="298" on="0"/>
        <pt x="590" y="232" on="0"/>
        <pt x="590" y="186" on="1"/>
        <pt x="590" y="96" on="0"/>
        <pt x="464" y="-10" on="0"/>
        <pt x="216" y="-10" on="0"/>
        <pt x="116" y="75" on="1"/>
        <pt x="100" y="88" on="0"/>
        <pt x="100" y="65" on="1"/>
        <pt x="100" y="15" on="1"/>
        <pt x="100" y="0" on="0"/>
        <pt x="85" y="0" on="1"/>
        <pt x="70" y="0" on="0"/>
        <pt x="70" y="15" on="1"/>
        <pt x="70" y="205" on="1"/>
        <pt x="70" y="220" on="0"/>
        <pt x="85" y="220" on="1"/>
        <pt x="100" y="220" on="0"/>
        <pt x="100" y="205" on="1"/>
        <pt x="100" y="130" on="1"/>
        <pt x="127" y="99" on="0"/>
      </contour>
    </TTGlyph>
    <TTGlyph name="Scaron" xMin="90" yMin="-10" xMax="610" yMax="909">
      <contour>
        <pt x="323" y="809" on="1"/>
        <pt x="332" y="800" on="0"/>
        <pt x="341" y="809" on="1"/>
        <pt x="437" y="904" on="1"/>
        <pt x="442" y="909" on="0"/>
        <pt x="452" y="909" on="0"/>
        <pt x="468" y="893" on="0"/>
        <pt x="458" y="883" on="1"/>
        <pt x="348" y="773" on="1"/>
        <pt x="341" y="766" on="0"/>
        <pt x="323" y="766" on="0"/>
        <pt x="315" y="774" on="1"/>
        <pt x="208" y="883" on="1"/>
        <pt x="197" y="893" on="0"/>
        <pt x="213" y="909" on="0"/>
        <pt x="224" y="909" on="0"/>
        <pt x="229" y="904" on="1"/>
      </contour>
      <contour>
        <pt x="184" y="75" on="1"/>
        <pt x="268" y="20" on="0"/>
        <pt x="469" y="20" on="0"/>
        <pt x="580" y="109" on="0"/>
        <pt x="580" y="180" on="1"/>
        <pt x="580" y="219" on="0"/>
        <pt x="556" y="248" on="1"/>
        <pt x="532" y="277" on="0"/>
        <pt x="496" y="293" on="1"/>
        <pt x="456" y="311" on="0"/>
        <pt x="226" y="374" on="0"/>
        <pt x="139" y="417" on="0"/>
        <pt x="90" y="483" on="0"/>
        <pt x="90" y="526" on="1"/>
        <pt x="90" y="610" on="0"/>
        <pt x="200" y="710" on="0"/>
        <pt x="320" y="710" on="1"/>
        <pt x="439" y="710" on="0"/>
        <pt x="539" y="625" on="1"/>
        <pt x="555" y="612" on="0"/>
        <pt x="555" y="635" on="1"/>
        <pt x="555" y="685" on="1"/>
        <pt x="555" y="700" on="0"/>
        <pt x="570" y="700" on="1"/>
        <pt x="585" y="700" on="0"/>
        <pt x="585" y="685" on="1"/>
        <pt x="585" y="495" on="1"/>
        <pt x="585" y="480" on="0"/>
        <pt x="570" y="480" on="1"/>
        <pt x="555" y="480" on="0"/>
        <pt x="555" y="495" on="1"/>
        <pt x="555" y="565" on="1"/>
        <pt x="500" y="628" on="0"/>
        <pt x="418" y="662" on="1"/>
        <pt x="374" y="680" on="0"/>
        <pt x="320" y="680" on="1"/>
        <pt x="218" y="680" on="0"/>
        <pt x="120" y="596" on="0"/>
        <pt x="120" y="535" on="1"/>
        <pt x="120" y="496" on="0"/>
        <pt x="144" y="467" on="1"/>
        <pt x="168" y="438" on="0"/>
        <pt x="204" y="422" on="1"/>
        <pt x="244" y="404" on="0"/>
        <pt x="474" y="341" on="0"/>
        <pt x="561" y="298" on="0"/>
        <pt x="610" y="232" on="0"/>
        <pt x="610" y="186" on="1"/>
        <pt x="610" y="96" on="0"/>
        <pt x="484" y="-10" on="0"/>
        <pt x="236" y="-10" on="0"/>
        <pt x="136" y="75" on="1"/>
        <pt x="120" y="88" on="0"/>
        <pt x="120" y="65" on="1"/>
        <pt x="120" y="15" on="1"/>
        <pt x="120" y="0" on="0"/>
        <pt x="105" y="0" on="1"/>
        <pt x="90" y="0" on="0"/>
        <pt x="90" y="15" on="1"/>
        <pt x="90" y="205" on="1"/>
        <pt x="90" y="220" on="0"/>
        <pt x="105" y="220" on="1"/>
        <pt x="120" y="220" on="0"/>
        <pt x="120" y="205" on="1"/>
        <pt x="120" y="130" on="1"/>
        <pt x="147" y="99" on="0"/>
      </contour>
    </TTGlyph>
    <TTGlyph name="T" xMin="26" yMin="0" xMax="596" yMax="700">
      <contour>
        <pt x="26" y="540" on="1"/>
        <pt x="26" y="685" on="1"/>
        <pt x="26" y="700" on="0"/>
        <pt x="41" y="700" on="1"/>
        <pt x="581" y="700" on="1"/>
        <pt x="596" y="700" on="0"/>
        <pt x="596" y="685" on="1"/>
        <pt x="596" y="540" on="1"/>
        <pt x="596" y="525" on="0"/>
        <pt x="566" y="525" on="0"/>
        <pt x="566" y="540" on="1"/>
        <pt x="566" y="655" on="1"/>
        <pt x="566" y="670" on="0"/>
        <pt x="551" y="670" on="1"/>
        <pt x="341" y="670" on="1"/>
        <pt x="326" y="670" on="0"/>
        <pt x="326" y="655" on="1"/>
        <pt x="326" y="45" on="1"/>
        <pt x="326" y="30" on="0"/>
        <pt x="341" y="30" on="1"/>
        <pt x="411" y="30" on="1"/>
        <pt x="426" y="30" on="0"/>
        <pt x="426" y="0" on="0"/>
        <pt x="411" y="0" on="1"/>
        <pt x="211" y="0" on="1"/>
        <pt x="196" y="0" on="0"/>
        <pt x="196" y="30" on="0"/>
        <pt x="211" y="30" on="1"/>
        <pt x="281" y="30" on="1"/>
        <pt x="296" y="30" on="0"/>
        <pt x="296" y="45" on="1"/>
        <pt x="296" y="655" on="1"/>
        <pt x="296" y="670" on="0"/>
        <pt x="281" y="670" on="1"/>
        <pt x="71" y="670" on="1"/>
        <pt x="56" y="670" on="0"/>
        <pt x="56" y="655" on="1"/>
        <pt x="56" y="540" on="1"/>
        <pt x="56" y="525" on="0"/>
        <pt x="26" y="525" on="0"/>
      </contour>
    </TTGlyph>
    <TTGlyph name="Thorn" xMin="46" yMin="0" xMax="571" yMax="700">
      <contour>
        <pt x="176" y="155" on="1"/>
        <pt x="176" y="140" on="0"/>
        <pt x="191" y="140" on="1"/>
        <pt x="296" y="140" on="1"/>
        <pt x="414" y="140" on="0"/>
        <pt x="541" y="250" on="0"/>
        <pt x="541" y="350" on="1"/>
        <pt x="541" y="450" on="0"/>
        <pt x="414" y="560" on="0"/>
        <pt x="296" y="560" on="1"/>
        <pt x="191" y="560" on="1"/>
        <pt x="176" y="560" on="0"/>
        <pt x="176" y="545" on="1"/>
      </contour>
      <contour>
        <pt x="176" y="45" on="1"/>
        <pt x="176" y="30" on="0"/>
        <pt x="191" y="30" on="1"/>
        <pt x="261" y="30" on="1"/>
        <pt x="276" y="30" on="0"/>
        <pt x="276" y="15" on="1"/>
        <pt x="276" y="0" on="0"/>
        <pt x="261" y="0" on="1"/>
        <pt x="61" y="0" on="1"/>
        <pt x="46" y="0" on="0"/>
        <pt x="46" y="15" on="1"/>
        <pt x="46" y="30" on="0"/>
        <pt x="61" y="30" on="1"/>
        <pt x="131" y="30" on="1"/>
        <pt x="146" y="30" on="0"/>
        <pt x="146" y="45" on="1"/>
        <pt x="146" y="655" on="1"/>
        <pt x="146" y="670" on="0"/>
        <pt x="131" y="670" on="1"/>
        <pt x="61" y="670" on="1"/>
        <pt x="46" y="670" on="0"/>
        <pt x="46" y="685" on="1"/>
        <pt x="46" y="700" on="0"/>
        <pt x="61" y="700" on="1"/>
        <pt x="261" y="700" on="1"/>
        <pt x="276" y="700" on="0"/>
        <pt x="276" y="685" on="1"/>
        <pt x="276" y="670" on="0"/>
        <pt x="261" y="670" on="1"/>
        <pt x="191" y="670" on="1"/>
        <pt x="176" y="670" on="0"/>
        <pt x="176" y="655" on="1"/>
        <pt x="176" y="605" on="1"/>
        <pt x="176" y="590" on="0"/>
        <pt x="191" y="590" on="1"/>
        <pt x="296" y="590" on="1"/>
        <pt x="425" y="590" on="0"/>
        <pt x="571" y="462" on="0"/>
        <pt x="571" y="350" on="1"/>
        <pt x="571" y="238" on="0"/>
        <pt x="425" y="110" on="0"/>
        <pt x="296" y="110" on="1"/>
        <pt x="191" y="110" on="1"/>
        <pt x="176" y="110" on="0"/>
        <pt x="176" y="95" on="1"/>
      </contour>
    </TTGlyph>
    <TTGlyph name="U" xMin="28" yMin="-10" xMax="748" yMax="700">
      <contour>
        <pt x="43" y="700" on="1"/>
        <pt x="233" y="700" on="1"/>
        <pt x="248" y="700" on="0"/>
        <pt x="248" y="670" on="0"/>
        <pt x="233" y="670" on="1"/>
        <pt x="173" y="670" on="1"/>
        <pt x="158" y="670" on="0"/>
        <pt x="158" y="655" on="1"/>
        <pt x="158" y="250" on="1"/>
        <pt x="158" y="146" on="0"/>
        <pt x="288" y="20" on="0"/>
        <pt x="488" y="20" on="0"/>
        <pt x="618" y="146" on="0"/>
        <pt x="618" y="250" on="1"/>
        <pt x="618" y="655" on="1"/>
        <pt x="618" y="670" on="0"/>
        <pt x="603" y="670" on="1"/>
        <pt x="543" y="670" on="1"/>
        <pt x="528" y="670" on="0"/>
        <pt x="528" y="700" on="0"/>
        <pt x="543" y="700" on="1"/>
        <pt x="733" y="700" on="1"/>
        <pt x="748" y="700" on="0"/>
        <pt x="748" y="670" on="0"/>
        <pt x="733" y="670" on="1"/>
        <pt x="663" y="670" on="1"/>
        <pt x="648" y="670" on="0"/>
        <pt x="648" y="655" on="1"/>
        <pt x="648" y="250" on="1"/>
        <pt x="648" y="135" on="0"/>
        <pt x="501" y="-10" on="0"/>
        <pt x="275" y="-10" on="0"/>
        <pt x="128" y="135" on="0"/>
        <pt x="128" y="250" on="1"/>
        <pt x="128" y="655" on="1"/>
        <pt x="128" y="670" on="0"/>
        <pt x="113" y="670" on="1"/>
        <pt x="43" y="670" on="1"/>
        <pt x="28" y="670" on="0"/>
        <pt x="28" y="700" on="0"/>
      </contour>
    </TTGlyph>
    <TTGlyph name="Uacute" xMin="28" yMin="-10" xMax="748" yMax="910">
      <contour>
        <pt x="43" y="700" on="1"/>
        <pt x="233" y="700" on="1"/>
        <pt x="248" y="700" on="0"/>
        <pt x="248" y="670" on="0"/>
        <pt x="233" y="670" on="1"/>
        <pt x="173" y="670" on="1"/>
        <pt x="158" y="670" on="0"/>
        <pt x="158" y="655" on="1"/>
        <pt x="158" y="250" on="1"/>
        <pt x="158" y="146" on="0"/>
        <pt x="288" y="20" on="0"/>
        <pt x="488" y="20" on="0"/>
        <pt x="618" y="146" on="0"/>
        <pt x="618" y="250" on="1"/>
        <pt x="618" y="655" on="1"/>
        <pt x="618" y="670" on="0"/>
        <pt x="603" y="670" on="1"/>
        <pt x="543" y="670" on="1"/>
        <pt x="528" y="670" on="0"/>
        <pt x="528" y="700" on="0"/>
        <pt x="543" y="700" on="1"/>
        <pt x="733" y="700" on="1"/>
        <pt x="748" y="700" on="0"/>
        <pt x="748" y="670" on="0"/>
        <pt x="733" y="670" on="1"/>
        <pt x="663" y="670" on="1"/>
        <pt x="648" y="670" on="0"/>
        <pt x="648" y="655" on="1"/>
        <pt x="648" y="250" on="1"/>
        <pt x="648" y="135" on="0"/>
        <pt x="501" y="-10" on="0"/>
        <pt x="275" y="-10" on="0"/>
        <pt x="128" y="135" on="0"/>
        <pt x="128" y="250" on="1"/>
        <pt x="128" y="655" on="1"/>
        <pt x="128" y="670" on="0"/>
        <pt x="113" y="670" on="1"/>
        <pt x="43" y="670" on="1"/>
        <pt x="28" y="670" on="0"/>
        <pt x="28" y="700" on="0"/>
      </contour>
      <contour>
        <pt x="371" y="774" on="1"/>
        <pt x="460" y="901" on="1"/>
        <pt x="464" y="910" on="0"/>
        <pt x="476" y="910" on="0"/>
        <pt x="481" y="905" on="1"/>
        <pt x="489" y="902" on="0"/>
        <pt x="489" y="890" on="0"/>
        <pt x="485" y="885" on="1"/>
        <pt x="395" y="757" on="1"/>
        <pt x="390" y="751" on="0"/>
        <pt x="378" y="751" on="0"/>
        <pt x="374" y="754" on="1"/>
        <pt x="367" y="759" on="0"/>
        <pt x="367" y="764" on="1"/>
        <pt x="367" y="769" on="0"/>
      </contour>
    </TTGlyph>
    <TTGlyph name="Ucircumflex" xMin="28" yMin="-10" xMax="748" yMax="905">
      <contour>
        <pt x="43" y="700" on="1"/>
        <pt x="233" y="700" on="1"/>
        <pt x="248" y="700" on="0"/>
        <pt x="248" y="670" on="0"/>
        <pt x="233" y="670" on="1"/>
        <pt x="173" y="670" on="1"/>
        <pt x="158" y="670" on="0"/>
        <pt x="158" y="655" on="1"/>
        <pt x="158" y="250" on="1"/>
        <pt x="158" y="146" on="0"/>
        <pt x="288" y="20" on="0"/>
        <pt x="488" y="20" on="0"/>
        <pt x="618" y="146" on="0"/>
        <pt x="618" y="250" on="1"/>
        <pt x="618" y="655" on="1"/>
        <pt x="618" y="670" on="0"/>
        <pt x="603" y="670" on="1"/>
        <pt x="543" y="670" on="1"/>
        <pt x="528" y="670" on="0"/>
        <pt x="528" y="700" on="0"/>
        <pt x="543" y="700" on="1"/>
        <pt x="733" y="700" on="1"/>
        <pt x="748" y="700" on="0"/>
        <pt x="748" y="670" on="0"/>
        <pt x="733" y="670" on="1"/>
        <pt x="663" y="670" on="1"/>
        <pt x="648" y="670" on="0"/>
        <pt x="648" y="655" on="1"/>
        <pt x="648" y="250" on="1"/>
        <pt x="648" y="135" on="0"/>
        <pt x="501" y="-10" on="0"/>
        <pt x="275" y="-10" on="0"/>
        <pt x="128" y="135" on="0"/>
        <pt x="128" y="250" on="1"/>
        <pt x="128" y="655" on="1"/>
        <pt x="128" y="670" on="0"/>
        <pt x="113" y="670" on="1"/>
        <pt x="43" y="670" on="1"/>
        <pt x="28" y="670" on="0"/>
        <pt x="28" y="700" on="0"/>
      </contour>
      <contour>
        <pt x="263" y="787" on="1"/>
        <pt x="370" y="896" on="1"/>
        <pt x="379" y="905" on="0"/>
        <pt x="387" y="905" on="1"/>
        <pt x="395" y="905" on="0"/>
        <pt x="403" y="897" on="1"/>
        <pt x="513" y="787" on="1"/>
        <pt x="518" y="782" on="0"/>
        <pt x="518" y="771" on="0"/>
        <pt x="508" y="761" on="0"/>
        <pt x="497" y="761" on="0"/>
        <pt x="492" y="766" on="1"/>
        <pt x="396" y="861" on="1"/>
        <pt x="387" y="870" on="0"/>
        <pt x="378" y="861" on="1"/>
        <pt x="284" y="766" on="1"/>
        <pt x="279" y="761" on="0"/>
        <pt x="268" y="761" on="0"/>
        <pt x="258" y="771" on="0"/>
        <pt x="258" y="782" on="0"/>
      </contour>
    </TTGlyph>
    <TTGlyph name="Udieresis" xMin="28" yMin="-10" xMax="748" yMax="850">
      <contour>
        <pt x="43" y="700" on="1"/>
        <pt x="233" y="700" on="1"/>
        <pt x="248" y="700" on="0"/>
        <pt x="248" y="670" on="0"/>
        <pt x="233" y="670" on="1"/>
        <pt x="173" y="670" on="1"/>
        <pt x="158" y="670" on="0"/>
        <pt x="158" y="655" on="1"/>
        <pt x="158" y="250" on="1"/>
        <pt x="158" y="146" on="0"/>
        <pt x="288" y="20" on="0"/>
        <pt x="488" y="20" on="0"/>
        <pt x="618" y="146" on="0"/>
        <pt x="618" y="250" on="1"/>
        <pt x="618" y="655" on="1"/>
        <pt x="618" y="670" on="0"/>
        <pt x="603" y="670" on="1"/>
        <pt x="543" y="670" on="1"/>
        <pt x="528" y="670" on="0"/>
        <pt x="528" y="700" on="0"/>
        <pt x="543" y="700" on="1"/>
        <pt x="733" y="700" on="1"/>
        <pt x="748" y="700" on="0"/>
        <pt x="748" y="670" on="0"/>
        <pt x="733" y="670" on="1"/>
        <pt x="663" y="670" on="1"/>
        <pt x="648" y="670" on="0"/>
        <pt x="648" y="655" on="1"/>
        <pt x="648" y="250" on="1"/>
        <pt x="648" y="135" on="0"/>
        <pt x="501" y="-10" on="0"/>
        <pt x="275" y="-10" on="0"/>
        <pt x="128" y="135" on="0"/>
        <pt x="128" y="250" on="1"/>
        <pt x="128" y="655" on="1"/>
        <pt x="128" y="670" on="0"/>
        <pt x="113" y="670" on="1"/>
        <pt x="43" y="670" on="1"/>
        <pt x="28" y="670" on="0"/>
        <pt x="28" y="700" on="0"/>
      </contour>
      <contour>
        <pt x="279" y="781" on="1"/>
        <pt x="268" y="793" on="0"/>
        <pt x="268" y="827" on="0"/>
        <pt x="291" y="850" on="0"/>
        <pt x="325" y="850" on="0"/>
        <pt x="348" y="827" on="0"/>
        <pt x="348" y="793" on="0"/>
        <pt x="325" y="770" on="0"/>
        <pt x="291" y="770" on="0"/>
      </contour>
      <contour>
        <pt x="439" y="781" on="1"/>
        <pt x="428" y="793" on="0"/>
        <pt x="428" y="827" on="0"/>
        <pt x="451" y="850" on="0"/>
        <pt x="485" y="850" on="0"/>
        <pt x="508" y="827" on="0"/>
        <pt x="508" y="793" on="0"/>
        <pt x="485" y="770" on="0"/>
        <pt x="451" y="770" on="0"/>
      </contour>
    </TTGlyph>
    <TTGlyph name="Ugrave" xMin="28" yMin="-10" xMax="748" yMax="910">
      <contour>
        <pt x="43" y="700" on="1"/>
        <pt x="233" y="700" on="1"/>
        <pt x="248" y="700" on="0"/>
        <pt x="248" y="670" on="0"/>
        <pt x="233" y="670" on="1"/>
        <pt x="173" y="670" on="1"/>
        <pt x="158" y="670" on="0"/>
        <pt x="158" y="655" on="1"/>
        <pt x="158" y="250" on="1"/>
        <pt x="158" y="146" on="0"/>
        <pt x="288" y="20" on="0"/>
        <pt x="488" y="20" on="0"/>
        <pt x="618" y="146" on="0"/>
        <pt x="618" y="250" on="1"/>
        <pt x="618" y="655" on="1"/>
        <pt x="618" y="670" on="0"/>
        <pt x="603" y="670" on="1"/>
        <pt x="543" y="670" on="1"/>
        <pt x="528" y="670" on="0"/>
        <pt x="528" y="700" on="0"/>
        <pt x="543" y="700" on="1"/>
        <pt x="733" y="700" on="1"/>
        <pt x="748" y="700" on="0"/>
        <pt x="748" y="670" on="0"/>
        <pt x="733" y="670" on="1"/>
        <pt x="663" y="670" on="1"/>
        <pt x="648" y="670" on="0"/>
        <pt x="648" y="655" on="1"/>
        <pt x="648" y="250" on="1"/>
        <pt x="648" y="135" on="0"/>
        <pt x="501" y="-10" on="0"/>
        <pt x="275" y="-10" on="0"/>
        <pt x="128" y="135" on="0"/>
        <pt x="128" y="250" on="1"/>
        <pt x="128" y="655" on="1"/>
        <pt x="128" y="670" on="0"/>
        <pt x="113" y="670" on="1"/>
        <pt x="43" y="670" on="1"/>
        <pt x="28" y="670" on="0"/>
        <pt x="28" y="700" on="0"/>
      </contour>
      <contour>
        <pt x="311" y="885" on="1"/>
        <pt x="307" y="890" on="0"/>
        <pt x="307" y="902" on="0"/>
        <pt x="315" y="905" on="1"/>
        <pt x="320" y="910" on="0"/>
        <pt x="332" y="910" on="0"/>
        <pt x="336" y="901" on="1"/>
        <pt x="425" y="774" on="1"/>
        <pt x="429" y="769" on="0"/>
        <pt x="429" y="764" on="1"/>
        <pt x="429" y="759" on="0"/>
        <pt x="422" y="754" on="1"/>
        <pt x="416" y="751" on="0"/>
        <pt x="404" y="751" on="0"/>
        <pt x="401" y="757" on="1"/>
      </contour>
    </TTGlyph>
    <TTGlyph name="V" xMin="-10" yMin="-10" xMax="734" yMax="700">
      <contour>
        <pt x="5" y="700" on="1"/>
        <pt x="195" y="700" on="1"/>
        <pt x="210" y="700" on="0"/>
        <pt x="210" y="670" on="0"/>
        <pt x="195" y="670" on="1"/>
        <pt x="135" y="670" on="1"/>
        <pt x="118" y="670" on="0"/>
        <pt x="125" y="655" on="1"/>
        <pt x="356" y="55" on="1"/>
        <pt x="358" y="49" on="0"/>
        <pt x="366" y="49" on="0"/>
        <pt x="368" y="55" on="1"/>
        <pt x="599" y="655" on="1"/>
        <pt x="606" y="670" on="0"/>
        <pt x="589" y="670" on="1"/>
        <pt x="529" y="670" on="1"/>
        <pt x="514" y="670" on="0"/>
        <pt x="514" y="700" on="0"/>
        <pt x="529" y="700" on="1"/>
        <pt x="719" y="700" on="1"/>
        <pt x="734" y="700" on="0"/>
        <pt x="734" y="670" on="0"/>
        <pt x="719" y="670" on="1"/>
        <pt x="654" y="670" on="1"/>
        <pt x="642" y="670" on="0"/>
        <pt x="634" y="655" on="1"/>
        <pt x="384" y="5" on="1"/>
        <pt x="380" y="-10" on="0"/>
        <pt x="344" y="-10" on="0"/>
        <pt x="340" y="5" on="1"/>
        <pt x="90" y="655" on="1"/>
        <pt x="82" y="670" on="0"/>
        <pt x="70" y="670" on="1"/>
        <pt x="5" y="670" on="1"/>
        <pt x="-10" y="670" on="0"/>
        <pt x="-10" y="700" on="0"/>
      </contour>
    </TTGlyph>
    <TTGlyph name="W" xMin="-10" yMin="-10" xMax="1023" yMax="700">
      <contour>
        <pt x="5" y="700" on="1"/>
        <pt x="195" y="700" on="1"/>
        <pt x="210" y="700" on="0"/>
        <pt x="210" y="670" on="0"/>
        <pt x="195" y="670" on="1"/>
        <pt x="135" y="670" on="1"/>
        <pt x="118" y="670" on="0"/>
        <pt x="125" y="655" on="1"/>
        <pt x="304" y="77" on="1"/>
        <pt x="306" y="71" on="0"/>
        <pt x="314" y="71" on="0"/>
        <pt x="316" y="77" on="1"/>
        <pt x="487" y="685" on="1"/>
        <pt x="492" y="700" on="0"/>
        <pt x="522" y="700" on="0"/>
        <pt x="527" y="685" on="1"/>
        <pt x="697" y="77" on="1"/>
        <pt x="699" y="71" on="0"/>
        <pt x="707" y="71" on="0"/>
        <pt x="709" y="77" on="1"/>
        <pt x="888" y="655" on="1"/>
        <pt x="896" y="670" on="0"/>
        <pt x="878" y="670" on="1"/>
        <pt x="818" y="670" on="1"/>
        <pt x="803" y="670" on="0"/>
        <pt x="803" y="700" on="0"/>
        <pt x="818" y="700" on="1"/>
        <pt x="1008" y="700" on="1"/>
        <pt x="1023" y="700" on="0"/>
        <pt x="1023" y="670" on="0"/>
        <pt x="1008" y="670" on="1"/>
        <pt x="943" y="670" on="1"/>
        <pt x="928" y="670" on="0"/>
        <pt x="923" y="655" on="1"/>
        <pt x="722" y="5" on="1"/>
        <pt x="718" y="-10" on="0"/>
        <pt x="688" y="-10" on="0"/>
        <pt x="684" y="5" on="1"/>
        <pt x="513" y="615" on="1"/>
        <pt x="511" y="621" on="0"/>
        <pt x="501" y="621" on="0"/>
        <pt x="499" y="615" on="1"/>
        <pt x="329" y="5" on="1"/>
        <pt x="324" y="-10" on="0"/>
        <pt x="296" y="-10" on="0"/>
        <pt x="291" y="5" on="1"/>
        <pt x="90" y="655" on="1"/>
        <pt x="86" y="670" on="0"/>
        <pt x="70" y="670" on="1"/>
        <pt x="5" y="670" on="1"/>
        <pt x="-10" y="670" on="0"/>
        <pt x="-10" y="700" on="0"/>
      </contour>
    </TTGlyph>
    <TTGlyph name="X" xMin="7" yMin="0" xMax="654" yMax="700">
      <contour>
        <pt x="22" y="30" on="1"/>
        <pt x="82" y="30" on="1"/>
        <pt x="98" y="30" on="0"/>
        <pt x="107" y="45" on="1"/>
        <pt x="307" y="348" on="1"/>
        <pt x="313" y="357" on="0"/>
        <pt x="307" y="366" on="1"/>
        <pt x="117" y="655" on="1"/>
        <pt x="108" y="670" on="0"/>
        <pt x="92" y="670" on="1"/>
        <pt x="32" y="670" on="1"/>
        <pt x="17" y="670" on="0"/>
        <pt x="17" y="700" on="0"/>
        <pt x="32" y="700" on="1"/>
        <pt x="222" y="700" on="1"/>
        <pt x="237" y="700" on="0"/>
        <pt x="237" y="670" on="0"/>
        <pt x="222" y="670" on="1"/>
        <pt x="162" y="670" on="1"/>
        <pt x="154" y="670" on="0"/>
        <pt x="148" y="661" on="0"/>
        <pt x="152" y="655" on="1"/>
        <pt x="323" y="395" on="1"/>
        <pt x="330" y="385" on="0"/>
        <pt x="337" y="395" on="1"/>
        <pt x="509" y="655" on="1"/>
        <pt x="513" y="661" on="0"/>
        <pt x="507" y="670" on="0"/>
        <pt x="499" y="670" on="1"/>
        <pt x="439" y="670" on="1"/>
        <pt x="424" y="670" on="0"/>
        <pt x="424" y="700" on="0"/>
        <pt x="439" y="700" on="1"/>
        <pt x="629" y="700" on="1"/>
        <pt x="644" y="700" on="0"/>
        <pt x="644" y="670" on="0"/>
        <pt x="629" y="670" on="1"/>
        <pt x="569" y="670" on="1"/>
        <pt x="553" y="670" on="0"/>
        <pt x="544" y="655" on="1"/>
        <pt x="354" y="366" on="1"/>
        <pt x="348" y="357" on="0"/>
        <pt x="354" y="348" on="1"/>
        <pt x="554" y="45" on="1"/>
        <pt x="563" y="30" on="0"/>
        <pt x="579" y="30" on="1"/>
        <pt x="639" y="30" on="1"/>
        <pt x="654" y="30" on="0"/>
        <pt x="654" y="0" on="0"/>
        <pt x="639" y="0" on="1"/>
        <pt x="449" y="0" on="1"/>
        <pt x="434" y="0" on="0"/>
        <pt x="434" y="30" on="0"/>
        <pt x="449" y="30" on="1"/>
        <pt x="509" y="30" on="1"/>
        <pt x="517" y="30" on="0"/>
        <pt x="523" y="39" on="0"/>
        <pt x="519" y="45" on="1"/>
        <pt x="337" y="320" on="1"/>
        <pt x="330" y="330" on="0"/>
        <pt x="323" y="320" on="1"/>
        <pt x="142" y="45" on="1"/>
        <pt x="138" y="39" on="0"/>
        <pt x="144" y="30" on="0"/>
        <pt x="152" y="30" on="1"/>
        <pt x="212" y="30" on="1"/>
        <pt x="227" y="30" on="0"/>
        <pt x="227" y="0" on="0"/>
        <pt x="212" y="0" on="1"/>
        <pt x="22" y="0" on="1"/>
        <pt x="7" y="0" on="0"/>
        <pt x="7" y="30" on="0"/>
      </contour>
    </TTGlyph>
    <TTGlyph name="Y" xMin="-10" yMin="0" xMax="637" yMax="700">
      <contour>
        <pt x="5" y="700" on="1"/>
        <pt x="195" y="700" on="1"/>
        <pt x="210" y="700" on="0"/>
        <pt x="210" y="670" on="0"/>
        <pt x="195" y="670" on="1"/>
        <pt x="135" y="670" on="1"/>
        <pt x="127" y="670" on="0"/>
        <pt x="121" y="661" on="0"/>
        <pt x="125" y="655" on="1"/>
        <pt x="306" y="339" on="1"/>
        <pt x="313" y="329" on="0"/>
        <pt x="320" y="339" on="1"/>
        <pt x="502" y="655" on="1"/>
        <pt x="506" y="661" on="0"/>
        <pt x="500" y="670" on="0"/>
        <pt x="492" y="670" on="1"/>
        <pt x="432" y="670" on="1"/>
        <pt x="417" y="670" on="0"/>
        <pt x="417" y="700" on="0"/>
        <pt x="432" y="700" on="1"/>
        <pt x="622" y="700" on="1"/>
        <pt x="637" y="700" on="0"/>
        <pt x="637" y="670" on="0"/>
        <pt x="622" y="670" on="1"/>
        <pt x="562" y="670" on="1"/>
        <pt x="546" y="670" on="0"/>
        <pt x="537" y="655" on="1"/>
        <pt x="329" y="294" on="1"/>
        <pt x="329" y="45" on="1"/>
        <pt x="329" y="30" on="0"/>
        <pt x="344" y="30" on="1"/>
        <pt x="414" y="30" on="1"/>
        <pt x="429" y="30" on="0"/>
        <pt x="429" y="0" on="0"/>
        <pt x="414" y="0" on="1"/>
        <pt x="214" y="0" on="1"/>
        <pt x="199" y="0" on="0"/>
        <pt x="199" y="30" on="0"/>
        <pt x="214" y="30" on="1"/>
        <pt x="284" y="30" on="1"/>
        <pt x="299" y="30" on="0"/>
        <pt x="299" y="45" on="1"/>
        <pt x="299" y="292" on="1"/>
        <pt x="90" y="655" on="1"/>
        <pt x="81" y="670" on="0"/>
        <pt x="65" y="670" on="1"/>
        <pt x="5" y="670" on="1"/>
        <pt x="-10" y="670" on="0"/>
        <pt x="-10" y="700" on="0"/>
      </contour>
    </TTGlyph>
    <TTGlyph name="Yacute" xMin="-10" yMin="0" xMax="637" yMax="910">
      <contour>
        <pt x="5" y="700" on="1"/>
        <pt x="195" y="700" on="1"/>
        <pt x="210" y="700" on="0"/>
        <pt x="210" y="670" on="0"/>
        <pt x="195" y="670" on="1"/>
        <pt x="135" y="670" on="1"/>
        <pt x="127" y="670" on="0"/>
        <pt x="121" y="661" on="0"/>
        <pt x="125" y="655" on="1"/>
        <pt x="306" y="339" on="1"/>
        <pt x="313" y="329" on="0"/>
        <pt x="320" y="339" on="1"/>
        <pt x="502" y="655" on="1"/>
        <pt x="506" y="661" on="0"/>
        <pt x="500" y="670" on="0"/>
        <pt x="492" y="670" on="1"/>
        <pt x="432" y="670" on="1"/>
        <pt x="417" y="670" on="0"/>
        <pt x="417" y="700" on="0"/>
        <pt x="432" y="700" on="1"/>
        <pt x="622" y="700" on="1"/>
        <pt x="637" y="700" on="0"/>
        <pt x="637" y="670" on="0"/>
        <pt x="622" y="670" on="1"/>
        <pt x="562" y="670" on="1"/>
        <pt x="546" y="670" on="0"/>
        <pt x="537" y="655" on="1"/>
        <pt x="329" y="294" on="1"/>
        <pt x="329" y="45" on="1"/>
        <pt x="329" y="30" on="0"/>
        <pt x="344" y="30" on="1"/>
        <pt x="414" y="30" on="1"/>
        <pt x="429" y="30" on="0"/>
        <pt x="429" y="0" on="0"/>
        <pt x="414" y="0" on="1"/>
        <pt x="214" y="0" on="1"/>
        <pt x="199" y="0" on="0"/>
        <pt x="199" y="30" on="0"/>
        <pt x="214" y="30" on="1"/>
        <pt x="284" y="30" on="1"/>
        <pt x="299" y="30" on="0"/>
        <pt x="299" y="45" on="1"/>
        <pt x="299" y="292" on="1"/>
        <pt x="90" y="655" on="1"/>
        <pt x="81" y="670" on="0"/>
        <pt x="65" y="670" on="1"/>
        <pt x="5" y="670" on="1"/>
        <pt x="-10" y="670" on="0"/>
        <pt x="-10" y="700" on="0"/>
      </contour>
      <contour>
        <pt x="306" y="774" on="1"/>
        <pt x="395" y="901" on="1"/>
        <pt x="400" y="910" on="0"/>
        <pt x="412" y="910" on="0"/>
        <pt x="416" y="905" on="1"/>
        <pt x="424" y="902" on="0"/>
        <pt x="424" y="890" on="0"/>
        <pt x="420" y="885" on="1"/>
        <pt x="330" y="757" on="1"/>
        <pt x="326" y="751" on="0"/>
        <pt x="314" y="751" on="0"/>
        <pt x="309" y="754" on="1"/>
        <pt x="302" y="759" on="0"/>
        <pt x="302" y="764" on="1"/>
        <pt x="302" y="769" on="0"/>
      </contour>
    </TTGlyph>
    <TTGlyph name="Ydieresis" xMin="-10" yMin="0" xMax="637" yMax="850">
      <contour>
        <pt x="5" y="700" on="1"/>
        <pt x="195" y="700" on="1"/>
        <pt x="210" y="700" on="0"/>
        <pt x="210" y="670" on="0"/>
        <pt x="195" y="670" on="1"/>
        <pt x="135" y="670" on="1"/>
        <pt x="127" y="670" on="0"/>
        <pt x="121" y="661" on="0"/>
        <pt x="125" y="655" on="1"/>
        <pt x="306" y="339" on="1"/>
        <pt x="313" y="329" on="0"/>
        <pt x="320" y="339" on="1"/>
        <pt x="502" y="655" on="1"/>
        <pt x="506" y="661" on="0"/>
        <pt x="500" y="670" on="0"/>
        <pt x="492" y="670" on="1"/>
        <pt x="432" y="670" on="1"/>
        <pt x="417" y="670" on="0"/>
        <pt x="417" y="700" on="0"/>
        <pt x="432" y="700" on="1"/>
        <pt x="622" y="700" on="1"/>
        <pt x="637" y="700" on="0"/>
        <pt x="637" y="670" on="0"/>
        <pt x="622" y="670" on="1"/>
        <pt x="562" y="670" on="1"/>
        <pt x="546" y="670" on="0"/>
        <pt x="537" y="655" on="1"/>
        <pt x="329" y="294" on="1"/>
        <pt x="329" y="45" on="1"/>
        <pt x="329" y="30" on="0"/>
        <pt x="344" y="30" on="1"/>
        <pt x="414" y="30" on="1"/>
        <pt x="429" y="30" on="0"/>
        <pt x="429" y="0" on="0"/>
        <pt x="414" y="0" on="1"/>
        <pt x="214" y="0" on="1"/>
        <pt x="199" y="0" on="0"/>
        <pt x="199" y="30" on="0"/>
        <pt x="214" y="30" on="1"/>
        <pt x="284" y="30" on="1"/>
        <pt x="299" y="30" on="0"/>
        <pt x="299" y="45" on="1"/>
        <pt x="299" y="292" on="1"/>
        <pt x="90" y="655" on="1"/>
        <pt x="81" y="670" on="0"/>
        <pt x="65" y="670" on="1"/>
        <pt x="5" y="670" on="1"/>
        <pt x="-10" y="670" on="0"/>
        <pt x="-10" y="700" on="0"/>
      </contour>
      <contour>
        <pt x="204" y="781" on="1"/>
        <pt x="193" y="793" on="0"/>
        <pt x="193" y="827" on="0"/>
        <pt x="216" y="850" on="0"/>
        <pt x="250" y="850" on="0"/>
        <pt x="273" y="827" on="0"/>
        <pt x="273" y="793" on="0"/>
        <pt x="250" y="770" on="0"/>
        <pt x="216" y="770" on="0"/>
      </contour>
      <contour>
        <pt x="364" y="781" on="1"/>
        <pt x="353" y="793" on="0"/>
        <pt x="353" y="827" on="0"/>
        <pt x="376" y="850" on="0"/>
        <pt x="410" y="850" on="0"/>
        <pt x="433" y="827" on="0"/>
        <pt x="433" y="793" on="0"/>
        <pt x="410" y="770" on="0"/>
        <pt x="376" y="770" on="0"/>
      </contour>
    </TTGlyph>
    <TTGlyph name="Z" xMin="50" yMin="0" xMax="565" yMax="700">
      <contour>
        <pt x="50" y="17" on="1"/>
        <pt x="50" y="21" on="0"/>
        <pt x="62" y="40" on="1"/>
        <pt x="511" y="654" on="1"/>
        <pt x="517" y="660" on="0"/>
        <pt x="511" y="670" on="0"/>
        <pt x="500" y="670" on="1"/>
        <pt x="100" y="670" on="1"/>
        <pt x="85" y="670" on="0"/>
        <pt x="85" y="655" on="1"/>
        <pt x="85" y="545" on="1"/>
        <pt x="85" y="530" on="0"/>
        <pt x="55" y="530" on="0"/>
        <pt x="55" y="545" on="1"/>
        <pt x="55" y="685" on="1"/>
        <pt x="55" y="700" on="0"/>
        <pt x="70" y="700" on="1"/>
        <pt x="550" y="700" on="1"/>
        <pt x="565" y="700" on="0"/>
        <pt x="565" y="683" on="1"/>
        <pt x="565" y="679" on="0"/>
        <pt x="553" y="660" on="1"/>
        <pt x="104" y="46" on="1"/>
        <pt x="98" y="40" on="0"/>
        <pt x="104" y="30" on="0"/>
        <pt x="115" y="30" on="1"/>
        <pt x="515" y="30" on="1"/>
        <pt x="530" y="30" on="0"/>
        <pt x="530" y="45" on="1"/>
        <pt x="530" y="155" on="1"/>
        <pt x="530" y="170" on="0"/>
        <pt x="560" y="170" on="0"/>
        <pt x="560" y="155" on="1"/>
        <pt x="560" y="15" on="1"/>
        <pt x="560" y="0" on="0"/>
        <pt x="545" y="0" on="1"/>
        <pt x="65" y="0" on="1"/>
        <pt x="50" y="0" on="0"/>
      </contour>
    </TTGlyph>
    <TTGlyph name="Zcaron" xMin="50" yMin="0" xMax="565" yMax="919">
      <contour>
        <pt x="100" y="670" on="1"/>
        <pt x="85" y="670" on="0"/>
        <pt x="85" y="655" on="1"/>
        <pt x="85" y="545" on="1"/>
        <pt x="85" y="530" on="0"/>
        <pt x="70" y="530" on="1"/>
        <pt x="55" y="530" on="0"/>
        <pt x="55" y="545" on="1"/>
        <pt x="55" y="685" on="1"/>
        <pt x="55" y="700" on="0"/>
        <pt x="70" y="700" on="1"/>
        <pt x="550" y="700" on="1"/>
        <pt x="565" y="700" on="0"/>
        <pt x="565" y="683" on="1"/>
        <pt x="565" y="677" on="0"/>
        <pt x="558" y="668" on="0"/>
        <pt x="553" y="660" on="1"/>
        <pt x="104" y="46" on="1"/>
        <pt x="99" y="40" on="0"/>
        <pt x="103" y="30" on="0"/>
        <pt x="115" y="30" on="1"/>
        <pt x="515" y="30" on="1"/>
        <pt x="530" y="30" on="0"/>
        <pt x="530" y="45" on="1"/>
        <pt x="530" y="155" on="1"/>
        <pt x="530" y="170" on="0"/>
        <pt x="545" y="170" on="1"/>
        <pt x="560" y="170" on="0"/>
        <pt x="560" y="155" on="1"/>
        <pt x="560" y="15" on="1"/>
        <pt x="560" y="0" on="0"/>
        <pt x="545" y="0" on="1"/>
        <pt x="65" y="0" on="1"/>
        <pt x="50" y="0" on="0"/>
        <pt x="50" y="17" on="1"/>
        <pt x="50" y="23" on="0"/>
        <pt x="57" y="32" on="0"/>
        <pt x="62" y="40" on="1"/>
        <pt x="511" y="654" on="1"/>
        <pt x="516" y="660" on="0"/>
        <pt x="512" y="670" on="0"/>
        <pt x="500" y="670" on="1"/>
      </contour>
      <contour>
        <pt x="305" y="819" on="1"/>
        <pt x="314" y="810" on="0"/>
        <pt x="323" y="819" on="1"/>
        <pt x="419" y="914" on="1"/>
        <pt x="424" y="919" on="0"/>
        <pt x="434" y="919" on="0"/>
        <pt x="440" y="914" on="1"/>
        <pt x="445" y="909" on="0"/>
        <pt x="445" y="898" on="0"/>
        <pt x="440" y="893" on="1"/>
        <pt x="330" y="783" on="1"/>
        <pt x="323" y="776" on="0"/>
        <pt x="305" y="776" on="0"/>
        <pt x="297" y="784" on="1"/>
        <pt x="190" y="893" on="1"/>
        <pt x="184" y="898" on="0"/>
        <pt x="184" y="908" on="0"/>
        <pt x="190" y="914" on="1"/>
        <pt x="195" y="919" on="0"/>
        <pt x="205" y="919" on="0"/>
        <pt x="211" y="914" on="1"/>
      </contour>
    </TTGlyph>
    <TTGlyph name="a" xMin="41" yMin="-10" xMax="551" yMax="510">
      <contour>
        <pt x="421" y="245" on="1"/>
        <pt x="421" y="260" on="0"/>
        <pt x="406" y="260" on="1"/>
        <pt x="241" y="260" on="1"/>
        <pt x="154" y="260" on="0"/>
        <pt x="71" y="192" on="0"/>
        <pt x="71" y="87" on="0"/>
        <pt x="148" y="20" on="0"/>
        <pt x="226" y="20" on="1"/>
        <pt x="323" y="20" on="0"/>
        <pt x="397" y="118" on="1"/>
        <pt x="410" y="135" on="0"/>
        <pt x="421" y="155" on="1"/>
      </contour>
      <contour>
        <pt x="265" y="510" on="1"/>
        <pt x="349" y="510" on="0"/>
        <pt x="451" y="415" on="0"/>
        <pt x="451" y="345" on="1"/>
        <pt x="451" y="45" on="1"/>
        <pt x="451" y="30" on="0"/>
        <pt x="466" y="30" on="1"/>
        <pt x="536" y="30" on="1"/>
        <pt x="551" y="30" on="0"/>
        <pt x="551" y="15" on="1"/>
        <pt x="551" y="0" on="0"/>
        <pt x="536" y="0" on="1"/>
        <pt x="436" y="0" on="1"/>
        <pt x="421" y="0" on="0"/>
        <pt x="421" y="15" on="1"/>
        <pt x="421" y="71" on="1"/>
        <pt x="421" y="81" on="0"/>
        <pt x="413" y="89" on="0"/>
        <pt x="405" y="81" on="1"/>
        <pt x="378" y="47" on="0"/>
        <pt x="282" y="-10" on="0"/>
        <pt x="230" y="-10" on="1"/>
        <pt x="137" y="-10" on="0"/>
        <pt x="41" y="73" on="0"/>
        <pt x="41" y="205" on="0"/>
        <pt x="151" y="290" on="0"/>
        <pt x="241" y="290" on="1"/>
        <pt x="406" y="290" on="1"/>
        <pt x="421" y="290" on="0"/>
        <pt x="421" y="305" on="1"/>
        <pt x="421" y="345" on="1"/>
        <pt x="421" y="403" on="0"/>
        <pt x="333" y="480" on="0"/>
        <pt x="205" y="480" on="0"/>
        <pt x="123" y="445" on="0"/>
        <pt x="90" y="419" on="0"/>
        <pt x="73" y="443" on="0"/>
        <pt x="84" y="451" on="1"/>
        <pt x="156" y="510" on="0"/>
      </contour>
    </TTGlyph>
    <TTGlyph name="aacute" xMin="41" yMin="-10" xMax="551" yMax="730">
      <contour>
        <pt x="250" y="594" on="1"/>
        <pt x="339" y="721" on="1"/>
        <pt x="344" y="730" on="0"/>
        <pt x="355" y="730" on="0"/>
        <pt x="360" y="725" on="1"/>
        <pt x="368" y="721" on="0"/>
        <pt x="368" y="710" on="0"/>
        <pt x="364" y="705" on="1"/>
        <pt x="274" y="577" on="1"/>
        <pt x="269" y="571" on="0"/>
        <pt x="258" y="571" on="0"/>
        <pt x="253" y="574" on="1"/>
        <pt x="246" y="579" on="0"/>
        <pt x="246" y="584" on="1"/>
        <pt x="246" y="589" on="0"/>
      </contour>
      <contour>
        <pt x="421" y="245" on="1"/>
        <pt x="421" y="260" on="0"/>
        <pt x="406" y="260" on="1"/>
        <pt x="241" y="260" on="1"/>
        <pt x="154" y="260" on="0"/>
        <pt x="71" y="192" on="0"/>
        <pt x="71" y="87" on="0"/>
        <pt x="148" y="20" on="0"/>
        <pt x="226" y="20" on="1"/>
        <pt x="323" y="20" on="0"/>
        <pt x="397" y="118" on="1"/>
        <pt x="410" y="135" on="0"/>
        <pt x="421" y="155" on="1"/>
      </contour>
      <contour>
        <pt x="265" y="510" on="1"/>
        <pt x="349" y="510" on="0"/>
        <pt x="451" y="415" on="0"/>
        <pt x="451" y="345" on="1"/>
        <pt x="451" y="45" on="1"/>
        <pt x="451" y="30" on="0"/>
        <pt x="466" y="30" on="1"/>
        <pt x="536" y="30" on="1"/>
        <pt x="551" y="30" on="0"/>
        <pt x="551" y="15" on="1"/>
        <pt x="551" y="0" on="0"/>
        <pt x="536" y="0" on="1"/>
        <pt x="436" y="0" on="1"/>
        <pt x="421" y="0" on="0"/>
        <pt x="421" y="15" on="1"/>
        <pt x="421" y="71" on="1"/>
        <pt x="421" y="81" on="0"/>
        <pt x="413" y="89" on="0"/>
        <pt x="405" y="81" on="1"/>
        <pt x="378" y="47" on="0"/>
        <pt x="282" y="-10" on="0"/>
        <pt x="230" y="-10" on="1"/>
        <pt x="137" y="-10" on="0"/>
        <pt x="41" y="73" on="0"/>
        <pt x="41" y="205" on="0"/>
        <pt x="151" y="290" on="0"/>
        <pt x="241" y="290" on="1"/>
        <pt x="406" y="290" on="1"/>
        <pt x="421" y="290" on="0"/>
        <pt x="421" y="305" on="1"/>
        <pt x="421" y="345" on="1"/>
        <pt x="421" y="403" on="0"/>
        <pt x="333" y="480" on="0"/>
        <pt x="205" y="480" on="0"/>
        <pt x="123" y="445" on="0"/>
        <pt x="90" y="419" on="0"/>
        <pt x="73" y="443" on="0"/>
        <pt x="84" y="451" on="1"/>
        <pt x="156" y="510" on="0"/>
      </contour>
    </TTGlyph>
    <TTGlyph name="acircumflex" xMin="41" yMin="-10" xMax="551" yMax="705">
      <contour>
        <pt x="142" y="587" on="1"/>
        <pt x="249" y="696" on="1"/>
        <pt x="258" y="705" on="0"/>
        <pt x="266" y="705" on="1"/>
        <pt x="274" y="705" on="0"/>
        <pt x="282" y="697" on="1"/>
        <pt x="392" y="587" on="1"/>
        <pt x="397" y="581" on="0"/>
        <pt x="397" y="571" on="0"/>
        <pt x="387" y="561" on="0"/>
        <pt x="376" y="561" on="0"/>
        <pt x="371" y="566" on="1"/>
        <pt x="275" y="661" on="1"/>
        <pt x="266" y="670" on="0"/>
        <pt x="257" y="661" on="1"/>
        <pt x="163" y="566" on="1"/>
        <pt x="157" y="561" on="0"/>
        <pt x="147" y="561" on="0"/>
        <pt x="137" y="571" on="0"/>
        <pt x="137" y="581" on="0"/>
      </contour>
      <contour>
        <pt x="421" y="245" on="1"/>
        <pt x="421" y="260" on="0"/>
        <pt x="406" y="260" on="1"/>
        <pt x="241" y="260" on="1"/>
        <pt x="154" y="260" on="0"/>
        <pt x="71" y="192" on="0"/>
        <pt x="71" y="87" on="0"/>
        <pt x="148" y="20" on="0"/>
        <pt x="226" y="20" on="1"/>
        <pt x="323" y="20" on="0"/>
        <pt x="397" y="118" on="1"/>
        <pt x="410" y="135" on="0"/>
        <pt x="421" y="155" on="1"/>
      </contour>
      <contour>
        <pt x="265" y="510" on="1"/>
        <pt x="349" y="510" on="0"/>
        <pt x="451" y="415" on="0"/>
        <pt x="451" y="345" on="1"/>
        <pt x="451" y="45" on="1"/>
        <pt x="451" y="30" on="0"/>
        <pt x="466" y="30" on="1"/>
        <pt x="536" y="30" on="1"/>
        <pt x="551" y="30" on="0"/>
        <pt x="551" y="15" on="1"/>
        <pt x="551" y="0" on="0"/>
        <pt x="536" y="0" on="1"/>
        <pt x="436" y="0" on="1"/>
        <pt x="421" y="0" on="0"/>
        <pt x="421" y="15" on="1"/>
        <pt x="421" y="71" on="1"/>
        <pt x="421" y="81" on="0"/>
        <pt x="413" y="89" on="0"/>
        <pt x="405" y="81" on="1"/>
        <pt x="378" y="47" on="0"/>
        <pt x="282" y="-10" on="0"/>
        <pt x="230" y="-10" on="1"/>
        <pt x="137" y="-10" on="0"/>
        <pt x="41" y="73" on="0"/>
        <pt x="41" y="205" on="0"/>
        <pt x="151" y="290" on="0"/>
        <pt x="241" y="290" on="1"/>
        <pt x="406" y="290" on="1"/>
        <pt x="421" y="290" on="0"/>
        <pt x="421" y="305" on="1"/>
        <pt x="421" y="345" on="1"/>
        <pt x="421" y="403" on="0"/>
        <pt x="333" y="480" on="0"/>
        <pt x="205" y="480" on="0"/>
        <pt x="123" y="445" on="0"/>
        <pt x="90" y="419" on="0"/>
        <pt x="73" y="443" on="0"/>
        <pt x="84" y="451" on="1"/>
        <pt x="156" y="510" on="0"/>
      </contour>
    </TTGlyph>
    <TTGlyph name="acute" xMin="0" yMin="561" xMax="122" yMax="720">
      <contour>
        <pt x="4" y="584" on="1"/>
        <pt x="93" y="711" on="1"/>
        <pt x="98" y="720" on="0"/>
        <pt x="104" y="720" on="1"/>
        <pt x="109" y="720" on="0"/>
        <pt x="114" y="715" on="1"/>
        <pt x="122" y="711" on="0"/>
        <pt x="122" y="701" on="0"/>
        <pt x="118" y="695" on="1"/>
        <pt x="28" y="567" on="1"/>
        <pt x="23" y="561" on="0"/>
        <pt x="17" y="561" on="1"/>
        <pt x="12" y="561" on="0"/>
        <pt x="0" y="569" on="0"/>
        <pt x="0" y="579" on="0"/>
      </contour>
    </TTGlyph>
    <TTGlyph name="adieresis" xMin="41" yMin="-10" xMax="551" yMax="650">
      <contour>
        <pt x="168" y="581" on="1"/>
        <pt x="157" y="593" on="0"/>
        <pt x="157" y="627" on="0"/>
        <pt x="180" y="650" on="0"/>
        <pt x="214" y="650" on="0"/>
        <pt x="237" y="627" on="0"/>
        <pt x="237" y="593" on="0"/>
        <pt x="214" y="570" on="0"/>
        <pt x="180" y="570" on="0"/>
      </contour>
      <contour>
        <pt x="328" y="581" on="1"/>
        <pt x="317" y="593" on="0"/>
        <pt x="317" y="627" on="0"/>
        <pt x="340" y="650" on="0"/>
        <pt x="374" y="650" on="0"/>
        <pt x="397" y="627" on="0"/>
        <pt x="397" y="593" on="0"/>
        <pt x="374" y="570" on="0"/>
        <pt x="340" y="570" on="0"/>
      </contour>
      <contour>
        <pt x="421" y="245" on="1"/>
        <pt x="421" y="260" on="0"/>
        <pt x="406" y="260" on="1"/>
        <pt x="241" y="260" on="1"/>
        <pt x="154" y="260" on="0"/>
        <pt x="71" y="192" on="0"/>
        <pt x="71" y="87" on="0"/>
        <pt x="148" y="20" on="0"/>
        <pt x="226" y="20" on="1"/>
        <pt x="323" y="20" on="0"/>
        <pt x="397" y="118" on="1"/>
        <pt x="410" y="135" on="0"/>
        <pt x="421" y="155" on="1"/>
      </contour>
      <contour>
        <pt x="265" y="510" on="1"/>
        <pt x="349" y="510" on="0"/>
        <pt x="451" y="415" on="0"/>
        <pt x="451" y="345" on="1"/>
        <pt x="451" y="45" on="1"/>
        <pt x="451" y="30" on="0"/>
        <pt x="466" y="30" on="1"/>
        <pt x="536" y="30" on="1"/>
        <pt x="551" y="30" on="0"/>
        <pt x="551" y="15" on="1"/>
        <pt x="551" y="0" on="0"/>
        <pt x="536" y="0" on="1"/>
        <pt x="436" y="0" on="1"/>
        <pt x="421" y="0" on="0"/>
        <pt x="421" y="15" on="1"/>
        <pt x="421" y="71" on="1"/>
        <pt x="421" y="81" on="0"/>
        <pt x="413" y="89" on="0"/>
        <pt x="405" y="81" on="1"/>
        <pt x="378" y="47" on="0"/>
        <pt x="282" y="-10" on="0"/>
        <pt x="230" y="-10" on="1"/>
        <pt x="137" y="-10" on="0"/>
        <pt x="41" y="73" on="0"/>
        <pt x="41" y="205" on="0"/>
        <pt x="151" y="290" on="0"/>
        <pt x="241" y="290" on="1"/>
        <pt x="406" y="290" on="1"/>
        <pt x="421" y="290" on="0"/>
        <pt x="421" y="305" on="1"/>
        <pt x="421" y="345" on="1"/>
        <pt x="421" y="403" on="0"/>
        <pt x="333" y="480" on="0"/>
        <pt x="205" y="480" on="0"/>
        <pt x="123" y="445" on="0"/>
        <pt x="90" y="419" on="0"/>
        <pt x="73" y="443" on="0"/>
        <pt x="84" y="451" on="1"/>
        <pt x="156" y="510" on="0"/>
      </contour>
    </TTGlyph>
    <TTGlyph name="ae" xMin="42" yMin="-10" xMax="892" yMax="510">
      <contour>
        <pt x="432" y="245" on="1"/>
        <pt x="432" y="260" on="0"/>
        <pt x="417" y="260" on="1"/>
        <pt x="242" y="260" on="1"/>
        <pt x="72" y="260" on="0"/>
        <pt x="72" y="140" on="1"/>
        <pt x="72" y="20" on="0"/>
        <pt x="232" y="20" on="1"/>
        <pt x="333" y="20" on="0"/>
        <pt x="408" y="118" on="1"/>
        <pt x="421" y="135" on="0"/>
        <pt x="432" y="155" on="1"/>
      </contour>
      <contour>
        <pt x="466" y="305" on="1"/>
        <pt x="463" y="290" on="0"/>
        <pt x="480" y="290" on="1"/>
        <pt x="847" y="290" on="1"/>
        <pt x="862" y="290" on="0"/>
        <pt x="862" y="305" on="1"/>
        <pt x="862" y="371" on="0"/>
        <pt x="745" y="480" on="0"/>
        <pt x="575" y="480" on="0"/>
        <pt x="518" y="416" on="1"/>
        <pt x="497" y="392" on="0"/>
        <pt x="471" y="343" on="0"/>
      </contour>
      <contour>
        <pt x="85" y="451" on="1"/>
        <pt x="156" y="510" on="0"/>
        <pt x="274" y="510" on="1"/>
        <pt x="346" y="510" on="0"/>
        <pt x="446" y="437" on="0"/>
        <pt x="458" y="380" on="1"/>
        <pt x="488" y="441" on="0"/>
        <pt x="595" y="510" on="0"/>
        <pt x="662" y="510" on="1"/>
        <pt x="759" y="510" on="0"/>
        <pt x="892" y="384" on="0"/>
        <pt x="892" y="305" on="1"/>
        <pt x="892" y="290" on="1"/>
        <pt x="892" y="260" on="0"/>
        <pt x="862" y="260" on="1"/>
        <pt x="477" y="260" on="1"/>
        <pt x="462" y="260" on="0"/>
        <pt x="462" y="245" on="1"/>
        <pt x="462" y="147" on="0"/>
        <pt x="573" y="20" on="0"/>
        <pt x="665" y="20" on="1"/>
        <pt x="756" y="20" on="0"/>
        <pt x="818" y="70" on="1"/>
        <pt x="834" y="82" on="0"/>
        <pt x="852" y="98" on="0"/>
        <pt x="862" y="93" on="0"/>
        <pt x="877" y="76" on="0"/>
        <pt x="865" y="66" on="1"/>
        <pt x="829" y="35" on="0"/>
        <pt x="735" y="-10" on="0"/>
        <pt x="590" y="-10" on="0"/>
        <pt x="479" y="66" on="0"/>
        <pt x="453" y="133" on="1"/>
        <pt x="418" y="71" on="0"/>
        <pt x="295" y="-10" on="0"/>
        <pt x="232" y="-10" on="1"/>
        <pt x="135" y="-10" on="0"/>
        <pt x="42" y="68" on="0"/>
        <pt x="42" y="210" on="0"/>
        <pt x="145" y="290" on="0"/>
        <pt x="242" y="290" on="1"/>
        <pt x="417" y="290" on="1"/>
        <pt x="432" y="290" on="0"/>
        <pt x="432" y="305" on="1"/>
        <pt x="432" y="345" on="1"/>
        <pt x="432" y="403" on="0"/>
        <pt x="342" y="480" on="0"/>
        <pt x="206" y="480" on="0"/>
        <pt x="124" y="445" on="0"/>
        <pt x="91" y="419" on="0"/>
        <pt x="74" y="443" on="0"/>
      </contour>
    </TTGlyph>
    <TTGlyph name="agrave" xMin="41" yMin="-10" xMax="551" yMax="730">
      <contour>
        <pt x="170" y="705" on="1"/>
        <pt x="166" y="710" on="0"/>
        <pt x="166" y="721" on="0"/>
        <pt x="174" y="725" on="1"/>
        <pt x="179" y="730" on="0"/>
        <pt x="190" y="730" on="0"/>
        <pt x="195" y="721" on="1"/>
        <pt x="284" y="594" on="1"/>
        <pt x="288" y="589" on="0"/>
        <pt x="288" y="584" on="1"/>
        <pt x="288" y="579" on="0"/>
        <pt x="281" y="574" on="1"/>
        <pt x="276" y="571" on="0"/>
        <pt x="265" y="571" on="0"/>
        <pt x="260" y="577" on="1"/>
      </contour>
      <contour>
        <pt x="421" y="245" on="1"/>
        <pt x="421" y="260" on="0"/>
        <pt x="406" y="260" on="1"/>
        <pt x="241" y="260" on="1"/>
        <pt x="154" y="260" on="0"/>
        <pt x="71" y="192" on="0"/>
        <pt x="71" y="87" on="0"/>
        <pt x="148" y="20" on="0"/>
        <pt x="226" y="20" on="1"/>
        <pt x="323" y="20" on="0"/>
        <pt x="397" y="118" on="1"/>
        <pt x="410" y="135" on="0"/>
        <pt x="421" y="155" on="1"/>
      </contour>
      <contour>
        <pt x="265" y="510" on="1"/>
        <pt x="349" y="510" on="0"/>
        <pt x="451" y="415" on="0"/>
        <pt x="451" y="345" on="1"/>
        <pt x="451" y="45" on="1"/>
        <pt x="451" y="30" on="0"/>
        <pt x="466" y="30" on="1"/>
        <pt x="536" y="30" on="1"/>
        <pt x="551" y="30" on="0"/>
        <pt x="551" y="15" on="1"/>
        <pt x="551" y="0" on="0"/>
        <pt x="536" y="0" on="1"/>
        <pt x="436" y="0" on="1"/>
        <pt x="421" y="0" on="0"/>
        <pt x="421" y="15" on="1"/>
        <pt x="421" y="71" on="1"/>
        <pt x="421" y="81" on="0"/>
        <pt x="413" y="89" on="0"/>
        <pt x="405" y="81" on="1"/>
        <pt x="378" y="47" on="0"/>
        <pt x="282" y="-10" on="0"/>
        <pt x="230" y="-10" on="1"/>
        <pt x="137" y="-10" on="0"/>
        <pt x="41" y="73" on="0"/>
        <pt x="41" y="205" on="0"/>
        <pt x="151" y="290" on="0"/>
        <pt x="241" y="290" on="1"/>
        <pt x="406" y="290" on="1"/>
        <pt x="421" y="290" on="0"/>
        <pt x="421" y="305" on="1"/>
        <pt x="421" y="345" on="1"/>
        <pt x="421" y="403" on="0"/>
        <pt x="333" y="480" on="0"/>
        <pt x="205" y="480" on="0"/>
        <pt x="123" y="445" on="0"/>
        <pt x="90" y="419" on="0"/>
        <pt x="73" y="443" on="0"/>
        <pt x="84" y="451" on="1"/>
        <pt x="156" y="510" on="0"/>
      </contour>
    </TTGlyph>
    <TTGlyph name="ampersand" xMin="45" yMin="-20" xMax="695" yMax="710">
      <contour>
        <pt x="75" y="170" on="1"/>
        <pt x="75" y="99" on="0"/>
        <pt x="121" y="54" on="1"/>
        <pt x="168" y="10" on="0"/>
        <pt x="240" y="10" on="1"/>
        <pt x="370" y="10" on="0"/>
        <pt x="459" y="121" on="1"/>
        <pt x="465" y="128" on="0"/>
        <pt x="465" y="139" on="0"/>
        <pt x="460" y="144" on="1"/>
        <pt x="286" y="340" on="1"/>
        <pt x="282" y="347" on="0"/>
        <pt x="269" y="347" on="0"/>
        <pt x="261" y="345" on="1"/>
        <pt x="75" y="295" on="0"/>
      </contour>
      <contour>
        <pt x="340" y="710" on="1"/>
        <pt x="397" y="710" on="0"/>
        <pt x="488" y="656" on="0"/>
        <pt x="514" y="614" on="1"/>
        <pt x="521" y="603" on="0"/>
        <pt x="496" y="588" on="0"/>
        <pt x="486" y="601" on="1"/>
        <pt x="457" y="638" on="0"/>
        <pt x="389" y="680" on="0"/>
        <pt x="271" y="680" on="0"/>
        <pt x="190" y="611" on="0"/>
        <pt x="190" y="560" on="1"/>
        <pt x="190" y="495" on="0"/>
        <pt x="266" y="410" on="1"/>
        <pt x="478" y="170" on="1"/>
        <pt x="487" y="160" on="0"/>
        <pt x="494" y="170" on="1"/>
        <pt x="612" y="348" on="1"/>
        <pt x="621" y="359" on="0"/>
        <pt x="646" y="343" on="0"/>
        <pt x="636" y="330" on="1"/>
        <pt x="515" y="149" on="1"/>
        <pt x="507" y="138" on="0"/>
        <pt x="517" y="127" on="1"/>
        <pt x="589" y="45" on="1"/>
        <pt x="602" y="30" on="0"/>
        <pt x="614" y="30" on="1"/>
        <pt x="680" y="30" on="1"/>
        <pt x="695" y="30" on="0"/>
        <pt x="695" y="15" on="1"/>
        <pt x="695" y="0" on="0"/>
        <pt x="680" y="0" on="1"/>
        <pt x="600" y="0" on="1"/>
        <pt x="587" y="0" on="0"/>
        <pt x="574" y="15" on="1"/>
        <pt x="499" y="100" on="1"/>
        <pt x="488" y="110" on="0"/>
        <pt x="481" y="100" on="1"/>
        <pt x="386" y="-20" on="0"/>
        <pt x="240" y="-20" on="1"/>
        <pt x="155" y="-20" on="0"/>
        <pt x="100" y="32" on="1"/>
        <pt x="45" y="84" on="0"/>
        <pt x="45" y="246" on="0"/>
        <pt x="147" y="347" on="0"/>
        <pt x="241" y="369" on="1"/>
        <pt x="256" y="374" on="0"/>
        <pt x="242" y="390" on="1"/>
        <pt x="207" y="432" on="0"/>
        <pt x="160" y="513" on="0"/>
        <pt x="160" y="560" on="1"/>
        <pt x="160" y="629" on="0"/>
        <pt x="256" y="710" on="0"/>
      </contour>
    </TTGlyph>
    <TTGlyph name="aring" xMin="41" yMin="-10" xMax="551" yMax="720">
      <contour>
        <pt x="209" y="583" on="1"/>
        <pt x="187" y="606" on="0"/>
        <pt x="187" y="674" on="0"/>
        <pt x="232" y="720" on="0"/>
        <pt x="302" y="720" on="0"/>
        <pt x="347" y="674" on="0"/>
        <pt x="347" y="606" on="0"/>
        <pt x="302" y="560" on="0"/>
        <pt x="232" y="560" on="0"/>
      </contour>
      <contour>
        <pt x="290" y="690" on="0"/>
        <pt x="244" y="690" on="0"/>
        <pt x="217" y="663" on="0"/>
        <pt x="217" y="617" on="0"/>
        <pt x="244" y="590" on="0"/>
        <pt x="290" y="590" on="0"/>
        <pt x="317" y="617" on="0"/>
        <pt x="317" y="663" on="0"/>
      </contour>
      <contour>
        <pt x="421" y="245" on="1"/>
        <pt x="421" y="260" on="0"/>
        <pt x="406" y="260" on="1"/>
        <pt x="241" y="260" on="1"/>
        <pt x="154" y="260" on="0"/>
        <pt x="71" y="192" on="0"/>
        <pt x="71" y="87" on="0"/>
        <pt x="148" y="20" on="0"/>
        <pt x="226" y="20" on="1"/>
        <pt x="323" y="20" on="0"/>
        <pt x="397" y="118" on="1"/>
        <pt x="410" y="135" on="0"/>
        <pt x="421" y="155" on="1"/>
      </contour>
      <contour>
        <pt x="265" y="510" on="1"/>
        <pt x="349" y="510" on="0"/>
        <pt x="451" y="415" on="0"/>
        <pt x="451" y="345" on="1"/>
        <pt x="451" y="45" on="1"/>
        <pt x="451" y="30" on="0"/>
        <pt x="466" y="30" on="1"/>
        <pt x="536" y="30" on="1"/>
        <pt x="551" y="30" on="0"/>
        <pt x="551" y="15" on="1"/>
        <pt x="551" y="0" on="0"/>
        <pt x="536" y="0" on="1"/>
        <pt x="436" y="0" on="1"/>
        <pt x="421" y="0" on="0"/>
        <pt x="421" y="15" on="1"/>
        <pt x="421" y="71" on="1"/>
        <pt x="421" y="81" on="0"/>
        <pt x="413" y="89" on="0"/>
        <pt x="405" y="81" on="1"/>
        <pt x="378" y="47" on="0"/>
        <pt x="282" y="-10" on="0"/>
        <pt x="230" y="-10" on="1"/>
        <pt x="137" y="-10" on="0"/>
        <pt x="41" y="73" on="0"/>
        <pt x="41" y="205" on="0"/>
        <pt x="151" y="290" on="0"/>
        <pt x="241" y="290" on="1"/>
        <pt x="406" y="290" on="1"/>
        <pt x="421" y="290" on="0"/>
        <pt x="421" y="305" on="1"/>
        <pt x="421" y="345" on="1"/>
        <pt x="421" y="403" on="0"/>
        <pt x="333" y="480" on="0"/>
        <pt x="205" y="480" on="0"/>
        <pt x="123" y="445" on="0"/>
        <pt x="90" y="419" on="0"/>
        <pt x="73" y="443" on="0"/>
        <pt x="84" y="451" on="1"/>
        <pt x="156" y="510" on="0"/>
      </contour>
    </TTGlyph>
    <TTGlyph name="asciicircum" xMin="21" yMin="442" xMax="446" yMax="740">
      <contour>
        <pt x="24" y="466" on="1"/>
        <pt x="217" y="729" on="1"/>
        <pt x="223" y="740" on="0"/>
        <pt x="244" y="740" on="0"/>
        <pt x="250" y="729" on="1"/>
        <pt x="443" y="466" on="1"/>
        <pt x="446" y="462" on="0"/>
        <pt x="446" y="451" on="0"/>
        <pt x="434" y="442" on="0"/>
        <pt x="422" y="442" on="0"/>
        <pt x="417" y="450" on="1"/>
        <pt x="243" y="687" on="1"/>
        <pt x="239" y="693" on="0"/>
        <pt x="228" y="693" on="0"/>
        <pt x="224" y="687" on="1"/>
        <pt x="50" y="450" on="1"/>
        <pt x="45" y="442" on="0"/>
        <pt x="33" y="442" on="0"/>
        <pt x="21" y="451" on="0"/>
        <pt x="21" y="462" on="0"/>
      </contour>
    </TTGlyph>
    <TTGlyph name="asciitilde" xMin="78" yMin="255" xMax="448" yMax="380">
      <contour>
        <pt x="78" y="280" on="1"/>
        <pt x="78" y="380" on="0"/>
        <pt x="178" y="380" on="1"/>
        <pt x="204" y="380" on="0"/>
        <pt x="228" y="365" on="1"/>
        <pt x="252" y="350" on="0"/>
        <pt x="268" y="332" on="1"/>
        <pt x="321" y="289" on="0"/>
        <pt x="348" y="285" on="1"/>
        <pt x="418" y="285" on="0"/>
        <pt x="418" y="355" on="1"/>
        <pt x="418" y="370" on="0"/>
        <pt x="448" y="370" on="0"/>
        <pt x="448" y="355" on="1"/>
        <pt x="448" y="255" on="0"/>
        <pt x="348" y="255" on="1"/>
        <pt x="322" y="255" on="0"/>
        <pt x="298" y="270" on="1"/>
        <pt x="274" y="284" on="0"/>
        <pt x="258" y="302" on="1"/>
        <pt x="216" y="350" on="0"/>
        <pt x="178" y="350" on="1"/>
        <pt x="108" y="350" on="0"/>
        <pt x="108" y="280" on="1"/>
        <pt x="108" y="265" on="0"/>
        <pt x="78" y="265" on="0"/>
      </contour>
    </TTGlyph>
    <TTGlyph name="asterisk" xMin="67" yMin="380" xMax="381" yMax="700">
      <contour>
        <pt x="70" y="449" on="1"/>
        <pt x="67" y="454" on="0"/>
        <pt x="67" y="466" on="0"/>
        <pt x="76" y="470" on="1"/>
        <pt x="183" y="531" on="1"/>
        <pt x="188" y="533" on="0"/>
        <pt x="188" y="542" on="0"/>
        <pt x="183" y="545" on="1"/>
        <pt x="76" y="606" on="1"/>
        <pt x="67" y="610" on="0"/>
        <pt x="67" y="622" on="0"/>
        <pt x="70" y="627" on="1"/>
        <pt x="77" y="640" on="0"/>
        <pt x="91" y="632" on="1"/>
        <pt x="193" y="572" on="1"/>
        <pt x="209" y="563" on="0"/>
        <pt x="209" y="580" on="1"/>
        <pt x="209" y="685" on="1"/>
        <pt x="209" y="700" on="0"/>
        <pt x="239" y="700" on="0"/>
        <pt x="239" y="685" on="1"/>
        <pt x="239" y="580" on="1"/>
        <pt x="239" y="563" on="0"/>
        <pt x="255" y="572" on="1"/>
        <pt x="357" y="632" on="1"/>
        <pt x="371" y="640" on="0"/>
        <pt x="378" y="627" on="1"/>
        <pt x="381" y="622" on="0"/>
        <pt x="381" y="610" on="0"/>
        <pt x="372" y="606" on="1"/>
        <pt x="265" y="545" on="1"/>
        <pt x="260" y="542" on="0"/>
        <pt x="260" y="533" on="0"/>
        <pt x="265" y="531" on="1"/>
        <pt x="372" y="470" on="1"/>
        <pt x="381" y="466" on="0"/>
        <pt x="381" y="454" on="0"/>
        <pt x="378" y="449" on="1"/>
        <pt x="371" y="436" on="0"/>
        <pt x="357" y="444" on="1"/>
        <pt x="255" y="503" on="1"/>
        <pt x="239" y="512" on="0"/>
        <pt x="239" y="495" on="1"/>
        <pt x="239" y="395" on="1"/>
        <pt x="239" y="380" on="0"/>
        <pt x="209" y="380" on="0"/>
        <pt x="209" y="395" on="1"/>
        <pt x="209" y="495" on="1"/>
        <pt x="209" y="512" on="0"/>
        <pt x="193" y="503" on="1"/>
        <pt x="91" y="444" on="1"/>
        <pt x="77" y="436" on="0"/>
      </contour>
    </TTGlyph>
    <TTGlyph name="at" xMin="51" yMin="-190" xMax="881" yMax="710">
      <contour>
        <pt x="51" y="64" on="0"/>
        <pt x="51" y="456" on="0"/>
        <pt x="171" y="583" on="1"/>
        <pt x="292" y="710" on="0"/>
        <pt x="640" y="710" on="0"/>
        <pt x="881" y="456" on="0"/>
        <pt x="881" y="260" on="1"/>
        <pt x="881" y="137" on="0"/>
        <pt x="799" y="-10" on="0"/>
        <pt x="733" y="-10" on="1"/>
        <pt x="653" y="-10" on="0"/>
        <pt x="626" y="70" on="1"/>
        <pt x="620" y="91" on="0"/>
        <pt x="610" y="80" on="1"/>
        <pt x="530" y="-10" on="0"/>
        <pt x="352" y="-10" on="0"/>
        <pt x="226" y="126" on="0"/>
        <pt x="226" y="374" on="0"/>
        <pt x="352" y="510" on="0"/>
        <pt x="530" y="510" on="0"/>
        <pt x="610" y="420" on="1"/>
        <pt x="618" y="412" on="0"/>
        <pt x="626" y="420" on="0"/>
        <pt x="626" y="430" on="1"/>
        <pt x="626" y="485" on="1"/>
        <pt x="626" y="500" on="0"/>
        <pt x="656" y="500" on="0"/>
        <pt x="656" y="485" on="1"/>
        <pt x="656" y="110" on="1"/>
        <pt x="656" y="66" on="0"/>
        <pt x="697" y="20" on="0"/>
        <pt x="733" y="20" on="1"/>
        <pt x="785" y="20" on="0"/>
        <pt x="851" y="152" on="0"/>
        <pt x="851" y="260" on="1"/>
        <pt x="851" y="445" on="0"/>
        <pt x="630" y="680" on="0"/>
        <pt x="302" y="680" on="0"/>
        <pt x="81" y="445" on="0"/>
        <pt x="81" y="75" on="0"/>
        <pt x="302" y="-160" on="0"/>
        <pt x="634" y="-160" on="0"/>
        <pt x="715" y="-69" on="1"/>
        <pt x="726" y="-58" on="0"/>
        <pt x="746" y="-80" on="0"/>
        <pt x="736" y="-90" on="1"/>
        <pt x="644" y="-190" on="0"/>
        <pt x="292" y="-190" on="0"/>
      </contour>
      <contour>
        <pt x="256" y="363" on="0"/>
        <pt x="256" y="137" on="0"/>
        <pt x="310" y="78" on="1"/>
        <pt x="364" y="20" on="0"/>
        <pt x="516" y="20" on="0"/>
        <pt x="578" y="90" on="1"/>
        <pt x="606" y="122" on="0"/>
        <pt x="626" y="160" on="1"/>
        <pt x="626" y="340" on="1"/>
        <pt x="606" y="378" on="0"/>
        <pt x="578" y="410" on="1"/>
        <pt x="516" y="480" on="0"/>
        <pt x="364" y="480" on="0"/>
      </contour>
    </TTGlyph>
    <TTGlyph name="atilde" xMin="41" yMin="-10" xMax="551" yMax="675">
      <contour>
        <pt x="142" y="585" on="1"/>
        <pt x="142" y="628" on="0"/>
        <pt x="162" y="652" on="1"/>
        <pt x="182" y="675" on="0"/>
        <pt x="208" y="675" on="1"/>
        <pt x="254" y="675" on="0"/>
        <pt x="295" y="600" on="0"/>
        <pt x="322" y="600" on="1"/>
        <pt x="362" y="600" on="0"/>
        <pt x="362" y="660" on="1"/>
        <pt x="362" y="675" on="0"/>
        <pt x="392" y="675" on="0"/>
        <pt x="392" y="660" on="1"/>
        <pt x="392" y="616" on="0"/>
        <pt x="372" y="593" on="1"/>
        <pt x="352" y="570" on="0"/>
        <pt x="326" y="570" on="1"/>
        <pt x="280" y="570" on="0"/>
        <pt x="239" y="645" on="0"/>
        <pt x="212" y="645" on="1"/>
        <pt x="172" y="645" on="0"/>
        <pt x="172" y="585" on="1"/>
        <pt x="172" y="570" on="0"/>
        <pt x="142" y="570" on="0"/>
      </contour>
      <contour>
        <pt x="421" y="245" on="1"/>
        <pt x="421" y="260" on="0"/>
        <pt x="406" y="260" on="1"/>
        <pt x="241" y="260" on="1"/>
        <pt x="154" y="260" on="0"/>
        <pt x="71" y="192" on="0"/>
        <pt x="71" y="87" on="0"/>
        <pt x="148" y="20" on="0"/>
        <pt x="226" y="20" on="1"/>
        <pt x="323" y="20" on="0"/>
        <pt x="397" y="118" on="1"/>
        <pt x="410" y="135" on="0"/>
        <pt x="421" y="155" on="1"/>
      </contour>
      <contour>
        <pt x="265" y="510" on="1"/>
        <pt x="349" y="510" on="0"/>
        <pt x="451" y="415" on="0"/>
        <pt x="451" y="345" on="1"/>
        <pt x="451" y="45" on="1"/>
        <pt x="451" y="30" on="0"/>
        <pt x="466" y="30" on="1"/>
        <pt x="536" y="30" on="1"/>
        <pt x="551" y="30" on="0"/>
        <pt x="551" y="15" on="1"/>
        <pt x="551" y="0" on="0"/>
        <pt x="536" y="0" on="1"/>
        <pt x="436" y="0" on="1"/>
        <pt x="421" y="0" on="0"/>
        <pt x="421" y="15" on="1"/>
        <pt x="421" y="71" on="1"/>
        <pt x="421" y="81" on="0"/>
        <pt x="413" y="89" on="0"/>
        <pt x="405" y="81" on="1"/>
        <pt x="378" y="47" on="0"/>
        <pt x="282" y="-10" on="0"/>
        <pt x="230" y="-10" on="1"/>
        <pt x="137" y="-10" on="0"/>
        <pt x="41" y="73" on="0"/>
        <pt x="41" y="205" on="0"/>
        <pt x="151" y="290" on="0"/>
        <pt x="241" y="290" on="1"/>
        <pt x="406" y="290" on="1"/>
        <pt x="421" y="290" on="0"/>
        <pt x="421" y="305" on="1"/>
        <pt x="421" y="345" on="1"/>
        <pt x="421" y="403" on="0"/>
        <pt x="333" y="480" on="0"/>
        <pt x="205" y="480" on="0"/>
        <pt x="123" y="445" on="0"/>
        <pt x="90" y="419" on="0"/>
        <pt x="73" y="443" on="0"/>
        <pt x="84" y="451" on="1"/>
        <pt x="156" y="510" on="0"/>
      </contour>
    </TTGlyph>
    <TTGlyph name="b" xMin="-4" yMin="-10" xMax="546" yMax="700">
      <contour>
        <pt x="126" y="155" on="1"/>
        <pt x="149" y="115" on="0"/>
        <pt x="177" y="87" on="1"/>
        <pt x="244" y="20" on="0"/>
        <pt x="411" y="20" on="0"/>
        <pt x="516" y="141" on="0"/>
        <pt x="516" y="358" on="0"/>
        <pt x="390" y="470" on="0"/>
        <pt x="276" y="470" on="1"/>
        <pt x="141" y="470" on="1"/>
        <pt x="126" y="470" on="0"/>
        <pt x="126" y="455" on="1"/>
      </contour>
      <contour>
        <pt x="126" y="515" on="1"/>
        <pt x="126" y="500" on="0"/>
        <pt x="141" y="500" on="1"/>
        <pt x="276" y="500" on="1"/>
        <pt x="403" y="500" on="0"/>
        <pt x="474" y="435" on="1"/>
        <pt x="546" y="370" on="0"/>
        <pt x="546" y="249" on="1"/>
        <pt x="546" y="129" on="0"/>
        <pt x="426" y="-10" on="0"/>
        <pt x="326" y="-10" on="1"/>
        <pt x="264" y="-10" on="0"/>
        <pt x="214" y="19" on="1"/>
        <pt x="167" y="49" on="0"/>
        <pt x="142" y="81" on="1"/>
        <pt x="134" y="89" on="0"/>
        <pt x="126" y="81" on="0"/>
        <pt x="126" y="71" on="1"/>
        <pt x="126" y="15" on="1"/>
        <pt x="126" y="0" on="0"/>
        <pt x="111" y="0" on="1"/>
        <pt x="96" y="0" on="0"/>
        <pt x="96" y="15" on="1"/>
        <pt x="96" y="655" on="1"/>
        <pt x="96" y="670" on="0"/>
        <pt x="81" y="670" on="1"/>
        <pt x="11" y="670" on="1"/>
        <pt x="-4" y="670" on="0"/>
        <pt x="-4" y="685" on="1"/>
        <pt x="-4" y="700" on="0"/>
        <pt x="11" y="700" on="1"/>
        <pt x="111" y="700" on="1"/>
        <pt x="126" y="700" on="0"/>
        <pt x="126" y="685" on="1"/>
      </contour>
    </TTGlyph>
    <TTGlyph name="backslash" xMin="27" yMin="0" xMax="492" yMax="699">
      <contour>
        <pt x="31" y="677" on="1"/>
        <pt x="27" y="681" on="0"/>
        <pt x="27" y="685" on="1"/>
        <pt x="27" y="691" on="0"/>
        <pt x="35" y="697" on="1"/>
        <pt x="38" y="699" on="0"/>
        <pt x="50" y="699" on="0"/>
        <pt x="55" y="692" on="1"/>
        <pt x="488" y="23" on="1"/>
        <pt x="492" y="18" on="0"/>
        <pt x="492" y="6" on="0"/>
        <pt x="486" y="4" on="1"/>
        <pt x="480" y="0" on="0"/>
        <pt x="468" y="0" on="0"/>
        <pt x="463" y="7" on="1"/>
      </contour>
    </TTGlyph>
    <TTGlyph name="bar" xMin="108" yMin="-200" xMax="138" yMax="700">
      <contour>
        <pt x="108" y="-185" on="1"/>
        <pt x="108" y="685" on="1"/>
        <pt x="108" y="700" on="0"/>
        <pt x="138" y="700" on="0"/>
        <pt x="138" y="685" on="1"/>
        <pt x="138" y="-185" on="1"/>
        <pt x="138" y="-200" on="0"/>
        <pt x="108" y="-200" on="0"/>
      </contour>
    </TTGlyph>
    <TTGlyph name="braceleft" xMin="21" yMin="-160" xMax="301" yMax="780">
      <contour>
        <pt x="21" y="295" on="0"/>
        <pt x="21" y="325" on="0"/>
        <pt x="36" y="325" on="1"/>
        <pt x="46" y="325" on="1"/>
        <pt x="141" y="327" on="0"/>
        <pt x="141" y="425" on="1"/>
        <pt x="141" y="650" on="1"/>
        <pt x="141" y="710" on="0"/>
        <pt x="211" y="780" on="0"/>
        <pt x="271" y="780" on="1"/>
        <pt x="286" y="780" on="1"/>
        <pt x="301" y="780" on="0"/>
        <pt x="301" y="750" on="0"/>
        <pt x="286" y="750" on="1"/>
        <pt x="271" y="750" on="1"/>
        <pt x="171" y="750" on="0"/>
        <pt x="171" y="650" on="1"/>
        <pt x="171" y="425" on="1"/>
        <pt x="171" y="337" on="0"/>
        <pt x="101" y="310" on="1"/>
        <pt x="171" y="283" on="0"/>
        <pt x="171" y="195" on="1"/>
        <pt x="171" y="-30" on="1"/>
        <pt x="171" y="-130" on="0"/>
        <pt x="271" y="-130" on="1"/>
        <pt x="286" y="-130" on="1"/>
        <pt x="301" y="-130" on="0"/>
        <pt x="301" y="-160" on="0"/>
        <pt x="286" y="-160" on="1"/>
        <pt x="271" y="-160" on="1"/>
        <pt x="211" y="-160" on="0"/>
        <pt x="141" y="-90" on="0"/>
        <pt x="141" y="-30" on="1"/>
        <pt x="141" y="195" on="1"/>
        <pt x="141" y="292" on="0"/>
        <pt x="46" y="295" on="1"/>
        <pt x="36" y="295" on="1"/>
      </contour>
    </TTGlyph>
    <TTGlyph name="braceright" xMin="23" yMin="-160" xMax="303" yMax="780">
      <contour>
        <pt x="23" y="-160" on="0"/>
        <pt x="23" y="-130" on="0"/>
        <pt x="38" y="-130" on="1"/>
        <pt x="53" y="-130" on="1"/>
        <pt x="153" y="-130" on="0"/>
        <pt x="153" y="-30" on="1"/>
        <pt x="153" y="195" on="1"/>
        <pt x="153" y="283" on="0"/>
        <pt x="223" y="310" on="1"/>
        <pt x="153" y="337" on="0"/>
        <pt x="153" y="425" on="1"/>
        <pt x="153" y="650" on="1"/>
        <pt x="153" y="750" on="0"/>
        <pt x="53" y="750" on="1"/>
        <pt x="38" y="750" on="1"/>
        <pt x="23" y="750" on="0"/>
        <pt x="23" y="780" on="0"/>
        <pt x="38" y="780" on="1"/>
        <pt x="53" y="780" on="1"/>
        <pt x="113" y="780" on="0"/>
        <pt x="183" y="710" on="0"/>
        <pt x="183" y="650" on="1"/>
        <pt x="183" y="425" on="1"/>
        <pt x="183" y="327" on="0"/>
        <pt x="278" y="325" on="1"/>
        <pt x="288" y="325" on="1"/>
        <pt x="303" y="325" on="0"/>
        <pt x="303" y="295" on="0"/>
        <pt x="288" y="295" on="1"/>
        <pt x="278" y="295" on="1"/>
        <pt x="183" y="292" on="0"/>
        <pt x="183" y="195" on="1"/>
        <pt x="183" y="-30" on="1"/>
        <pt x="183" y="-90" on="0"/>
        <pt x="113" y="-160" on="0"/>
        <pt x="53" y="-160" on="1"/>
        <pt x="38" y="-160" on="1"/>
      </contour>
    </TTGlyph>
    <TTGlyph name="bracketleft" xMin="107" yMin="-160" xMax="267" yMax="780">
      <contour>
        <pt x="107" y="-145" on="1"/>
        <pt x="107" y="765" on="1"/>
        <pt x="107" y="780" on="0"/>
        <pt x="122" y="780" on="1"/>
        <pt x="252" y="780" on="1"/>
        <pt x="267" y="780" on="0"/>
        <pt x="267" y="750" on="0"/>
        <pt x="252" y="750" on="1"/>
        <pt x="152" y="750" on="1"/>
        <pt x="137" y="750" on="0"/>
        <pt x="137" y="735" on="1"/>
        <pt x="137" y="-115" on="1"/>
        <pt x="137" y="-130" on="0"/>
        <pt x="152" y="-130" on="1"/>
        <pt x="252" y="-130" on="1"/>
        <pt x="267" y="-130" on="0"/>
        <pt x="267" y="-160" on="0"/>
        <pt x="252" y="-160" on="1"/>
        <pt x="122" y="-160" on="1"/>
        <pt x="107" y="-160" on="0"/>
      </contour>
    </TTGlyph>
    <TTGlyph name="bracketright" xMin="23" yMin="-160" xMax="183" yMax="780">
      <contour>
        <pt x="23" y="-160" on="0"/>
        <pt x="23" y="-130" on="0"/>
        <pt x="38" y="-130" on="1"/>
        <pt x="138" y="-130" on="1"/>
        <pt x="153" y="-130" on="0"/>
        <pt x="153" y="-115" on="1"/>
        <pt x="153" y="735" on="1"/>
        <pt x="153" y="750" on="0"/>
        <pt x="138" y="750" on="1"/>
        <pt x="38" y="750" on="1"/>
        <pt x="23" y="750" on="0"/>
        <pt x="23" y="780" on="0"/>
        <pt x="38" y="780" on="1"/>
        <pt x="168" y="780" on="1"/>
        <pt x="183" y="780" on="0"/>
        <pt x="183" y="765" on="1"/>
        <pt x="183" y="-145" on="1"/>
        <pt x="183" y="-160" on="0"/>
        <pt x="168" y="-160" on="1"/>
        <pt x="38" y="-160" on="1"/>
      </contour>
    </TTGlyph>
    <TTGlyph name="brokenbar" xMin="113" yMin="-200" xMax="143" yMax="700">
      <contour>
        <pt x="113" y="165" on="1"/>
        <pt x="113" y="180" on="0"/>
        <pt x="143" y="180" on="0"/>
        <pt x="143" y="165" on="1"/>
        <pt x="143" y="-185" on="1"/>
        <pt x="143" y="-200" on="0"/>
        <pt x="113" y="-200" on="0"/>
        <pt x="113" y="-185" on="1"/>
      </contour>
      <contour>
        <pt x="113" y="335" on="1"/>
        <pt x="113" y="685" on="1"/>
        <pt x="113" y="700" on="0"/>
        <pt x="143" y="700" on="0"/>
        <pt x="143" y="685" on="1"/>
        <pt x="143" y="335" on="1"/>
        <pt x="143" y="320" on="0"/>
        <pt x="113" y="320" on="0"/>
      </contour>
    </TTGlyph>
    <TTGlyph name="bullet" xMin="62" yMin="240" xMax="282" yMax="460">
      <contour>
        <pt x="62" y="304" on="0"/>
        <pt x="62" y="396" on="0"/>
        <pt x="126" y="460" on="0"/>
        <pt x="218" y="460" on="0"/>
        <pt x="282" y="396" on="0"/>
        <pt x="282" y="304" on="0"/>
        <pt x="218" y="240" on="0"/>
        <pt x="126" y="240" on="0"/>
      </contour>
    </TTGlyph>
    <TTGlyph name="c" xMin="51" yMin="-10" xMax="496" yMax="510">
      <contour>
        <pt x="461" y="375" on="1"/>
        <pt x="380" y="480" on="0"/>
        <pt x="271" y="480" on="1"/>
        <pt x="190" y="480" on="0"/>
        <pt x="135" y="416" on="1"/>
        <pt x="81" y="351" on="0"/>
        <pt x="81" y="145" on="0"/>
        <pt x="195" y="20" on="0"/>
        <pt x="288" y="20" on="1"/>
        <pt x="380" y="20" on="0"/>
        <pt x="442" y="70" on="1"/>
        <pt x="458" y="82" on="0"/>
        <pt x="476" y="98" on="0"/>
        <pt x="486" y="93" on="0"/>
        <pt x="496" y="81" on="0"/>
        <pt x="496" y="72" on="0"/>
        <pt x="487" y="63" on="1"/>
        <pt x="454" y="34" on="0"/>
        <pt x="359" y="-10" on="0"/>
        <pt x="286" y="-10" on="1"/>
        <pt x="180" y="-10" on="0"/>
        <pt x="51" y="135" on="0"/>
        <pt x="51" y="250" on="1"/>
        <pt x="51" y="365" on="0"/>
        <pt x="177" y="510" on="0"/>
        <pt x="370" y="510" on="0"/>
        <pt x="445" y="435" on="1"/>
        <pt x="461" y="421" on="0"/>
        <pt x="461" y="445" on="1"/>
        <pt x="461" y="485" on="1"/>
        <pt x="461" y="500" on="0"/>
        <pt x="476" y="500" on="1"/>
        <pt x="491" y="500" on="0"/>
        <pt x="491" y="485" on="1"/>
        <pt x="491" y="325" on="1"/>
        <pt x="491" y="310" on="0"/>
        <pt x="476" y="310" on="1"/>
        <pt x="461" y="310" on="0"/>
        <pt x="461" y="325" on="1"/>
      </contour>
    </TTGlyph>
    <TTGlyph name="ccedilla" xMin="51" yMin="-180" xMax="496" yMax="510">
      <contour>
        <pt x="274" y="-150" on="1"/>
        <pt x="344" y="-150" on="0"/>
        <pt x="344" y="-110" on="1"/>
        <pt x="344" y="-93" on="0"/>
        <pt x="319" y="-70" on="0"/>
        <pt x="294" y="-70" on="1"/>
        <pt x="279" y="-70" on="1"/>
        <pt x="264" y="-70" on="0"/>
        <pt x="264" y="-55" on="1"/>
        <pt x="264" y="0" on="1"/>
        <pt x="264" y="15" on="0"/>
        <pt x="294" y="15" on="0"/>
        <pt x="294" y="0" on="1"/>
        <pt x="294" y="-40" on="1"/>
        <pt x="331" y="-40" on="0"/>
        <pt x="374" y="-79" on="0"/>
        <pt x="374" y="-142" on="0"/>
        <pt x="325" y="-180" on="0"/>
        <pt x="274" y="-180" on="1"/>
        <pt x="259" y="-180" on="0"/>
        <pt x="259" y="-150" on="0"/>
      </contour>
      <contour>
        <pt x="461" y="375" on="1"/>
        <pt x="380" y="480" on="0"/>
        <pt x="271" y="480" on="1"/>
        <pt x="190" y="480" on="0"/>
        <pt x="135" y="416" on="1"/>
        <pt x="81" y="351" on="0"/>
        <pt x="81" y="145" on="0"/>
        <pt x="195" y="20" on="0"/>
        <pt x="288" y="20" on="1"/>
        <pt x="380" y="20" on="0"/>
        <pt x="442" y="70" on="1"/>
        <pt x="458" y="82" on="0"/>
        <pt x="476" y="98" on="0"/>
        <pt x="486" y="93" on="0"/>
        <pt x="496" y="81" on="0"/>
        <pt x="496" y="72" on="0"/>
        <pt x="487" y="63" on="1"/>
        <pt x="454" y="34" on="0"/>
        <pt x="359" y="-10" on="0"/>
        <pt x="286" y="-10" on="1"/>
        <pt x="180" y="-10" on="0"/>
        <pt x="51" y="135" on="0"/>
        <pt x="51" y="250" on="1"/>
        <pt x="51" y="365" on="0"/>
        <pt x="177" y="510" on="0"/>
        <pt x="370" y="510" on="0"/>
        <pt x="445" y="435" on="1"/>
        <pt x="461" y="421" on="0"/>
        <pt x="461" y="445" on="1"/>
        <pt x="461" y="485" on="1"/>
        <pt x="461" y="500" on="0"/>
        <pt x="476" y="500" on="1"/>
        <pt x="491" y="500" on="0"/>
        <pt x="491" y="485" on="1"/>
        <pt x="491" y="325" on="1"/>
        <pt x="491" y="310" on="0"/>
        <pt x="476" y="310" on="1"/>
        <pt x="461" y="310" on="0"/>
        <pt x="461" y="325" on="1"/>
      </contour>
    </TTGlyph>
    <TTGlyph name="cedilla" xMin="0" yMin="-180" xMax="115" yMax="15">
      <contour>
        <pt x="0" y="-180" on="0"/>
        <pt x="0" y="-150" on="0"/>
        <pt x="15" y="-150" on="1"/>
        <pt x="85" y="-150" on="0"/>
        <pt x="85" y="-110" on="1"/>
        <pt x="85" y="-93" on="0"/>
        <pt x="60" y="-70" on="0"/>
        <pt x="35" y="-70" on="1"/>
        <pt x="20" y="-70" on="1"/>
        <pt x="5" y="-70" on="0"/>
        <pt x="5" y="-55" on="1"/>
        <pt x="5" y="0" on="1"/>
        <pt x="5" y="15" on="0"/>
        <pt x="35" y="15" on="0"/>
        <pt x="35" y="0" on="1"/>
        <pt x="35" y="-40" on="1"/>
        <pt x="72" y="-40" on="0"/>
        <pt x="94" y="-60" on="1"/>
        <pt x="115" y="-78" on="0"/>
        <pt x="115" y="-142" on="0"/>
        <pt x="66" y="-180" on="0"/>
        <pt x="15" y="-180" on="1"/>
      </contour>
    </TTGlyph>
    <TTGlyph name="cent" xMin="57" yMin="-80" xMax="502" yMax="580">
      <contour>
        <pt x="272" y="-9" on="1"/>
        <pt x="180" y="-3" on="0"/>
        <pt x="57" y="135" on="0"/>
        <pt x="57" y="250" on="1"/>
        <pt x="57" y="365" on="0"/>
        <pt x="182" y="509" on="0"/>
        <pt x="272" y="510" on="1"/>
        <pt x="272" y="565" on="1"/>
        <pt x="272" y="580" on="0"/>
        <pt x="287" y="580" on="1"/>
        <pt x="302" y="580" on="0"/>
        <pt x="302" y="565" on="1"/>
        <pt x="302" y="509" on="1"/>
        <pt x="384" y="500" on="0"/>
        <pt x="451" y="435" on="1"/>
        <pt x="467" y="421" on="0"/>
        <pt x="467" y="445" on="1"/>
        <pt x="467" y="485" on="1"/>
        <pt x="467" y="500" on="0"/>
        <pt x="482" y="500" on="1"/>
        <pt x="497" y="500" on="0"/>
        <pt x="497" y="485" on="1"/>
        <pt x="497" y="325" on="1"/>
        <pt x="497" y="310" on="0"/>
        <pt x="482" y="310" on="1"/>
        <pt x="467" y="310" on="0"/>
        <pt x="467" y="325" on="1"/>
        <pt x="467" y="375" on="1"/>
        <pt x="396" y="467" on="0"/>
        <pt x="302" y="478" on="1"/>
        <pt x="302" y="20" on="1"/>
        <pt x="392" y="23" on="0"/>
        <pt x="450" y="70" on="1"/>
        <pt x="464" y="82" on="0"/>
        <pt x="482" y="98" on="0"/>
        <pt x="492" y="93" on="0"/>
        <pt x="502" y="81" on="0"/>
        <pt x="502" y="72" on="0"/>
        <pt x="493" y="63" on="1"/>
        <pt x="412" y="-8" on="0"/>
        <pt x="302" y="-10" on="1"/>
        <pt x="302" y="-65" on="1"/>
        <pt x="302" y="-80" on="0"/>
        <pt x="287" y="-80" on="1"/>
        <pt x="272" y="-80" on="0"/>
        <pt x="272" y="-65" on="1"/>
      </contour>
      <contour>
        <pt x="141" y="416" on="1"/>
        <pt x="87" y="351" on="0"/>
        <pt x="87" y="145" on="0"/>
        <pt x="196" y="26" on="0"/>
        <pt x="272" y="20" on="1"/>
        <pt x="272" y="480" on="1"/>
        <pt x="195" y="477" on="0"/>
      </contour>
    </TTGlyph>
    <TTGlyph name="circumflex" xMin="1" yMin="551" xMax="261" yMax="695">
      <contour>
        <pt x="11" y="551" on="0"/>
        <pt x="1" y="561" on="0"/>
        <pt x="1" y="572" on="0"/>
        <pt x="6" y="577" on="1"/>
        <pt x="113" y="686" on="1"/>
        <pt x="122" y="695" on="0"/>
        <pt x="130" y="695" on="1"/>
        <pt x="138" y="695" on="0"/>
        <pt x="146" y="687" on="1"/>
        <pt x="256" y="577" on="1"/>
        <pt x="261" y="572" on="0"/>
        <pt x="261" y="561" on="0"/>
        <pt x="251" y="551" on="0"/>
        <pt x="240" y="551" on="0"/>
        <pt x="235" y="556" on="1"/>
        <pt x="139" y="651" on="1"/>
        <pt x="130" y="660" on="0"/>
        <pt x="121" y="651" on="1"/>
        <pt x="27" y="556" on="1"/>
        <pt x="22" y="551" on="0"/>
      </contour>
    </TTGlyph>
    <TTGlyph name="colon" xMin="76" yMin="-10" xMax="176" yMax="510">
      <contour>
        <pt x="76" y="17" on="0"/>
        <pt x="76" y="63" on="0"/>
        <pt x="103" y="90" on="0"/>
        <pt x="149" y="90" on="0"/>
        <pt x="176" y="63" on="0"/>
        <pt x="176" y="17" on="0"/>
        <pt x="149" y="-10" on="0"/>
        <pt x="103" y="-10" on="0"/>
      </contour>
      <contour>
        <pt x="76" y="437" on="0"/>
        <pt x="76" y="483" on="0"/>
        <pt x="103" y="510" on="0"/>
        <pt x="149" y="510" on="0"/>
        <pt x="176" y="483" on="0"/>
        <pt x="176" y="437" on="0"/>
        <pt x="149" y="410" on="0"/>
        <pt x="103" y="410" on="0"/>
      </contour>
    </TTGlyph>
    <TTGlyph name="comma" xMin="71" yMin="-128" xMax="175" yMax="90">
      <contour>
        <pt x="75" y="17" on="0"/>
        <pt x="75" y="63" on="0"/>
        <pt x="102" y="90" on="0"/>
        <pt x="125" y="90" on="1"/>
        <pt x="175" y="90" on="0"/>
        <pt x="175" y="30" on="1"/>
        <pt x="175" y="15" on="1"/>
        <pt x="175" y="-37" on="0"/>
        <pt x="135" y="-110" on="0"/>
        <pt x="100" y="-125" on="1"/>
        <pt x="94" y="-128" on="0"/>
        <pt x="82" y="-128" on="0"/>
        <pt x="78" y="-121" on="1"/>
        <pt x="71" y="-108" on="0"/>
        <pt x="84" y="-102" on="1"/>
        <pt x="145" y="-75" on="0"/>
        <pt x="145" y="-10" on="1"/>
        <pt x="145" y="-2" on="1"/>
        <pt x="132" y="-10" on="0"/>
        <pt x="100" y="-10" on="0"/>
      </contour>
    </TTGlyph>
    <TTGlyph name="copyright" xMin="54" yMin="-40" xMax="824" yMax="740">
      <contour>
        <pt x="54" y="183" on="0"/>
        <pt x="54" y="517" on="0"/>
        <pt x="277" y="740" on="0"/>
        <pt x="601" y="740" on="0"/>
        <pt x="824" y="517" on="0"/>
        <pt x="824" y="183" on="0"/>
        <pt x="601" y="-40" on="0"/>
        <pt x="277" y="-40" on="0"/>
      </contour>
      <contour>
        <pt x="84" y="508" on="0"/>
        <pt x="84" y="192" on="0"/>
        <pt x="285" y="-10" on="0"/>
        <pt x="593" y="-10" on="0"/>
        <pt x="794" y="192" on="0"/>
        <pt x="794" y="508" on="0"/>
        <pt x="593" y="710" on="0"/>
        <pt x="285" y="710" on="0"/>
      </contour>
      <contour>
        <pt x="347" y="110" on="0"/>
        <pt x="229" y="241" on="0"/>
        <pt x="229" y="458" on="0"/>
        <pt x="285" y="523" on="1"/>
        <pt x="341" y="589" on="0"/>
        <pt x="509" y="589" on="0"/>
        <pt x="578" y="520" on="1"/>
        <pt x="594" y="508" on="0"/>
        <pt x="594" y="530" on="1"/>
        <pt x="594" y="570" on="1"/>
        <pt x="594" y="585" on="0"/>
        <pt x="624" y="585" on="0"/>
        <pt x="624" y="570" on="1"/>
        <pt x="624" y="420" on="1"/>
        <pt x="624" y="405" on="0"/>
        <pt x="594" y="405" on="0"/>
        <pt x="594" y="420" on="1"/>
        <pt x="594" y="460" on="1"/>
        <pt x="576" y="482" on="0"/>
        <pt x="545" y="510" on="1"/>
        <pt x="483" y="560" on="0"/>
        <pt x="429" y="560" on="1"/>
        <pt x="355" y="560" on="0"/>
        <pt x="259" y="446" on="0"/>
        <pt x="259" y="253" on="0"/>
        <pt x="361" y="140" on="0"/>
        <pt x="444" y="140" on="1"/>
        <pt x="551" y="140" on="0"/>
        <pt x="613" y="241" on="1"/>
        <pt x="621" y="252" on="0"/>
        <pt x="632" y="243" on="1"/>
        <pt x="639" y="239" on="0"/>
        <pt x="639" y="233" on="1"/>
        <pt x="639" y="227" on="0"/>
        <pt x="634" y="220" on="1"/>
        <pt x="564" y="110" on="0"/>
        <pt x="444" y="110" on="1"/>
      </contour>
    </TTGlyph>
    <TTGlyph name="currency" xMin="65" yMin="0" xMax="615" yMax="700">
      <contour>
        <pt x="80" y="30" on="1"/>
        <pt x="150" y="30" on="1"/>
        <pt x="165" y="30" on="0"/>
        <pt x="165" y="45" on="1"/>
        <pt x="165" y="180" on="1"/>
        <pt x="165" y="195" on="0"/>
        <pt x="150" y="195" on="1"/>
        <pt x="80" y="195" on="1"/>
        <pt x="65" y="195" on="0"/>
        <pt x="65" y="225" on="0"/>
        <pt x="80" y="225" on="1"/>
        <pt x="150" y="225" on="1"/>
        <pt x="165" y="225" on="0"/>
        <pt x="165" y="240" on="1"/>
        <pt x="165" y="285" on="1"/>
        <pt x="165" y="300" on="0"/>
        <pt x="150" y="300" on="1"/>
        <pt x="80" y="300" on="1"/>
        <pt x="65" y="300" on="0"/>
        <pt x="65" y="330" on="0"/>
        <pt x="80" y="330" on="1"/>
        <pt x="150" y="330" on="1"/>
        <pt x="165" y="330" on="0"/>
        <pt x="165" y="345" on="1"/>
        <pt x="165" y="655" on="1"/>
        <pt x="165" y="670" on="0"/>
        <pt x="150" y="670" on="1"/>
        <pt x="80" y="670" on="1"/>
        <pt x="65" y="670" on="0"/>
        <pt x="65" y="700" on="0"/>
        <pt x="80" y="700" on="1"/>
        <pt x="415" y="700" on="1"/>
        <pt x="512" y="700" on="0"/>
        <pt x="615" y="595" on="0"/>
        <pt x="615" y="405" on="0"/>
        <pt x="512" y="300" on="0"/>
        <pt x="415" y="300" on="1"/>
        <pt x="210" y="300" on="1"/>
        <pt x="195" y="300" on="0"/>
        <pt x="195" y="285" on="1"/>
        <pt x="195" y="240" on="1"/>
        <pt x="195" y="225" on="0"/>
        <pt x="210" y="225" on="1"/>
        <pt x="490" y="225" on="1"/>
        <pt x="505" y="225" on="0"/>
        <pt x="505" y="195" on="0"/>
        <pt x="490" y="195" on="1"/>
        <pt x="210" y="195" on="1"/>
        <pt x="195" y="195" on="0"/>
        <pt x="195" y="180" on="1"/>
        <pt x="195" y="45" on="1"/>
        <pt x="195" y="30" on="0"/>
        <pt x="210" y="30" on="1"/>
        <pt x="290" y="30" on="1"/>
        <pt x="305" y="30" on="0"/>
        <pt x="305" y="0" on="0"/>
        <pt x="290" y="0" on="1"/>
        <pt x="80" y="0" on="1"/>
        <pt x="65" y="0" on="0"/>
        <pt x="65" y="30" on="0"/>
      </contour>
      <contour>
        <pt x="195" y="345" on="1"/>
        <pt x="195" y="330" on="0"/>
        <pt x="210" y="330" on="1"/>
        <pt x="415" y="330" on="1"/>
        <pt x="498" y="330" on="0"/>
        <pt x="585" y="417" on="0"/>
        <pt x="585" y="583" on="0"/>
        <pt x="498" y="670" on="0"/>
        <pt x="415" y="670" on="1"/>
        <pt x="210" y="670" on="1"/>
        <pt x="195" y="670" on="0"/>
        <pt x="195" y="655" on="1"/>
      </contour>
    </TTGlyph>
    <TTGlyph name="d" xMin="50" yMin="-10" xMax="600" yMax="700">
      <contour>
        <pt x="470" y="655" on="1"/>
        <pt x="470" y="670" on="0"/>
        <pt x="455" y="670" on="1"/>
        <pt x="375" y="670" on="1"/>
        <pt x="360" y="670" on="0"/>
        <pt x="360" y="685" on="1"/>
        <pt x="360" y="700" on="0"/>
        <pt x="375" y="700" on="1"/>
        <pt x="485" y="700" on="1"/>
        <pt x="500" y="700" on="0"/>
        <pt x="500" y="685" on="1"/>
        <pt x="500" y="45" on="1"/>
        <pt x="500" y="30" on="0"/>
        <pt x="515" y="30" on="1"/>
        <pt x="585" y="30" on="1"/>
        <pt x="600" y="30" on="0"/>
        <pt x="600" y="15" on="1"/>
        <pt x="600" y="0" on="0"/>
        <pt x="585" y="0" on="1"/>
        <pt x="485" y="0" on="1"/>
        <pt x="470" y="0" on="0"/>
        <pt x="470" y="15" on="1"/>
        <pt x="470" y="71" on="1"/>
        <pt x="470" y="81" on="0"/>
        <pt x="462" y="89" on="0"/>
        <pt x="454" y="81" on="1"/>
        <pt x="429" y="48" on="0"/>
        <pt x="332" y="-10" on="0"/>
        <pt x="276" y="-10" on="1"/>
        <pt x="170" y="-10" on="0"/>
        <pt x="50" y="129" on="0"/>
        <pt x="50" y="369" on="0"/>
        <pt x="193" y="500" on="0"/>
        <pt x="320" y="500" on="1"/>
        <pt x="455" y="500" on="1"/>
        <pt x="470" y="500" on="0"/>
        <pt x="470" y="515" on="1"/>
      </contour>
      <contour>
        <pt x="470" y="455" on="1"/>
        <pt x="470" y="470" on="0"/>
        <pt x="455" y="470" on="1"/>
        <pt x="320" y="470" on="1"/>
        <pt x="206" y="470" on="0"/>
        <pt x="80" y="358" on="0"/>
        <pt x="80" y="141" on="0"/>
        <pt x="185" y="20" on="0"/>
        <pt x="352" y="20" on="0"/>
        <pt x="419" y="87" on="1"/>
        <pt x="447" y="115" on="0"/>
        <pt x="470" y="155" on="1"/>
      </contour>
    </TTGlyph>
    <TTGlyph name="dagger" xMin="34" yMin="-200" xMax="434" yMax="700">
      <contour>
        <pt x="264" y="450" on="1"/>
        <pt x="249" y="450" on="0"/>
        <pt x="249" y="435" on="1"/>
        <pt x="249" y="-185" on="1"/>
        <pt x="249" y="-200" on="0"/>
        <pt x="234" y="-200" on="1"/>
        <pt x="219" y="-200" on="0"/>
        <pt x="219" y="-185" on="1"/>
        <pt x="219" y="435" on="1"/>
        <pt x="219" y="450" on="0"/>
        <pt x="204" y="450" on="1"/>
        <pt x="49" y="450" on="1"/>
        <pt x="34" y="450" on="0"/>
        <pt x="34" y="465" on="1"/>
        <pt x="34" y="480" on="0"/>
        <pt x="49" y="480" on="1"/>
        <pt x="204" y="480" on="1"/>
        <pt x="219" y="480" on="0"/>
        <pt x="219" y="495" on="1"/>
        <pt x="219" y="685" on="1"/>
        <pt x="219" y="700" on="0"/>
        <pt x="234" y="700" on="1"/>
        <pt x="249" y="700" on="0"/>
        <pt x="249" y="685" on="1"/>
        <pt x="249" y="495" on="1"/>
        <pt x="249" y="480" on="0"/>
        <pt x="264" y="480" on="1"/>
        <pt x="419" y="480" on="1"/>
        <pt x="434" y="480" on="0"/>
        <pt x="434" y="465" on="1"/>
        <pt x="434" y="450" on="0"/>
        <pt x="419" y="450" on="1"/>
      </contour>
    </TTGlyph>
    <TTGlyph name="daggerdbl" xMin="43" yMin="-200" xMax="443" yMax="700">
      <contour>
        <pt x="428" y="50" on="1"/>
        <pt x="443" y="50" on="0"/>
        <pt x="443" y="35" on="1"/>
        <pt x="443" y="20" on="0"/>
        <pt x="428" y="20" on="1"/>
        <pt x="273" y="20" on="1"/>
        <pt x="259" y="20" on="0"/>
        <pt x="258" y="8" on="1"/>
        <pt x="258" y="-185" on="1"/>
        <pt x="258" y="-200" on="0"/>
        <pt x="243" y="-200" on="1"/>
        <pt x="228" y="-200" on="0"/>
        <pt x="228" y="-185" on="1"/>
        <pt x="228" y="8" on="1"/>
        <pt x="226" y="20" on="0"/>
        <pt x="213" y="20" on="1"/>
        <pt x="58" y="20" on="1"/>
        <pt x="43" y="20" on="0"/>
        <pt x="43" y="35" on="1"/>
        <pt x="43" y="50" on="0"/>
        <pt x="58" y="50" on="1"/>
        <pt x="213" y="50" on="1"/>
        <pt x="228" y="50" on="0"/>
        <pt x="228" y="65" on="1"/>
        <pt x="228" y="435" on="1"/>
        <pt x="228" y="450" on="0"/>
        <pt x="213" y="450" on="1"/>
        <pt x="58" y="450" on="1"/>
        <pt x="43" y="450" on="0"/>
        <pt x="43" y="465" on="1"/>
        <pt x="43" y="480" on="0"/>
        <pt x="58" y="480" on="1"/>
        <pt x="213" y="480" on="1"/>
        <pt x="228" y="480" on="0"/>
        <pt x="228" y="495" on="1"/>
        <pt x="228" y="685" on="1"/>
        <pt x="228" y="700" on="0"/>
        <pt x="243" y="700" on="1"/>
        <pt x="258" y="700" on="0"/>
        <pt x="258" y="685" on="1"/>
        <pt x="258" y="495" on="1"/>
        <pt x="258" y="480" on="0"/>
        <pt x="273" y="480" on="1"/>
        <pt x="428" y="480" on="1"/>
        <pt x="443" y="480" on="0"/>
        <pt x="443" y="465" on="1"/>
        <pt x="443" y="450" on="0"/>
        <pt x="428" y="450" on="1"/>
        <pt x="273" y="450" on="1"/>
        <pt x="258" y="450" on="0"/>
        <pt x="258" y="435" on="1"/>
        <pt x="258" y="65" on="1"/>
        <pt x="258" y="50" on="0"/>
        <pt x="273" y="50" on="1"/>
      </contour>
    </TTGlyph>
    <TTGlyph name="degree" xMin="55" yMin="370" xMax="385" yMax="710">
      <contour>
        <pt x="55" y="468" on="0"/>
        <pt x="55" y="612" on="0"/>
        <pt x="149" y="710" on="0"/>
        <pt x="291" y="710" on="0"/>
        <pt x="385" y="612" on="0"/>
        <pt x="385" y="468" on="0"/>
        <pt x="291" y="370" on="0"/>
        <pt x="149" y="370" on="0"/>
      </contour>
      <contour>
        <pt x="85" y="600" on="0"/>
        <pt x="85" y="480" on="0"/>
        <pt x="163" y="400" on="0"/>
        <pt x="277" y="400" on="0"/>
        <pt x="355" y="480" on="0"/>
        <pt x="355" y="600" on="0"/>
        <pt x="277" y="680" on="0"/>
        <pt x="163" y="680" on="0"/>
      </contour>
    </TTGlyph>
    <TTGlyph name="dieresis" xMin="0" yMin="560" xMax="240" yMax="640">
      <contour>
        <pt x="0" y="583" on="0"/>
        <pt x="0" y="617" on="0"/>
        <pt x="23" y="640" on="0"/>
        <pt x="57" y="640" on="0"/>
        <pt x="80" y="617" on="0"/>
        <pt x="80" y="583" on="0"/>
        <pt x="57" y="560" on="0"/>
        <pt x="23" y="560" on="0"/>
      </contour>
      <contour>
        <pt x="160" y="583" on="0"/>
        <pt x="160" y="617" on="0"/>
        <pt x="183" y="640" on="0"/>
        <pt x="217" y="640" on="0"/>
        <pt x="240" y="617" on="0"/>
        <pt x="240" y="583" on="0"/>
        <pt x="217" y="560" on="0"/>
        <pt x="183" y="560" on="0"/>
      </contour>
    </TTGlyph>
    <TTGlyph name="divide" xMin="80" yMin="110" xMax="500" yMax="530">
      <contour>
        <pt x="80" y="305" on="0"/>
        <pt x="80" y="335" on="0"/>
        <pt x="95" y="335" on="1"/>
        <pt x="485" y="335" on="1"/>
        <pt x="500" y="335" on="0"/>
        <pt x="500" y="305" on="0"/>
        <pt x="485" y="305" on="1"/>
        <pt x="95" y="305" on="1"/>
      </contour>
      <contour>
        <pt x="235" y="137" on="0"/>
        <pt x="235" y="183" on="0"/>
        <pt x="262" y="210" on="0"/>
        <pt x="308" y="210" on="0"/>
        <pt x="335" y="183" on="0"/>
        <pt x="335" y="137" on="0"/>
        <pt x="308" y="110" on="0"/>
        <pt x="262" y="110" on="0"/>
      </contour>
      <contour>
        <pt x="235" y="457" on="0"/>
        <pt x="235" y="503" on="0"/>
        <pt x="262" y="530" on="0"/>
        <pt x="308" y="530" on="0"/>
        <pt x="335" y="503" on="0"/>
        <pt x="335" y="457" on="0"/>
        <pt x="308" y="430" on="0"/>
        <pt x="262" y="430" on="0"/>
      </contour>
    </TTGlyph>
    <TTGlyph name="dollar" xMin="60" yMin="-80" xMax="580" yMax="780">
      <contour>
        <pt x="296" y="-8" on="1"/>
        <pt x="192" y="2" on="0"/>
        <pt x="106" y="75" on="1"/>
        <pt x="90" y="88" on="0"/>
        <pt x="90" y="65" on="1"/>
        <pt x="90" y="15" on="1"/>
        <pt x="90" y="0" on="0"/>
        <pt x="75" y="0" on="1"/>
        <pt x="60" y="0" on="0"/>
        <pt x="60" y="15" on="1"/>
        <pt x="60" y="205" on="1"/>
        <pt x="60" y="220" on="0"/>
        <pt x="75" y="220" on="1"/>
        <pt x="90" y="220" on="0"/>
        <pt x="90" y="205" on="1"/>
        <pt x="90" y="130" on="1"/>
        <pt x="142" y="71" on="0"/>
        <pt x="231" y="37" on="1"/>
        <pt x="260" y="26" on="0"/>
        <pt x="296" y="22" on="1"/>
        <pt x="296" y="346" on="1"/>
        <pt x="200" y="372" on="0"/>
        <pt x="109" y="417" on="0"/>
        <pt x="60" y="483" on="0"/>
        <pt x="60" y="526" on="1"/>
        <pt x="60" y="610" on="0"/>
        <pt x="170" y="710" on="0"/>
        <pt x="290" y="710" on="1"/>
        <pt x="296" y="710" on="1"/>
        <pt x="296" y="765" on="1"/>
        <pt x="296" y="780" on="0"/>
        <pt x="326" y="780" on="0"/>
        <pt x="326" y="765" on="1"/>
        <pt x="326" y="708" on="1"/>
        <pt x="415" y="694" on="0"/>
        <pt x="475" y="651" on="1"/>
        <pt x="496" y="636" on="0"/>
        <pt x="508" y="626" on="1"/>
        <pt x="526" y="612" on="0"/>
        <pt x="525" y="635" on="1"/>
        <pt x="525" y="685" on="1"/>
        <pt x="525" y="700" on="0"/>
        <pt x="540" y="700" on="1"/>
        <pt x="555" y="700" on="0"/>
        <pt x="555" y="685" on="1"/>
        <pt x="555" y="495" on="1"/>
        <pt x="555" y="480" on="0"/>
        <pt x="540" y="480" on="1"/>
        <pt x="525" y="480" on="0"/>
        <pt x="525" y="495" on="1"/>
        <pt x="525" y="565" on="1"/>
        <pt x="470" y="628" on="0"/>
        <pt x="387" y="662" on="1"/>
        <pt x="359" y="674" on="0"/>
        <pt x="326" y="678" on="1"/>
        <pt x="326" y="373" on="1"/>
        <pt x="329" y="372" on="0"/>
        <pt x="440" y="343" on="0"/>
        <pt x="531" y="298" on="0"/>
        <pt x="580" y="232" on="0"/>
        <pt x="580" y="186" on="1"/>
        <pt x="580" y="96" on="0"/>
        <pt x="454" y="-10" on="0"/>
        <pt x="335" y="-10" on="1"/>
        <pt x="326" y="-10" on="1"/>
        <pt x="326" y="-65" on="1"/>
        <pt x="326" y="-80" on="0"/>
        <pt x="296" y="-80" on="0"/>
        <pt x="296" y="-65" on="1"/>
      </contour>
      <contour>
        <pt x="335" y="20" on="1"/>
        <pt x="439" y="20" on="0"/>
        <pt x="550" y="109" on="0"/>
        <pt x="550" y="180" on="1"/>
        <pt x="550" y="219" on="0"/>
        <pt x="501" y="277" on="0"/>
        <pt x="430" y="309" on="0"/>
        <pt x="358" y="329" on="0"/>
        <pt x="326" y="338" on="1"/>
        <pt x="326" y="20" on="1"/>
      </contour>
      <contour>
        <pt x="90" y="496" on="0"/>
        <pt x="139" y="438" on="0"/>
        <pt x="210" y="406" on="0"/>
        <pt x="273" y="388" on="0"/>
        <pt x="296" y="381" on="1"/>
        <pt x="296" y="680" on="1"/>
        <pt x="290" y="680" on="1"/>
        <pt x="188" y="680" on="0"/>
        <pt x="90" y="596" on="0"/>
        <pt x="90" y="535" on="1"/>
      </contour>
    </TTGlyph>
    <TTGlyph name="e" xMin="52" yMin="-10" xMax="522" yMax="510">
      <contour>
        <pt x="444" y="70" on="1"/>
        <pt x="460" y="82" on="0"/>
        <pt x="477" y="98" on="0"/>
        <pt x="487" y="93" on="0"/>
        <pt x="502" y="76" on="0"/>
        <pt x="490" y="66" on="1"/>
        <pt x="454" y="35" on="0"/>
        <pt x="360" y="-10" on="0"/>
        <pt x="287" y="-10" on="1"/>
        <pt x="181" y="-10" on="0"/>
        <pt x="52" y="136" on="0"/>
        <pt x="52" y="250" on="1"/>
        <pt x="52" y="364" on="0"/>
        <pt x="181" y="510" on="0"/>
        <pt x="390" y="510" on="0"/>
        <pt x="456" y="444" on="1"/>
        <pt x="522" y="378" on="0"/>
        <pt x="522" y="285" on="1"/>
        <pt x="522" y="270" on="1"/>
        <pt x="522" y="240" on="0"/>
        <pt x="492" y="240" on="1"/>
        <pt x="98" y="240" on="1"/>
        <pt x="81" y="240" on="0"/>
        <pt x="83" y="225" on="1"/>
        <pt x="89" y="138" on="0"/>
        <pt x="196" y="20" on="0"/>
        <pt x="383" y="20" on="0"/>
      </contour>
      <contour>
        <pt x="84" y="282" on="1"/>
        <pt x="84" y="270" on="0"/>
        <pt x="98" y="270" on="1"/>
        <pt x="477" y="270" on="1"/>
        <pt x="492" y="270" on="0"/>
        <pt x="492" y="285" on="1"/>
        <pt x="492" y="365" on="0"/>
        <pt x="375" y="480" on="0"/>
        <pt x="196" y="480" on="0"/>
        <pt x="84" y="354" on="0"/>
      </contour>
    </TTGlyph>
</ttFont>
